<?xml version="1.0" encoding="utf-8" standalone="no"?>
<!DOCTYPE svg PUBLIC "-//W3C//DTD SVG 1.1//EN"
  "http://www.w3.org/Graphics/SVG/1.1/DTD/svg11.dtd">
<!-- Created with matplotlib (http://matplotlib.org/) -->
<svg height="394.1125pt" version="1.1" viewBox="0 0 526.7425 394.1125" width="526.7425pt" xmlns="http://www.w3.org/2000/svg" xmlns:xlink="http://www.w3.org/1999/xlink">
 <defs>
  <style type="text/css">
*{stroke-linecap:butt;stroke-linejoin:round;}
  </style>
 </defs>
 <g id="figure_1">
  <g id="patch_1">
   <path d="M 0 394.1125 
L 526.7425 394.1125 
L 526.7425 0 
L 0 0 
z
" style="fill:#ffffff;"/>
  </g>
  <g id="axes_1">
   <g id="patch_2">
    <path d="M 63.00625 337.2 
L 463.73625 337.2 
L 463.73625 10.7 
L 63.00625 10.7 
z
" style="fill:#ffffff;"/>
   </g>
   <g id="matplotlib.axis_1">
    <g id="xtick_1">
     <g id="line2d_1">
      <path clip-path="url(#p62e07f5587)" d="M 81.22125 337.2 
L 81.22125 10.7 
" style="fill:none;stroke:#b0b0b0;stroke-linecap:square;stroke-width:0.8;"/>
     </g>
     <g id="line2d_2">
      <defs>
       <path d="M 0 0 
L 0 3.5 
" id="mf21175d071" style="stroke:#000000;stroke-width:0.8;"/>
      </defs>
      <g>
       <use style="stroke:#000000;stroke-width:0.8;" x="81.22125" xlink:href="#mf21175d071" y="337.2"/>
      </g>
     </g>
     <g id="text_1">
      <!-- 0 -->
      <defs>
       <path d="M 31.78125 66.40625 
Q 24.171875 66.40625 20.328125 58.90625 
Q 16.5 51.421875 16.5 36.375 
Q 16.5 21.390625 20.328125 13.890625 
Q 24.171875 6.390625 31.78125 6.390625 
Q 39.453125 6.390625 43.28125 13.890625 
Q 47.125 21.390625 47.125 36.375 
Q 47.125 51.421875 43.28125 58.90625 
Q 39.453125 66.40625 31.78125 66.40625 
z
M 31.78125 74.21875 
Q 44.046875 74.21875 50.515625 64.515625 
Q 56.984375 54.828125 56.984375 36.375 
Q 56.984375 17.96875 50.515625 8.265625 
Q 44.046875 -1.421875 31.78125 -1.421875 
Q 19.53125 -1.421875 13.0625 8.265625 
Q 6.59375 17.96875 6.59375 36.375 
Q 6.59375 54.828125 13.0625 64.515625 
Q 19.53125 74.21875 31.78125 74.21875 
z
" id="DejaVuSans-30"/>
      </defs>
      <g transform="translate(74.85875 359.396875)scale(0.2 -0.2)">
       <use xlink:href="#DejaVuSans-30"/>
      </g>
     </g>
    </g>
    <g id="xtick_2">
     <g id="line2d_3">
      <path clip-path="url(#p62e07f5587)" d="M 154.08125 337.2 
L 154.08125 10.7 
" style="fill:none;stroke:#b0b0b0;stroke-linecap:square;stroke-width:0.8;"/>
     </g>
     <g id="line2d_4">
      <g>
       <use style="stroke:#000000;stroke-width:0.8;" x="154.08125" xlink:href="#mf21175d071" y="337.2"/>
      </g>
     </g>
     <g id="text_2">
      <!-- 100 -->
      <defs>
       <path d="M 12.40625 8.296875 
L 28.515625 8.296875 
L 28.515625 63.921875 
L 10.984375 60.40625 
L 10.984375 69.390625 
L 28.421875 72.90625 
L 38.28125 72.90625 
L 38.28125 8.296875 
L 54.390625 8.296875 
L 54.390625 0 
L 12.40625 0 
z
" id="DejaVuSans-31"/>
      </defs>
      <g transform="translate(134.99375 359.396875)scale(0.2 -0.2)">
       <use xlink:href="#DejaVuSans-31"/>
       <use x="63.623047" xlink:href="#DejaVuSans-30"/>
       <use x="127.246094" xlink:href="#DejaVuSans-30"/>
      </g>
     </g>
    </g>
    <g id="xtick_3">
     <g id="line2d_5">
      <path clip-path="url(#p62e07f5587)" d="M 226.94125 337.2 
L 226.94125 10.7 
" style="fill:none;stroke:#b0b0b0;stroke-linecap:square;stroke-width:0.8;"/>
     </g>
     <g id="line2d_6">
      <g>
       <use style="stroke:#000000;stroke-width:0.8;" x="226.94125" xlink:href="#mf21175d071" y="337.2"/>
      </g>
     </g>
     <g id="text_3">
      <!-- 200 -->
      <defs>
       <path d="M 19.1875 8.296875 
L 53.609375 8.296875 
L 53.609375 0 
L 7.328125 0 
L 7.328125 8.296875 
Q 12.9375 14.109375 22.625 23.890625 
Q 32.328125 33.6875 34.8125 36.53125 
Q 39.546875 41.84375 41.421875 45.53125 
Q 43.3125 49.21875 43.3125 52.78125 
Q 43.3125 58.59375 39.234375 62.25 
Q 35.15625 65.921875 28.609375 65.921875 
Q 23.96875 65.921875 18.8125 64.3125 
Q 13.671875 62.703125 7.8125 59.421875 
L 7.8125 69.390625 
Q 13.765625 71.78125 18.9375 73 
Q 24.125 74.21875 28.421875 74.21875 
Q 39.75 74.21875 46.484375 68.546875 
Q 53.21875 62.890625 53.21875 53.421875 
Q 53.21875 48.921875 51.53125 44.890625 
Q 49.859375 40.875 45.40625 35.40625 
Q 44.1875 33.984375 37.640625 27.21875 
Q 31.109375 20.453125 19.1875 8.296875 
z
" id="DejaVuSans-32"/>
      </defs>
      <g transform="translate(207.85375 359.396875)scale(0.2 -0.2)">
       <use xlink:href="#DejaVuSans-32"/>
       <use x="63.623047" xlink:href="#DejaVuSans-30"/>
       <use x="127.246094" xlink:href="#DejaVuSans-30"/>
      </g>
     </g>
    </g>
    <g id="xtick_4">
     <g id="line2d_7">
      <path clip-path="url(#p62e07f5587)" d="M 299.80125 337.2 
L 299.80125 10.7 
" style="fill:none;stroke:#b0b0b0;stroke-linecap:square;stroke-width:0.8;"/>
     </g>
     <g id="line2d_8">
      <g>
       <use style="stroke:#000000;stroke-width:0.8;" x="299.80125" xlink:href="#mf21175d071" y="337.2"/>
      </g>
     </g>
     <g id="text_4">
      <!-- 300 -->
      <defs>
       <path d="M 40.578125 39.3125 
Q 47.65625 37.796875 51.625 33 
Q 55.609375 28.21875 55.609375 21.1875 
Q 55.609375 10.40625 48.1875 4.484375 
Q 40.765625 -1.421875 27.09375 -1.421875 
Q 22.515625 -1.421875 17.65625 -0.515625 
Q 12.796875 0.390625 7.625 2.203125 
L 7.625 11.71875 
Q 11.71875 9.328125 16.59375 8.109375 
Q 21.484375 6.890625 26.8125 6.890625 
Q 36.078125 6.890625 40.9375 10.546875 
Q 45.796875 14.203125 45.796875 21.1875 
Q 45.796875 27.640625 41.28125 31.265625 
Q 36.765625 34.90625 28.71875 34.90625 
L 20.21875 34.90625 
L 20.21875 43.015625 
L 29.109375 43.015625 
Q 36.375 43.015625 40.234375 45.921875 
Q 44.09375 48.828125 44.09375 54.296875 
Q 44.09375 59.90625 40.109375 62.90625 
Q 36.140625 65.921875 28.71875 65.921875 
Q 24.65625 65.921875 20.015625 65.03125 
Q 15.375 64.15625 9.8125 62.3125 
L 9.8125 71.09375 
Q 15.4375 72.65625 20.34375 73.4375 
Q 25.25 74.21875 29.59375 74.21875 
Q 40.828125 74.21875 47.359375 69.109375 
Q 53.90625 64.015625 53.90625 55.328125 
Q 53.90625 49.265625 50.4375 45.09375 
Q 46.96875 40.921875 40.578125 39.3125 
z
" id="DejaVuSans-33"/>
      </defs>
      <g transform="translate(280.71375 359.396875)scale(0.2 -0.2)">
       <use xlink:href="#DejaVuSans-33"/>
       <use x="63.623047" xlink:href="#DejaVuSans-30"/>
       <use x="127.246094" xlink:href="#DejaVuSans-30"/>
      </g>
     </g>
    </g>
    <g id="xtick_5">
     <g id="line2d_9">
      <path clip-path="url(#p62e07f5587)" d="M 372.66125 337.2 
L 372.66125 10.7 
" style="fill:none;stroke:#b0b0b0;stroke-linecap:square;stroke-width:0.8;"/>
     </g>
     <g id="line2d_10">
      <g>
       <use style="stroke:#000000;stroke-width:0.8;" x="372.66125" xlink:href="#mf21175d071" y="337.2"/>
      </g>
     </g>
     <g id="text_5">
      <!-- 400 -->
      <defs>
       <path d="M 37.796875 64.3125 
L 12.890625 25.390625 
L 37.796875 25.390625 
z
M 35.203125 72.90625 
L 47.609375 72.90625 
L 47.609375 25.390625 
L 58.015625 25.390625 
L 58.015625 17.1875 
L 47.609375 17.1875 
L 47.609375 0 
L 37.796875 0 
L 37.796875 17.1875 
L 4.890625 17.1875 
L 4.890625 26.703125 
z
" id="DejaVuSans-34"/>
      </defs>
      <g transform="translate(353.57375 359.396875)scale(0.2 -0.2)">
       <use xlink:href="#DejaVuSans-34"/>
       <use x="63.623047" xlink:href="#DejaVuSans-30"/>
       <use x="127.246094" xlink:href="#DejaVuSans-30"/>
      </g>
     </g>
    </g>
    <g id="xtick_6">
     <g id="line2d_11">
      <path clip-path="url(#p62e07f5587)" d="M 445.52125 337.2 
L 445.52125 10.7 
" style="fill:none;stroke:#b0b0b0;stroke-linecap:square;stroke-width:0.8;"/>
     </g>
     <g id="line2d_12">
      <g>
       <use style="stroke:#000000;stroke-width:0.8;" x="445.52125" xlink:href="#mf21175d071" y="337.2"/>
      </g>
     </g>
     <g id="text_6">
      <!-- 500 -->
      <defs>
       <path d="M 10.796875 72.90625 
L 49.515625 72.90625 
L 49.515625 64.59375 
L 19.828125 64.59375 
L 19.828125 46.734375 
Q 21.96875 47.46875 24.109375 47.828125 
Q 26.265625 48.1875 28.421875 48.1875 
Q 40.625 48.1875 47.75 41.5 
Q 54.890625 34.8125 54.890625 23.390625 
Q 54.890625 11.625 47.5625 5.09375 
Q 40.234375 -1.421875 26.90625 -1.421875 
Q 22.3125 -1.421875 17.546875 -0.640625 
Q 12.796875 0.140625 7.71875 1.703125 
L 7.71875 11.625 
Q 12.109375 9.234375 16.796875 8.0625 
Q 21.484375 6.890625 26.703125 6.890625 
Q 35.15625 6.890625 40.078125 11.328125 
Q 45.015625 15.765625 45.015625 23.390625 
Q 45.015625 31 40.078125 35.4375 
Q 35.15625 39.890625 26.703125 39.890625 
Q 22.75 39.890625 18.8125 39.015625 
Q 14.890625 38.140625 10.796875 36.28125 
z
" id="DejaVuSans-35"/>
      </defs>
      <g transform="translate(426.43375 359.396875)scale(0.2 -0.2)">
       <use xlink:href="#DejaVuSans-35"/>
       <use x="63.623047" xlink:href="#DejaVuSans-30"/>
       <use x="127.246094" xlink:href="#DejaVuSans-30"/>
      </g>
     </g>
    </g>
    <g id="text_7">
     <!-- $t$ [s] -->
     <defs>
      <path d="M 42.28125 54.6875 
L 40.921875 47.703125 
L 23 47.703125 
L 17.1875 18.015625 
Q 16.890625 16.359375 16.75 15.234375 
Q 16.609375 14.109375 16.609375 13.484375 
Q 16.609375 10.359375 18.484375 8.9375 
Q 20.359375 7.515625 24.515625 7.515625 
L 33.59375 7.515625 
L 32.078125 0 
L 23.484375 0 
Q 15.484375 0 11.546875 3.125 
Q 7.625 6.25 7.625 12.59375 
Q 7.625 13.71875 7.765625 15.0625 
Q 7.90625 16.40625 8.203125 18.015625 
L 14.015625 47.703125 
L 6.390625 47.703125 
L 7.8125 54.6875 
L 15.28125 54.6875 
L 18.3125 70.21875 
L 27.296875 70.21875 
L 24.3125 54.6875 
z
" id="DejaVuSans-Oblique-74"/>
      <path id="DejaVuSans-20"/>
      <path d="M 8.59375 75.984375 
L 29.296875 75.984375 
L 29.296875 69 
L 17.578125 69 
L 17.578125 -6.203125 
L 29.296875 -6.203125 
L 29.296875 -13.1875 
L 8.59375 -13.1875 
z
" id="DejaVuSans-5b"/>
      <path d="M 44.28125 53.078125 
L 44.28125 44.578125 
Q 40.484375 46.53125 36.375 47.5 
Q 32.28125 48.484375 27.875 48.484375 
Q 21.1875 48.484375 17.84375 46.4375 
Q 14.5 44.390625 14.5 40.28125 
Q 14.5 37.15625 16.890625 35.375 
Q 19.28125 33.59375 26.515625 31.984375 
L 29.59375 31.296875 
Q 39.15625 29.25 43.1875 25.515625 
Q 47.21875 21.78125 47.21875 15.09375 
Q 47.21875 7.46875 41.1875 3.015625 
Q 35.15625 -1.421875 24.609375 -1.421875 
Q 20.21875 -1.421875 15.453125 -0.5625 
Q 10.6875 0.296875 5.421875 2 
L 5.421875 11.28125 
Q 10.40625 8.6875 15.234375 7.390625 
Q 20.0625 6.109375 24.8125 6.109375 
Q 31.15625 6.109375 34.5625 8.28125 
Q 37.984375 10.453125 37.984375 14.40625 
Q 37.984375 18.0625 35.515625 20.015625 
Q 33.0625 21.96875 24.703125 23.78125 
L 21.578125 24.515625 
Q 13.234375 26.265625 9.515625 29.90625 
Q 5.8125 33.546875 5.8125 39.890625 
Q 5.8125 47.609375 11.28125 51.796875 
Q 16.75 56 26.8125 56 
Q 31.78125 56 36.171875 55.265625 
Q 40.578125 54.546875 44.28125 53.078125 
z
" id="DejaVuSans-73"/>
      <path d="M 30.421875 75.984375 
L 30.421875 -13.1875 
L 9.71875 -13.1875 
L 9.71875 -6.203125 
L 21.390625 -6.203125 
L 21.390625 69 
L 9.71875 69 
L 9.71875 75.984375 
z
" id="DejaVuSans-5d"/>
     </defs>
     <g transform="translate(243.17125 382.753125)scale(0.2 -0.2)">
      <use transform="translate(0 0.015625)" xlink:href="#DejaVuSans-Oblique-74"/>
      <use transform="translate(39.208984 0.015625)" xlink:href="#DejaVuSans-20"/>
      <use transform="translate(70.996094 0.015625)" xlink:href="#DejaVuSans-5b"/>
      <use transform="translate(110.009766 0.015625)" xlink:href="#DejaVuSans-73"/>
      <use transform="translate(162.109375 0.015625)" xlink:href="#DejaVuSans-5d"/>
     </g>
    </g>
   </g>
   <g id="matplotlib.axis_2">
    <g id="ytick_1">
     <g id="line2d_13">
      <path clip-path="url(#p62e07f5587)" d="M 63.00625 282.882093 
L 463.73625 282.882093 
" style="fill:none;stroke:#b0b0b0;stroke-linecap:square;stroke-width:0.8;"/>
     </g>
     <g id="line2d_14">
      <defs>
       <path d="M 0 0 
L -3.5 0 
" id="m441309a8b3" style="stroke:#000000;stroke-width:0.8;"/>
      </defs>
      <g>
       <use style="stroke:#000000;stroke-width:0.8;" x="63.00625" xlink:href="#m441309a8b3" y="282.882093"/>
      </g>
     </g>
     <g id="text_8">
      <!-- 68 -->
      <defs>
       <path d="M 33.015625 40.375 
Q 26.375 40.375 22.484375 35.828125 
Q 18.609375 31.296875 18.609375 23.390625 
Q 18.609375 15.53125 22.484375 10.953125 
Q 26.375 6.390625 33.015625 6.390625 
Q 39.65625 6.390625 43.53125 10.953125 
Q 47.40625 15.53125 47.40625 23.390625 
Q 47.40625 31.296875 43.53125 35.828125 
Q 39.65625 40.375 33.015625 40.375 
z
M 52.59375 71.296875 
L 52.59375 62.3125 
Q 48.875 64.0625 45.09375 64.984375 
Q 41.3125 65.921875 37.59375 65.921875 
Q 27.828125 65.921875 22.671875 59.328125 
Q 17.53125 52.734375 16.796875 39.40625 
Q 19.671875 43.65625 24.015625 45.921875 
Q 28.375 48.1875 33.59375 48.1875 
Q 44.578125 48.1875 50.953125 41.515625 
Q 57.328125 34.859375 57.328125 23.390625 
Q 57.328125 12.15625 50.6875 5.359375 
Q 44.046875 -1.421875 33.015625 -1.421875 
Q 20.359375 -1.421875 13.671875 8.265625 
Q 6.984375 17.96875 6.984375 36.375 
Q 6.984375 53.65625 15.1875 63.9375 
Q 23.390625 74.21875 37.203125 74.21875 
Q 40.921875 74.21875 44.703125 73.484375 
Q 48.484375 72.75 52.59375 71.296875 
z
" id="DejaVuSans-36"/>
       <path d="M 31.78125 34.625 
Q 24.75 34.625 20.71875 30.859375 
Q 16.703125 27.09375 16.703125 20.515625 
Q 16.703125 13.921875 20.71875 10.15625 
Q 24.75 6.390625 31.78125 6.390625 
Q 38.8125 6.390625 42.859375 10.171875 
Q 46.921875 13.96875 46.921875 20.515625 
Q 46.921875 27.09375 42.890625 30.859375 
Q 38.875 34.625 31.78125 34.625 
z
M 21.921875 38.8125 
Q 15.578125 40.375 12.03125 44.71875 
Q 8.5 49.078125 8.5 55.328125 
Q 8.5 64.0625 14.71875 69.140625 
Q 20.953125 74.21875 31.78125 74.21875 
Q 42.671875 74.21875 48.875 69.140625 
Q 55.078125 64.0625 55.078125 55.328125 
Q 55.078125 49.078125 51.53125 44.71875 
Q 48 40.375 41.703125 38.8125 
Q 48.828125 37.15625 52.796875 32.3125 
Q 56.78125 27.484375 56.78125 20.515625 
Q 56.78125 9.90625 50.3125 4.234375 
Q 43.84375 -1.421875 31.78125 -1.421875 
Q 19.734375 -1.421875 13.25 4.234375 
Q 6.78125 9.90625 6.78125 20.515625 
Q 6.78125 27.484375 10.78125 32.3125 
Q 14.796875 37.15625 21.921875 38.8125 
z
M 18.3125 54.390625 
Q 18.3125 48.734375 21.84375 45.5625 
Q 25.390625 42.390625 31.78125 42.390625 
Q 38.140625 42.390625 41.71875 45.5625 
Q 45.3125 48.734375 45.3125 54.390625 
Q 45.3125 60.0625 41.71875 63.234375 
Q 38.140625 66.40625 31.78125 66.40625 
Q 25.390625 66.40625 21.84375 63.234375 
Q 18.3125 60.0625 18.3125 54.390625 
z
" id="DejaVuSans-38"/>
      </defs>
      <g style="fill:#ff0000;" transform="translate(30.55625 290.480531)scale(0.2 -0.2)">
       <use xlink:href="#DejaVuSans-36"/>
       <use x="63.623047" xlink:href="#DejaVuSans-38"/>
      </g>
     </g>
    </g>
    <g id="ytick_2">
     <g id="line2d_15">
      <path clip-path="url(#p62e07f5587)" d="M 63.00625 223.518187 
L 463.73625 223.518187 
" style="fill:none;stroke:#b0b0b0;stroke-linecap:square;stroke-width:0.8;"/>
     </g>
     <g id="line2d_16">
      <g>
       <use style="stroke:#000000;stroke-width:0.8;" x="63.00625" xlink:href="#m441309a8b3" y="223.518187"/>
      </g>
     </g>
     <g id="text_9">
      <!-- 70 -->
      <defs>
       <path d="M 8.203125 72.90625 
L 55.078125 72.90625 
L 55.078125 68.703125 
L 28.609375 0 
L 18.3125 0 
L 43.21875 64.59375 
L 8.203125 64.59375 
z
" id="DejaVuSans-37"/>
      </defs>
      <g style="fill:#ff0000;" transform="translate(30.55625 231.116625)scale(0.2 -0.2)">
       <use xlink:href="#DejaVuSans-37"/>
       <use x="63.623047" xlink:href="#DejaVuSans-30"/>
      </g>
     </g>
    </g>
    <g id="ytick_3">
     <g id="line2d_17">
      <path clip-path="url(#p62e07f5587)" d="M 63.00625 164.154281 
L 463.73625 164.154281 
" style="fill:none;stroke:#b0b0b0;stroke-linecap:square;stroke-width:0.8;"/>
     </g>
     <g id="line2d_18">
      <g>
       <use style="stroke:#000000;stroke-width:0.8;" x="63.00625" xlink:href="#m441309a8b3" y="164.154281"/>
      </g>
     </g>
     <g id="text_10">
      <!-- 72 -->
      <g style="fill:#ff0000;" transform="translate(30.55625 171.752719)scale(0.2 -0.2)">
       <use xlink:href="#DejaVuSans-37"/>
       <use x="63.623047" xlink:href="#DejaVuSans-32"/>
      </g>
     </g>
    </g>
    <g id="ytick_4">
     <g id="line2d_19">
      <path clip-path="url(#p62e07f5587)" d="M 63.00625 104.790375 
L 463.73625 104.790375 
" style="fill:none;stroke:#b0b0b0;stroke-linecap:square;stroke-width:0.8;"/>
     </g>
     <g id="line2d_20">
      <g>
       <use style="stroke:#000000;stroke-width:0.8;" x="63.00625" xlink:href="#m441309a8b3" y="104.790375"/>
      </g>
     </g>
     <g id="text_11">
      <!-- 74 -->
      <g style="fill:#ff0000;" transform="translate(30.55625 112.388812)scale(0.2 -0.2)">
       <use xlink:href="#DejaVuSans-37"/>
       <use x="63.623047" xlink:href="#DejaVuSans-34"/>
      </g>
     </g>
    </g>
    <g id="ytick_5">
     <g id="line2d_21">
      <path clip-path="url(#p62e07f5587)" d="M 63.00625 45.426469 
L 463.73625 45.426469 
" style="fill:none;stroke:#b0b0b0;stroke-linecap:square;stroke-width:0.8;"/>
     </g>
     <g id="line2d_22">
      <g>
       <use style="stroke:#000000;stroke-width:0.8;" x="63.00625" xlink:href="#m441309a8b3" y="45.426469"/>
      </g>
     </g>
     <g id="text_12">
      <!-- 76 -->
      <g style="fill:#ff0000;" transform="translate(30.55625 53.024906)scale(0.2 -0.2)">
       <use xlink:href="#DejaVuSans-37"/>
       <use x="63.623047" xlink:href="#DejaVuSans-36"/>
      </g>
     </g>
    </g>
    <g id="text_13">
     <!-- $P_{an}$ [MPa] -->
     <defs>
      <path d="M 16.890625 72.90625 
L 39.703125 72.90625 
Q 49.65625 72.90625 54.875 68.265625 
Q 60.109375 63.625 60.109375 54.6875 
Q 60.109375 42.671875 52.390625 35.984375 
Q 44.671875 29.296875 30.71875 29.296875 
L 18.3125 29.296875 
L 12.59375 0 
L 2.6875 0 
z
M 25.203125 64.796875 
L 19.921875 37.40625 
L 32.328125 37.40625 
Q 40.71875 37.40625 45.203125 41.703125 
Q 49.703125 46 49.703125 54 
Q 49.703125 59.125 46.65625 61.953125 
Q 43.609375 64.796875 38.09375 64.796875 
z
" id="DejaVuSans-Oblique-50"/>
      <path d="M 53.71875 31.203125 
L 47.609375 0 
L 38.625 0 
L 40.28125 8.296875 
Q 36.328125 3.421875 31.265625 1 
Q 26.21875 -1.421875 20.015625 -1.421875 
Q 13.03125 -1.421875 8.5625 2.84375 
Q 4.109375 7.125 4.109375 13.8125 
Q 4.109375 23.390625 11.75 28.953125 
Q 19.390625 34.515625 32.8125 34.515625 
L 45.3125 34.515625 
L 45.796875 36.921875 
Q 45.90625 37.3125 45.953125 37.765625 
Q 46 38.234375 46 39.203125 
Q 46 43.5625 42.453125 45.96875 
Q 38.921875 48.390625 32.515625 48.390625 
Q 28.125 48.390625 23.5 47.265625 
Q 18.890625 46.140625 14.015625 43.890625 
L 15.578125 52.203125 
Q 20.65625 54.109375 25.515625 55.046875 
Q 30.375 56 34.90625 56 
Q 44.578125 56 49.625 51.796875 
Q 54.6875 47.609375 54.6875 39.59375 
Q 54.6875 37.984375 54.4375 35.8125 
Q 54.203125 33.640625 53.71875 31.203125 
z
M 44 27.484375 
L 35.015625 27.484375 
Q 23.96875 27.484375 18.671875 24.53125 
Q 13.375 21.578125 13.375 15.375 
Q 13.375 11.078125 16.078125 8.640625 
Q 18.796875 6.203125 23.578125 6.203125 
Q 30.90625 6.203125 36.375 11.453125 
Q 41.84375 16.703125 43.609375 25.484375 
z
" id="DejaVuSans-Oblique-61"/>
      <path d="M 55.71875 33.015625 
L 49.3125 0 
L 40.28125 0 
L 46.6875 32.671875 
Q 47.125 34.96875 47.359375 36.71875 
Q 47.609375 38.484375 47.609375 39.5 
Q 47.609375 43.609375 45.015625 45.890625 
Q 42.4375 48.1875 37.796875 48.1875 
Q 30.5625 48.1875 25.34375 43.375 
Q 20.125 38.578125 18.5 30.328125 
L 12.5 0 
L 3.515625 0 
L 14.109375 54.6875 
L 23.09375 54.6875 
L 21.296875 46.09375 
Q 25.046875 50.828125 30.3125 53.40625 
Q 35.59375 56 41.40625 56 
Q 48.640625 56 52.609375 52.09375 
Q 56.59375 48.1875 56.59375 41.109375 
Q 56.59375 39.359375 56.375 37.359375 
Q 56.15625 35.359375 55.71875 33.015625 
z
" id="DejaVuSans-Oblique-6e"/>
      <path d="M 9.8125 72.90625 
L 24.515625 72.90625 
L 43.109375 23.296875 
L 61.8125 72.90625 
L 76.515625 72.90625 
L 76.515625 0 
L 66.890625 0 
L 66.890625 64.015625 
L 48.09375 14.015625 
L 38.1875 14.015625 
L 19.390625 64.015625 
L 19.390625 0 
L 9.8125 0 
z
" id="DejaVuSans-4d"/>
      <path d="M 19.671875 64.796875 
L 19.671875 37.40625 
L 32.078125 37.40625 
Q 38.96875 37.40625 42.71875 40.96875 
Q 46.484375 44.53125 46.484375 51.125 
Q 46.484375 57.671875 42.71875 61.234375 
Q 38.96875 64.796875 32.078125 64.796875 
z
M 9.8125 72.90625 
L 32.078125 72.90625 
Q 44.34375 72.90625 50.609375 67.359375 
Q 56.890625 61.8125 56.890625 51.125 
Q 56.890625 40.328125 50.609375 34.8125 
Q 44.34375 29.296875 32.078125 29.296875 
L 19.671875 29.296875 
L 19.671875 0 
L 9.8125 0 
z
" id="DejaVuSans-50"/>
      <path d="M 34.28125 27.484375 
Q 23.390625 27.484375 19.1875 25 
Q 14.984375 22.515625 14.984375 16.5 
Q 14.984375 11.71875 18.140625 8.90625 
Q 21.296875 6.109375 26.703125 6.109375 
Q 34.1875 6.109375 38.703125 11.40625 
Q 43.21875 16.703125 43.21875 25.484375 
L 43.21875 27.484375 
z
M 52.203125 31.203125 
L 52.203125 0 
L 43.21875 0 
L 43.21875 8.296875 
Q 40.140625 3.328125 35.546875 0.953125 
Q 30.953125 -1.421875 24.3125 -1.421875 
Q 15.921875 -1.421875 10.953125 3.296875 
Q 6 8.015625 6 15.921875 
Q 6 25.140625 12.171875 29.828125 
Q 18.359375 34.515625 30.609375 34.515625 
L 43.21875 34.515625 
L 43.21875 35.40625 
Q 43.21875 41.609375 39.140625 45 
Q 35.0625 48.390625 27.6875 48.390625 
Q 23 48.390625 18.546875 47.265625 
Q 14.109375 46.140625 10.015625 43.890625 
L 10.015625 52.203125 
Q 14.9375 54.109375 19.578125 55.046875 
Q 24.21875 56 28.609375 56 
Q 40.484375 56 46.34375 49.84375 
Q 52.203125 43.703125 52.203125 31.203125 
z
" id="DejaVuSans-61"/>
     </defs>
     <g style="fill:#ff0000;" transform="translate(22.396875 220.75)rotate(-90)scale(0.2 -0.2)">
      <use transform="translate(0 0.015625)" xlink:href="#DejaVuSans-Oblique-50"/>
      <use transform="translate(60.302734 -16.390625)scale(0.7)" xlink:href="#DejaVuSans-Oblique-61"/>
      <use transform="translate(103.198242 -16.390625)scale(0.7)" xlink:href="#DejaVuSans-Oblique-6e"/>
      <use transform="translate(150.297852 0.015625)" xlink:href="#DejaVuSans-20"/>
      <use transform="translate(182.084961 0.015625)" xlink:href="#DejaVuSans-5b"/>
      <use transform="translate(221.098633 0.015625)" xlink:href="#DejaVuSans-4d"/>
      <use transform="translate(307.37793 0.015625)" xlink:href="#DejaVuSans-50"/>
      <use transform="translate(367.680664 0.015625)" xlink:href="#DejaVuSans-61"/>
      <use transform="translate(428.959961 0.015625)" xlink:href="#DejaVuSans-5d"/>
     </g>
    </g>
   </g>
   <g id="line2d_23">
    <path clip-path="url(#p62e07f5587)" d="M 81.22125 322.359091 
L 84.86425 321.955112 
L 88.50725 311.119984 
L 92.15025 287.387833 
L 95.79325 260.190246 
L 99.43625 234.010901 
L 103.07925 210.162791 
L 106.72225 188.850184 
L 110.36525 169.934257 
L 114.00825 153.187448 
L 117.65125 138.377086 
L 121.29425 125.282514 
L 124.93725 113.706168 
L 128.58025 103.472525 
L 132.22325 94.425178 
L 135.86625 86.428295 
L 139.50925 79.35875 
L 143.15225 73.108965 
L 146.79525 67.585805 
L 150.43825 62.70241 
L 154.08125 58.387443 
L 157.72425 54.572974 
L 161.36725 51.201519 
L 165.01025 48.222169 
L 168.65325 45.588707 
L 172.29625 43.261663 
L 175.93925 41.204976 
L 179.58225 39.387914 
L 183.22525 37.784232 
L 186.86825 36.36686 
L 190.51125 35.111725 
L 194.15425 34.005535 
L 197.79725 33.027585 
L 201.44025 32.159788 
L 205.08325 31.394982 
L 208.72625 30.719589 
L 212.36925 30.120966 
L 216.01225 29.591501 
L 219.65525 29.122491 
L 223.29825 28.706817 
L 226.94125 28.340295 
L 230.58425 28.016522 
L 234.22725 27.729923 
L 237.87025 27.476708 
L 241.51325 27.252547 
L 245.15625 27.05431 
L 248.79925 26.879673 
L 252.44225 26.725083 
L 256.08525 26.588189 
L 259.72825 26.467386 
L 263.37125 26.36027 
L 267.01425 26.265364 
L 270.65725 26.181591 
L 274.30025 26.107413 
L 277.94325 26.041692 
L 281.58625 25.983581 
L 285.22925 25.93215 
L 288.87225 25.886904 
L 292.51525 25.847258 
L 296.15825 25.812447 
L 299.80125 25.781706 
L 303.44425 25.754269 
L 307.08725 25.7295 
L 310.73025 25.708355 
L 314.37325 25.690563 
L 318.01625 25.675296 
L 321.65925 25.661725 
L 325.30225 25.64902 
L 328.94525 25.636703 
L 332.58825 25.626576 
L 336.23125 25.618451 
L 339.87425 25.61163 
L 343.51725 25.605413 
L 347.16025 25.5991 
L 350.80325 25.592393 
L 354.44625 25.586574 
L 358.08925 25.581627 
L 361.73225 25.577334 
L 365.37525 25.573479 
L 369.01825 25.569848 
L 372.66125 25.566259 
L 376.30425 25.562761 
L 379.94725 25.559479 
L 383.59025 25.556535 
L 387.23325 25.554052 
L 390.87625 25.552153 
L 394.51925 25.550625 
L 398.16225 25.548984 
L 401.80525 25.547366 
L 405.44825 25.545916 
L 409.09125 25.544782 
L 412.73425 25.54411 
L 416.37725 25.543688 
L 420.02025 25.543189 
L 423.66325 25.542662 
L 427.30625 25.54216 
L 430.94925 25.541735 
L 434.59225 25.541438 
L 438.23525 25.541238 
L 441.87825 25.541071 
L 445.52125 25.540909 
" style="fill:none;stroke:#ff0000;stroke-linecap:square;stroke-width:1.5;"/>
    <defs>
     <path d="M 0 5 
C 1.326016 5 2.597899 4.473168 3.535534 3.535534 
C 4.473168 2.597899 5 1.326016 5 0 
C 5 -1.326016 4.473168 -2.597899 3.535534 -3.535534 
C 2.597899 -4.473168 1.326016 -5 0 -5 
C -1.326016 -5 -2.597899 -4.473168 -3.535534 -3.535534 
C -4.473168 -2.597899 -5 -1.326016 -5 0 
C -5 1.326016 -4.473168 2.597899 -3.535534 3.535534 
C -2.597899 4.473168 -1.326016 5 0 5 
z
" id="mcd8bec357f" style="stroke:#ff0000;"/>
    </defs>
    <g clip-path="url(#p62e07f5587)">
     <use style="fill:#ff0000;stroke:#ff0000;" x="81.22125" xlink:href="#mcd8bec357f" y="322.359091"/>
     <use style="fill:#ff0000;stroke:#ff0000;" x="84.86425" xlink:href="#mcd8bec357f" y="321.955112"/>
     <use style="fill:#ff0000;stroke:#ff0000;" x="88.50725" xlink:href="#mcd8bec357f" y="311.119984"/>
     <use style="fill:#ff0000;stroke:#ff0000;" x="92.15025" xlink:href="#mcd8bec357f" y="287.387833"/>
     <use style="fill:#ff0000;stroke:#ff0000;" x="95.79325" xlink:href="#mcd8bec357f" y="260.190246"/>
     <use style="fill:#ff0000;stroke:#ff0000;" x="99.43625" xlink:href="#mcd8bec357f" y="234.010901"/>
     <use style="fill:#ff0000;stroke:#ff0000;" x="103.07925" xlink:href="#mcd8bec357f" y="210.162791"/>
     <use style="fill:#ff0000;stroke:#ff0000;" x="106.72225" xlink:href="#mcd8bec357f" y="188.850184"/>
     <use style="fill:#ff0000;stroke:#ff0000;" x="110.36525" xlink:href="#mcd8bec357f" y="169.934257"/>
     <use style="fill:#ff0000;stroke:#ff0000;" x="114.00825" xlink:href="#mcd8bec357f" y="153.187448"/>
     <use style="fill:#ff0000;stroke:#ff0000;" x="117.65125" xlink:href="#mcd8bec357f" y="138.377086"/>
     <use style="fill:#ff0000;stroke:#ff0000;" x="121.29425" xlink:href="#mcd8bec357f" y="125.282514"/>
     <use style="fill:#ff0000;stroke:#ff0000;" x="124.93725" xlink:href="#mcd8bec357f" y="113.706168"/>
     <use style="fill:#ff0000;stroke:#ff0000;" x="128.58025" xlink:href="#mcd8bec357f" y="103.472525"/>
     <use style="fill:#ff0000;stroke:#ff0000;" x="132.22325" xlink:href="#mcd8bec357f" y="94.425178"/>
     <use style="fill:#ff0000;stroke:#ff0000;" x="135.86625" xlink:href="#mcd8bec357f" y="86.428295"/>
     <use style="fill:#ff0000;stroke:#ff0000;" x="139.50925" xlink:href="#mcd8bec357f" y="79.35875"/>
     <use style="fill:#ff0000;stroke:#ff0000;" x="143.15225" xlink:href="#mcd8bec357f" y="73.108965"/>
     <use style="fill:#ff0000;stroke:#ff0000;" x="146.79525" xlink:href="#mcd8bec357f" y="67.585805"/>
     <use style="fill:#ff0000;stroke:#ff0000;" x="150.43825" xlink:href="#mcd8bec357f" y="62.70241"/>
     <use style="fill:#ff0000;stroke:#ff0000;" x="154.08125" xlink:href="#mcd8bec357f" y="58.387443"/>
     <use style="fill:#ff0000;stroke:#ff0000;" x="157.72425" xlink:href="#mcd8bec357f" y="54.572974"/>
     <use style="fill:#ff0000;stroke:#ff0000;" x="161.36725" xlink:href="#mcd8bec357f" y="51.201519"/>
     <use style="fill:#ff0000;stroke:#ff0000;" x="165.01025" xlink:href="#mcd8bec357f" y="48.222169"/>
     <use style="fill:#ff0000;stroke:#ff0000;" x="168.65325" xlink:href="#mcd8bec357f" y="45.588707"/>
     <use style="fill:#ff0000;stroke:#ff0000;" x="172.29625" xlink:href="#mcd8bec357f" y="43.261663"/>
     <use style="fill:#ff0000;stroke:#ff0000;" x="175.93925" xlink:href="#mcd8bec357f" y="41.204976"/>
     <use style="fill:#ff0000;stroke:#ff0000;" x="179.58225" xlink:href="#mcd8bec357f" y="39.387914"/>
     <use style="fill:#ff0000;stroke:#ff0000;" x="183.22525" xlink:href="#mcd8bec357f" y="37.784232"/>
     <use style="fill:#ff0000;stroke:#ff0000;" x="186.86825" xlink:href="#mcd8bec357f" y="36.36686"/>
     <use style="fill:#ff0000;stroke:#ff0000;" x="190.51125" xlink:href="#mcd8bec357f" y="35.111725"/>
     <use style="fill:#ff0000;stroke:#ff0000;" x="194.15425" xlink:href="#mcd8bec357f" y="34.005535"/>
     <use style="fill:#ff0000;stroke:#ff0000;" x="197.79725" xlink:href="#mcd8bec357f" y="33.027585"/>
     <use style="fill:#ff0000;stroke:#ff0000;" x="201.44025" xlink:href="#mcd8bec357f" y="32.159788"/>
     <use style="fill:#ff0000;stroke:#ff0000;" x="205.08325" xlink:href="#mcd8bec357f" y="31.394982"/>
     <use style="fill:#ff0000;stroke:#ff0000;" x="208.72625" xlink:href="#mcd8bec357f" y="30.719589"/>
     <use style="fill:#ff0000;stroke:#ff0000;" x="212.36925" xlink:href="#mcd8bec357f" y="30.120966"/>
     <use style="fill:#ff0000;stroke:#ff0000;" x="216.01225" xlink:href="#mcd8bec357f" y="29.591501"/>
     <use style="fill:#ff0000;stroke:#ff0000;" x="219.65525" xlink:href="#mcd8bec357f" y="29.122491"/>
     <use style="fill:#ff0000;stroke:#ff0000;" x="223.29825" xlink:href="#mcd8bec357f" y="28.706817"/>
     <use style="fill:#ff0000;stroke:#ff0000;" x="226.94125" xlink:href="#mcd8bec357f" y="28.340295"/>
     <use style="fill:#ff0000;stroke:#ff0000;" x="230.58425" xlink:href="#mcd8bec357f" y="28.016522"/>
     <use style="fill:#ff0000;stroke:#ff0000;" x="234.22725" xlink:href="#mcd8bec357f" y="27.729923"/>
     <use style="fill:#ff0000;stroke:#ff0000;" x="237.87025" xlink:href="#mcd8bec357f" y="27.476708"/>
     <use style="fill:#ff0000;stroke:#ff0000;" x="241.51325" xlink:href="#mcd8bec357f" y="27.252547"/>
     <use style="fill:#ff0000;stroke:#ff0000;" x="245.15625" xlink:href="#mcd8bec357f" y="27.05431"/>
     <use style="fill:#ff0000;stroke:#ff0000;" x="248.79925" xlink:href="#mcd8bec357f" y="26.879673"/>
     <use style="fill:#ff0000;stroke:#ff0000;" x="252.44225" xlink:href="#mcd8bec357f" y="26.725083"/>
     <use style="fill:#ff0000;stroke:#ff0000;" x="256.08525" xlink:href="#mcd8bec357f" y="26.588189"/>
     <use style="fill:#ff0000;stroke:#ff0000;" x="259.72825" xlink:href="#mcd8bec357f" y="26.467386"/>
     <use style="fill:#ff0000;stroke:#ff0000;" x="263.37125" xlink:href="#mcd8bec357f" y="26.36027"/>
     <use style="fill:#ff0000;stroke:#ff0000;" x="267.01425" xlink:href="#mcd8bec357f" y="26.265364"/>
     <use style="fill:#ff0000;stroke:#ff0000;" x="270.65725" xlink:href="#mcd8bec357f" y="26.181591"/>
     <use style="fill:#ff0000;stroke:#ff0000;" x="274.30025" xlink:href="#mcd8bec357f" y="26.107413"/>
     <use style="fill:#ff0000;stroke:#ff0000;" x="277.94325" xlink:href="#mcd8bec357f" y="26.041692"/>
     <use style="fill:#ff0000;stroke:#ff0000;" x="281.58625" xlink:href="#mcd8bec357f" y="25.983581"/>
     <use style="fill:#ff0000;stroke:#ff0000;" x="285.22925" xlink:href="#mcd8bec357f" y="25.93215"/>
     <use style="fill:#ff0000;stroke:#ff0000;" x="288.87225" xlink:href="#mcd8bec357f" y="25.886904"/>
     <use style="fill:#ff0000;stroke:#ff0000;" x="292.51525" xlink:href="#mcd8bec357f" y="25.847258"/>
     <use style="fill:#ff0000;stroke:#ff0000;" x="296.15825" xlink:href="#mcd8bec357f" y="25.812447"/>
     <use style="fill:#ff0000;stroke:#ff0000;" x="299.80125" xlink:href="#mcd8bec357f" y="25.781706"/>
     <use style="fill:#ff0000;stroke:#ff0000;" x="303.44425" xlink:href="#mcd8bec357f" y="25.754269"/>
     <use style="fill:#ff0000;stroke:#ff0000;" x="307.08725" xlink:href="#mcd8bec357f" y="25.7295"/>
     <use style="fill:#ff0000;stroke:#ff0000;" x="310.73025" xlink:href="#mcd8bec357f" y="25.708355"/>
     <use style="fill:#ff0000;stroke:#ff0000;" x="314.37325" xlink:href="#mcd8bec357f" y="25.690563"/>
     <use style="fill:#ff0000;stroke:#ff0000;" x="318.01625" xlink:href="#mcd8bec357f" y="25.675296"/>
     <use style="fill:#ff0000;stroke:#ff0000;" x="321.65925" xlink:href="#mcd8bec357f" y="25.661725"/>
     <use style="fill:#ff0000;stroke:#ff0000;" x="325.30225" xlink:href="#mcd8bec357f" y="25.64902"/>
     <use style="fill:#ff0000;stroke:#ff0000;" x="328.94525" xlink:href="#mcd8bec357f" y="25.636703"/>
     <use style="fill:#ff0000;stroke:#ff0000;" x="332.58825" xlink:href="#mcd8bec357f" y="25.626576"/>
     <use style="fill:#ff0000;stroke:#ff0000;" x="336.23125" xlink:href="#mcd8bec357f" y="25.618451"/>
     <use style="fill:#ff0000;stroke:#ff0000;" x="339.87425" xlink:href="#mcd8bec357f" y="25.61163"/>
     <use style="fill:#ff0000;stroke:#ff0000;" x="343.51725" xlink:href="#mcd8bec357f" y="25.605413"/>
     <use style="fill:#ff0000;stroke:#ff0000;" x="347.16025" xlink:href="#mcd8bec357f" y="25.5991"/>
     <use style="fill:#ff0000;stroke:#ff0000;" x="350.80325" xlink:href="#mcd8bec357f" y="25.592393"/>
     <use style="fill:#ff0000;stroke:#ff0000;" x="354.44625" xlink:href="#mcd8bec357f" y="25.586574"/>
     <use style="fill:#ff0000;stroke:#ff0000;" x="358.08925" xlink:href="#mcd8bec357f" y="25.581627"/>
     <use style="fill:#ff0000;stroke:#ff0000;" x="361.73225" xlink:href="#mcd8bec357f" y="25.577334"/>
     <use style="fill:#ff0000;stroke:#ff0000;" x="365.37525" xlink:href="#mcd8bec357f" y="25.573479"/>
     <use style="fill:#ff0000;stroke:#ff0000;" x="369.01825" xlink:href="#mcd8bec357f" y="25.569848"/>
     <use style="fill:#ff0000;stroke:#ff0000;" x="372.66125" xlink:href="#mcd8bec357f" y="25.566259"/>
     <use style="fill:#ff0000;stroke:#ff0000;" x="376.30425" xlink:href="#mcd8bec357f" y="25.562761"/>
     <use style="fill:#ff0000;stroke:#ff0000;" x="379.94725" xlink:href="#mcd8bec357f" y="25.559479"/>
     <use style="fill:#ff0000;stroke:#ff0000;" x="383.59025" xlink:href="#mcd8bec357f" y="25.556535"/>
     <use style="fill:#ff0000;stroke:#ff0000;" x="387.23325" xlink:href="#mcd8bec357f" y="25.554052"/>
     <use style="fill:#ff0000;stroke:#ff0000;" x="390.87625" xlink:href="#mcd8bec357f" y="25.552153"/>
     <use style="fill:#ff0000;stroke:#ff0000;" x="394.51925" xlink:href="#mcd8bec357f" y="25.550625"/>
     <use style="fill:#ff0000;stroke:#ff0000;" x="398.16225" xlink:href="#mcd8bec357f" y="25.548984"/>
     <use style="fill:#ff0000;stroke:#ff0000;" x="401.80525" xlink:href="#mcd8bec357f" y="25.547366"/>
     <use style="fill:#ff0000;stroke:#ff0000;" x="405.44825" xlink:href="#mcd8bec357f" y="25.545916"/>
     <use style="fill:#ff0000;stroke:#ff0000;" x="409.09125" xlink:href="#mcd8bec357f" y="25.544782"/>
     <use style="fill:#ff0000;stroke:#ff0000;" x="412.73425" xlink:href="#mcd8bec357f" y="25.54411"/>
     <use style="fill:#ff0000;stroke:#ff0000;" x="416.37725" xlink:href="#mcd8bec357f" y="25.543688"/>
     <use style="fill:#ff0000;stroke:#ff0000;" x="420.02025" xlink:href="#mcd8bec357f" y="25.543189"/>
     <use style="fill:#ff0000;stroke:#ff0000;" x="423.66325" xlink:href="#mcd8bec357f" y="25.542662"/>
     <use style="fill:#ff0000;stroke:#ff0000;" x="427.30625" xlink:href="#mcd8bec357f" y="25.54216"/>
     <use style="fill:#ff0000;stroke:#ff0000;" x="430.94925" xlink:href="#mcd8bec357f" y="25.541735"/>
     <use style="fill:#ff0000;stroke:#ff0000;" x="434.59225" xlink:href="#mcd8bec357f" y="25.541438"/>
     <use style="fill:#ff0000;stroke:#ff0000;" x="438.23525" xlink:href="#mcd8bec357f" y="25.541238"/>
     <use style="fill:#ff0000;stroke:#ff0000;" x="441.87825" xlink:href="#mcd8bec357f" y="25.541071"/>
     <use style="fill:#ff0000;stroke:#ff0000;" x="445.52125" xlink:href="#mcd8bec357f" y="25.540909"/>
    </g>
   </g>
   <g id="patch_3">
    <path d="M 63.00625 337.2 
L 63.00625 10.7 
" style="fill:none;stroke:#000000;stroke-linecap:square;stroke-linejoin:miter;stroke-width:0.8;"/>
   </g>
   <g id="patch_4">
    <path d="M 463.73625 337.2 
L 463.73625 10.7 
" style="fill:none;stroke:#000000;stroke-linecap:square;stroke-linejoin:miter;stroke-width:0.8;"/>
   </g>
   <g id="patch_5">
    <path d="M 63.00625 337.2 
L 463.73625 337.2 
" style="fill:none;stroke:#000000;stroke-linecap:square;stroke-linejoin:miter;stroke-width:0.8;"/>
   </g>
   <g id="patch_6">
    <path d="M 63.00625 10.7 
L 463.73625 10.7 
" style="fill:none;stroke:#000000;stroke-linecap:square;stroke-linejoin:miter;stroke-width:0.8;"/>
   </g>
  </g>
  <g id="axes_2">
   <g id="matplotlib.axis_3">
    <g id="ytick_6">
     <g id="line2d_24">
      <defs>
       <path d="M 0 0 
L 3.5 0 
" id="m43bb3852da" style="stroke:#000000;stroke-width:0.8;"/>
      </defs>
      <g>
       <use style="stroke:#000000;stroke-width:0.8;" x="463.73625" xlink:href="#m43bb3852da" y="282.585006"/>
      </g>
     </g>
     <g id="text_14">
      <!-- 68 -->
      <g style="fill:#0000ff;" transform="translate(470.73625 290.183443)scale(0.2 -0.2)">
       <use xlink:href="#DejaVuSans-36"/>
       <use x="63.623047" xlink:href="#DejaVuSans-38"/>
      </g>
     </g>
    </g>
    <g id="ytick_7">
     <g id="line2d_25">
      <g>
       <use style="stroke:#000000;stroke-width:0.8;" x="463.73625" xlink:href="#m43bb3852da" y="223.2207"/>
      </g>
     </g>
     <g id="text_15">
      <!-- 70 -->
      <g style="fill:#0000ff;" transform="translate(470.73625 230.819137)scale(0.2 -0.2)">
       <use xlink:href="#DejaVuSans-37"/>
       <use x="63.623047" xlink:href="#DejaVuSans-30"/>
      </g>
     </g>
    </g>
    <g id="ytick_8">
     <g id="line2d_26">
      <g>
       <use style="stroke:#000000;stroke-width:0.8;" x="463.73625" xlink:href="#m43bb3852da" y="163.856394"/>
      </g>
     </g>
     <g id="text_16">
      <!-- 72 -->
      <g style="fill:#0000ff;" transform="translate(470.73625 171.454831)scale(0.2 -0.2)">
       <use xlink:href="#DejaVuSans-37"/>
       <use x="63.623047" xlink:href="#DejaVuSans-32"/>
      </g>
     </g>
    </g>
    <g id="ytick_9">
     <g id="line2d_27">
      <g>
       <use style="stroke:#000000;stroke-width:0.8;" x="463.73625" xlink:href="#m43bb3852da" y="104.492088"/>
      </g>
     </g>
     <g id="text_17">
      <!-- 74 -->
      <g style="fill:#0000ff;" transform="translate(470.73625 112.090525)scale(0.2 -0.2)">
       <use xlink:href="#DejaVuSans-37"/>
       <use x="63.623047" xlink:href="#DejaVuSans-34"/>
      </g>
     </g>
    </g>
    <g id="ytick_10">
     <g id="line2d_28">
      <g>
       <use style="stroke:#000000;stroke-width:0.8;" x="463.73625" xlink:href="#m43bb3852da" y="45.127782"/>
      </g>
     </g>
     <g id="text_18">
      <!-- 76 -->
      <g style="fill:#0000ff;" transform="translate(470.73625 52.726219)scale(0.2 -0.2)">
       <use xlink:href="#DejaVuSans-37"/>
       <use x="63.623047" xlink:href="#DejaVuSans-36"/>
      </g>
     </g>
    </g>
    <g id="text_19">
     <!-- $P_{num}$ [MPa] -->
     <defs>
      <path d="M 6.6875 21.6875 
L 13.09375 54.6875 
L 22.125 54.6875 
L 15.71875 22.015625 
Q 15.234375 19.625 15.015625 17.921875 
Q 14.796875 16.21875 14.796875 15.09375 
Q 14.796875 10.9375 17.328125 8.65625 
Q 19.875 6.390625 24.515625 6.390625 
Q 31.734375 6.390625 37 11.265625 
Q 42.28125 16.15625 43.890625 24.421875 
L 49.90625 54.6875 
L 58.890625 54.6875 
L 48.296875 0 
L 39.3125 0 
L 41.109375 8.59375 
Q 37.3125 3.8125 32.0625 1.1875 
Q 26.8125 -1.421875 20.90625 -1.421875 
Q 13.71875 -1.421875 9.71875 2.515625 
Q 5.71875 6.453125 5.71875 13.484375 
Q 5.71875 14.9375 5.953125 17.140625 
Q 6.203125 19.34375 6.6875 21.6875 
z
" id="DejaVuSans-Oblique-75"/>
      <path d="M 89.796875 33.015625 
L 83.40625 0 
L 74.421875 0 
L 80.71875 32.71875 
Q 81.109375 34.8125 81.296875 36.328125 
Q 81.5 37.84375 81.5 38.921875 
Q 81.5 43.3125 79.046875 45.75 
Q 76.609375 48.1875 72.21875 48.1875 
Q 65.671875 48.1875 60.546875 43.28125 
Q 55.421875 38.375 53.90625 30.515625 
L 47.90625 0 
L 38.921875 0 
L 45.3125 32.71875 
Q 45.703125 34.515625 45.890625 36.046875 
Q 46.09375 37.59375 46.09375 38.8125 
Q 46.09375 43.265625 43.65625 45.71875 
Q 41.21875 48.1875 36.921875 48.1875 
Q 30.28125 48.1875 25.140625 43.28125 
Q 20.015625 38.375 18.5 30.515625 
L 12.5 0 
L 3.515625 0 
L 14.203125 54.6875 
L 23.1875 54.6875 
L 21.484375 46.1875 
Q 25.140625 50.984375 30.046875 53.484375 
Q 34.96875 56 40.578125 56 
Q 46.53125 56 50.359375 52.875 
Q 54.203125 49.75 54.984375 44.1875 
Q 59.078125 49.953125 64.46875 52.96875 
Q 69.875 56 75.875 56 
Q 82.90625 56 86.734375 51.953125 
Q 90.578125 47.90625 90.578125 40.484375 
Q 90.578125 38.875 90.375 36.9375 
Q 90.1875 35.015625 89.796875 33.015625 
z
" id="DejaVuSans-Oblique-6d"/>
     </defs>
     <g style="fill:#0000ff;" transform="translate(515.383125 227.75)rotate(-90)scale(0.2 -0.2)">
      <use transform="translate(0 0.015625)" xlink:href="#DejaVuSans-Oblique-50"/>
      <use transform="translate(60.302734 -16.390625)scale(0.7)" xlink:href="#DejaVuSans-Oblique-6e"/>
      <use transform="translate(104.667969 -16.390625)scale(0.7)" xlink:href="#DejaVuSans-Oblique-75"/>
      <use transform="translate(149.033203 -16.390625)scale(0.7)" xlink:href="#DejaVuSans-Oblique-6d"/>
      <use transform="translate(219.956055 0.015625)" xlink:href="#DejaVuSans-20"/>
      <use transform="translate(251.743164 0.015625)" xlink:href="#DejaVuSans-5b"/>
      <use transform="translate(290.756836 0.015625)" xlink:href="#DejaVuSans-4d"/>
      <use transform="translate(377.036133 0.015625)" xlink:href="#DejaVuSans-50"/>
      <use transform="translate(437.338867 0.015625)" xlink:href="#DejaVuSans-61"/>
      <use transform="translate(498.618164 0.015625)" xlink:href="#DejaVuSans-5d"/>
     </g>
    </g>
   </g>
   <g id="line2d_29">
    <path clip-path="url(#p62e07f5587)" d="M 81.22125 322.359091 
L 84.86425 315.561083 
L 88.50725 300.381804 
L 92.15025 279.644249 
L 95.79325 256.684875 
L 99.43625 233.775742 
L 103.07925 212.114639 
L 106.72225 192.205582 
L 110.36525 174.179246 
L 114.00825 157.986998 
L 117.65125 143.503618 
L 121.29425 130.577863 
L 124.93725 119.056007 
L 128.58025 108.792103 
L 132.22325 99.651904 
L 135.86625 91.513853 
L 139.50925 84.268766 
L 143.15225 77.818991 
L 146.79525 72.077381 
L 150.43825 66.966255 
L 154.08125 62.416414 
L 157.72425 58.366238 
L 161.36725 54.76086 
L 165.01025 51.551436 
L 168.65325 48.694483 
L 172.29625 46.151292 
L 175.93925 43.887404 
L 179.58225 41.872146 
L 183.22525 40.078212 
L 186.86825 38.481296 
L 190.51125 37.059759 
L 194.15425 35.794342 
L 197.79725 34.667899 
L 201.44025 33.665166 
L 205.08325 32.772558 
L 208.72625 31.977979 
L 212.36925 31.270665 
L 216.01225 30.641031 
L 219.65525 30.080546 
L 223.29825 29.581616 
L 226.94125 29.137481 
L 230.58425 28.742122 
L 234.22725 28.390183 
L 237.87025 28.076896 
L 241.51325 27.798015 
L 245.15625 27.549763 
L 248.79925 27.328774 
L 252.44225 27.132055 
L 256.08525 26.956941 
L 259.72825 26.801059 
L 263.37125 26.662296 
L 267.01425 26.538773 
L 270.65725 26.428815 
L 274.30025 26.330934 
L 277.94325 26.243802 
L 281.58625 26.16624 
L 285.22925 26.097196 
L 288.87225 26.035734 
L 292.51525 25.981023 
L 296.15825 25.93232 
L 299.80125 25.888966 
L 303.44425 25.850373 
L 307.08725 25.816018 
L 310.73025 25.785437 
L 314.37325 25.758214 
L 318.01625 25.733981 
L 321.65925 25.712409 
L 325.30225 25.693207 
L 328.94525 25.676113 
L 332.58825 25.660897 
L 336.23125 25.647351 
L 339.87425 25.635294 
L 343.51725 25.62456 
L 347.16025 25.615006 
L 350.80325 25.6065 
L 354.44625 25.598929 
L 358.08925 25.592189 
L 361.73225 25.58619 
L 365.37525 25.580849 
L 369.01825 25.576095 
L 372.66125 25.571863 
L 376.30425 25.568096 
L 379.94725 25.564742 
L 383.59025 25.561757 
L 387.23325 25.5591 
L 390.87625 25.556734 
L 394.51925 25.554628 
L 398.16225 25.552754 
L 401.80525 25.551085 
L 405.44825 25.5496 
L 409.09125 25.548278 
L 412.73425 25.547101 
L 416.37725 25.546053 
L 420.02025 25.54512 
L 423.66325 25.54429 
L 427.30625 25.543551 
L 430.94925 25.542893 
L 434.59225 25.542308 
L 438.23525 25.541786 
L 441.87825 25.541322 
L 445.52125 25.540909 
" style="fill:none;stroke:#0000ff;stroke-dasharray:5.55,2.4;stroke-dashoffset:0;stroke-width:1.5;"/>
    <defs>
     <path d="M -5 5 
L 5 5 
L 5 -5 
L -5 -5 
z
" id="mda31a83c8d" style="stroke:#0000ff;stroke-linejoin:miter;"/>
    </defs>
    <g clip-path="url(#p62e07f5587)">
     <use style="fill:#0000ff;stroke:#0000ff;stroke-linejoin:miter;" x="81.22125" xlink:href="#mda31a83c8d" y="322.359091"/>
     <use style="fill:#0000ff;stroke:#0000ff;stroke-linejoin:miter;" x="84.86425" xlink:href="#mda31a83c8d" y="315.561083"/>
     <use style="fill:#0000ff;stroke:#0000ff;stroke-linejoin:miter;" x="88.50725" xlink:href="#mda31a83c8d" y="300.381804"/>
     <use style="fill:#0000ff;stroke:#0000ff;stroke-linejoin:miter;" x="92.15025" xlink:href="#mda31a83c8d" y="279.644249"/>
     <use style="fill:#0000ff;stroke:#0000ff;stroke-linejoin:miter;" x="95.79325" xlink:href="#mda31a83c8d" y="256.684875"/>
     <use style="fill:#0000ff;stroke:#0000ff;stroke-linejoin:miter;" x="99.43625" xlink:href="#mda31a83c8d" y="233.775742"/>
     <use style="fill:#0000ff;stroke:#0000ff;stroke-linejoin:miter;" x="103.07925" xlink:href="#mda31a83c8d" y="212.114639"/>
     <use style="fill:#0000ff;stroke:#0000ff;stroke-linejoin:miter;" x="106.72225" xlink:href="#mda31a83c8d" y="192.205582"/>
     <use style="fill:#0000ff;stroke:#0000ff;stroke-linejoin:miter;" x="110.36525" xlink:href="#mda31a83c8d" y="174.179246"/>
     <use style="fill:#0000ff;stroke:#0000ff;stroke-linejoin:miter;" x="114.00825" xlink:href="#mda31a83c8d" y="157.986998"/>
     <use style="fill:#0000ff;stroke:#0000ff;stroke-linejoin:miter;" x="117.65125" xlink:href="#mda31a83c8d" y="143.503618"/>
     <use style="fill:#0000ff;stroke:#0000ff;stroke-linejoin:miter;" x="121.29425" xlink:href="#mda31a83c8d" y="130.577863"/>
     <use style="fill:#0000ff;stroke:#0000ff;stroke-linejoin:miter;" x="124.93725" xlink:href="#mda31a83c8d" y="119.056007"/>
     <use style="fill:#0000ff;stroke:#0000ff;stroke-linejoin:miter;" x="128.58025" xlink:href="#mda31a83c8d" y="108.792103"/>
     <use style="fill:#0000ff;stroke:#0000ff;stroke-linejoin:miter;" x="132.22325" xlink:href="#mda31a83c8d" y="99.651904"/>
     <use style="fill:#0000ff;stroke:#0000ff;stroke-linejoin:miter;" x="135.86625" xlink:href="#mda31a83c8d" y="91.513853"/>
     <use style="fill:#0000ff;stroke:#0000ff;stroke-linejoin:miter;" x="139.50925" xlink:href="#mda31a83c8d" y="84.268766"/>
     <use style="fill:#0000ff;stroke:#0000ff;stroke-linejoin:miter;" x="143.15225" xlink:href="#mda31a83c8d" y="77.818991"/>
     <use style="fill:#0000ff;stroke:#0000ff;stroke-linejoin:miter;" x="146.79525" xlink:href="#mda31a83c8d" y="72.077381"/>
     <use style="fill:#0000ff;stroke:#0000ff;stroke-linejoin:miter;" x="150.43825" xlink:href="#mda31a83c8d" y="66.966255"/>
     <use style="fill:#0000ff;stroke:#0000ff;stroke-linejoin:miter;" x="154.08125" xlink:href="#mda31a83c8d" y="62.416414"/>
     <use style="fill:#0000ff;stroke:#0000ff;stroke-linejoin:miter;" x="157.72425" xlink:href="#mda31a83c8d" y="58.366238"/>
     <use style="fill:#0000ff;stroke:#0000ff;stroke-linejoin:miter;" x="161.36725" xlink:href="#mda31a83c8d" y="54.76086"/>
     <use style="fill:#0000ff;stroke:#0000ff;stroke-linejoin:miter;" x="165.01025" xlink:href="#mda31a83c8d" y="51.551436"/>
     <use style="fill:#0000ff;stroke:#0000ff;stroke-linejoin:miter;" x="168.65325" xlink:href="#mda31a83c8d" y="48.694483"/>
     <use style="fill:#0000ff;stroke:#0000ff;stroke-linejoin:miter;" x="172.29625" xlink:href="#mda31a83c8d" y="46.151292"/>
     <use style="fill:#0000ff;stroke:#0000ff;stroke-linejoin:miter;" x="175.93925" xlink:href="#mda31a83c8d" y="43.887404"/>
     <use style="fill:#0000ff;stroke:#0000ff;stroke-linejoin:miter;" x="179.58225" xlink:href="#mda31a83c8d" y="41.872146"/>
     <use style="fill:#0000ff;stroke:#0000ff;stroke-linejoin:miter;" x="183.22525" xlink:href="#mda31a83c8d" y="40.078212"/>
     <use style="fill:#0000ff;stroke:#0000ff;stroke-linejoin:miter;" x="186.86825" xlink:href="#mda31a83c8d" y="38.481296"/>
     <use style="fill:#0000ff;stroke:#0000ff;stroke-linejoin:miter;" x="190.51125" xlink:href="#mda31a83c8d" y="37.059759"/>
     <use style="fill:#0000ff;stroke:#0000ff;stroke-linejoin:miter;" x="194.15425" xlink:href="#mda31a83c8d" y="35.794342"/>
     <use style="fill:#0000ff;stroke:#0000ff;stroke-linejoin:miter;" x="197.79725" xlink:href="#mda31a83c8d" y="34.667899"/>
     <use style="fill:#0000ff;stroke:#0000ff;stroke-linejoin:miter;" x="201.44025" xlink:href="#mda31a83c8d" y="33.665166"/>
     <use style="fill:#0000ff;stroke:#0000ff;stroke-linejoin:miter;" x="205.08325" xlink:href="#mda31a83c8d" y="32.772558"/>
     <use style="fill:#0000ff;stroke:#0000ff;stroke-linejoin:miter;" x="208.72625" xlink:href="#mda31a83c8d" y="31.977979"/>
     <use style="fill:#0000ff;stroke:#0000ff;stroke-linejoin:miter;" x="212.36925" xlink:href="#mda31a83c8d" y="31.270665"/>
     <use style="fill:#0000ff;stroke:#0000ff;stroke-linejoin:miter;" x="216.01225" xlink:href="#mda31a83c8d" y="30.641031"/>
     <use style="fill:#0000ff;stroke:#0000ff;stroke-linejoin:miter;" x="219.65525" xlink:href="#mda31a83c8d" y="30.080546"/>
     <use style="fill:#0000ff;stroke:#0000ff;stroke-linejoin:miter;" x="223.29825" xlink:href="#mda31a83c8d" y="29.581616"/>
     <use style="fill:#0000ff;stroke:#0000ff;stroke-linejoin:miter;" x="226.94125" xlink:href="#mda31a83c8d" y="29.137481"/>
     <use style="fill:#0000ff;stroke:#0000ff;stroke-linejoin:miter;" x="230.58425" xlink:href="#mda31a83c8d" y="28.742122"/>
     <use style="fill:#0000ff;stroke:#0000ff;stroke-linejoin:miter;" x="234.22725" xlink:href="#mda31a83c8d" y="28.390183"/>
     <use style="fill:#0000ff;stroke:#0000ff;stroke-linejoin:miter;" x="237.87025" xlink:href="#mda31a83c8d" y="28.076896"/>
     <use style="fill:#0000ff;stroke:#0000ff;stroke-linejoin:miter;" x="241.51325" xlink:href="#mda31a83c8d" y="27.798015"/>
     <use style="fill:#0000ff;stroke:#0000ff;stroke-linejoin:miter;" x="245.15625" xlink:href="#mda31a83c8d" y="27.549763"/>
     <use style="fill:#0000ff;stroke:#0000ff;stroke-linejoin:miter;" x="248.79925" xlink:href="#mda31a83c8d" y="27.328774"/>
     <use style="fill:#0000ff;stroke:#0000ff;stroke-linejoin:miter;" x="252.44225" xlink:href="#mda31a83c8d" y="27.132055"/>
     <use style="fill:#0000ff;stroke:#0000ff;stroke-linejoin:miter;" x="256.08525" xlink:href="#mda31a83c8d" y="26.956941"/>
     <use style="fill:#0000ff;stroke:#0000ff;stroke-linejoin:miter;" x="259.72825" xlink:href="#mda31a83c8d" y="26.801059"/>
     <use style="fill:#0000ff;stroke:#0000ff;stroke-linejoin:miter;" x="263.37125" xlink:href="#mda31a83c8d" y="26.662296"/>
     <use style="fill:#0000ff;stroke:#0000ff;stroke-linejoin:miter;" x="267.01425" xlink:href="#mda31a83c8d" y="26.538773"/>
     <use style="fill:#0000ff;stroke:#0000ff;stroke-linejoin:miter;" x="270.65725" xlink:href="#mda31a83c8d" y="26.428815"/>
     <use style="fill:#0000ff;stroke:#0000ff;stroke-linejoin:miter;" x="274.30025" xlink:href="#mda31a83c8d" y="26.330934"/>
     <use style="fill:#0000ff;stroke:#0000ff;stroke-linejoin:miter;" x="277.94325" xlink:href="#mda31a83c8d" y="26.243802"/>
     <use style="fill:#0000ff;stroke:#0000ff;stroke-linejoin:miter;" x="281.58625" xlink:href="#mda31a83c8d" y="26.16624"/>
     <use style="fill:#0000ff;stroke:#0000ff;stroke-linejoin:miter;" x="285.22925" xlink:href="#mda31a83c8d" y="26.097196"/>
     <use style="fill:#0000ff;stroke:#0000ff;stroke-linejoin:miter;" x="288.87225" xlink:href="#mda31a83c8d" y="26.035734"/>
     <use style="fill:#0000ff;stroke:#0000ff;stroke-linejoin:miter;" x="292.51525" xlink:href="#mda31a83c8d" y="25.981023"/>
     <use style="fill:#0000ff;stroke:#0000ff;stroke-linejoin:miter;" x="296.15825" xlink:href="#mda31a83c8d" y="25.93232"/>
     <use style="fill:#0000ff;stroke:#0000ff;stroke-linejoin:miter;" x="299.80125" xlink:href="#mda31a83c8d" y="25.888966"/>
     <use style="fill:#0000ff;stroke:#0000ff;stroke-linejoin:miter;" x="303.44425" xlink:href="#mda31a83c8d" y="25.850373"/>
     <use style="fill:#0000ff;stroke:#0000ff;stroke-linejoin:miter;" x="307.08725" xlink:href="#mda31a83c8d" y="25.816018"/>
     <use style="fill:#0000ff;stroke:#0000ff;stroke-linejoin:miter;" x="310.73025" xlink:href="#mda31a83c8d" y="25.785437"/>
     <use style="fill:#0000ff;stroke:#0000ff;stroke-linejoin:miter;" x="314.37325" xlink:href="#mda31a83c8d" y="25.758214"/>
     <use style="fill:#0000ff;stroke:#0000ff;stroke-linejoin:miter;" x="318.01625" xlink:href="#mda31a83c8d" y="25.733981"/>
     <use style="fill:#0000ff;stroke:#0000ff;stroke-linejoin:miter;" x="321.65925" xlink:href="#mda31a83c8d" y="25.712409"/>
     <use style="fill:#0000ff;stroke:#0000ff;stroke-linejoin:miter;" x="325.30225" xlink:href="#mda31a83c8d" y="25.693207"/>
     <use style="fill:#0000ff;stroke:#0000ff;stroke-linejoin:miter;" x="328.94525" xlink:href="#mda31a83c8d" y="25.676113"/>
     <use style="fill:#0000ff;stroke:#0000ff;stroke-linejoin:miter;" x="332.58825" xlink:href="#mda31a83c8d" y="25.660897"/>
     <use style="fill:#0000ff;stroke:#0000ff;stroke-linejoin:miter;" x="336.23125" xlink:href="#mda31a83c8d" y="25.647351"/>
     <use style="fill:#0000ff;stroke:#0000ff;stroke-linejoin:miter;" x="339.87425" xlink:href="#mda31a83c8d" y="25.635294"/>
     <use style="fill:#0000ff;stroke:#0000ff;stroke-linejoin:miter;" x="343.51725" xlink:href="#mda31a83c8d" y="25.62456"/>
     <use style="fill:#0000ff;stroke:#0000ff;stroke-linejoin:miter;" x="347.16025" xlink:href="#mda31a83c8d" y="25.615006"/>
     <use style="fill:#0000ff;stroke:#0000ff;stroke-linejoin:miter;" x="350.80325" xlink:href="#mda31a83c8d" y="25.6065"/>
     <use style="fill:#0000ff;stroke:#0000ff;stroke-linejoin:miter;" x="354.44625" xlink:href="#mda31a83c8d" y="25.598929"/>
     <use style="fill:#0000ff;stroke:#0000ff;stroke-linejoin:miter;" x="358.08925" xlink:href="#mda31a83c8d" y="25.592189"/>
     <use style="fill:#0000ff;stroke:#0000ff;stroke-linejoin:miter;" x="361.73225" xlink:href="#mda31a83c8d" y="25.58619"/>
     <use style="fill:#0000ff;stroke:#0000ff;stroke-linejoin:miter;" x="365.37525" xlink:href="#mda31a83c8d" y="25.580849"/>
     <use style="fill:#0000ff;stroke:#0000ff;stroke-linejoin:miter;" x="369.01825" xlink:href="#mda31a83c8d" y="25.576095"/>
     <use style="fill:#0000ff;stroke:#0000ff;stroke-linejoin:miter;" x="372.66125" xlink:href="#mda31a83c8d" y="25.571863"/>
     <use style="fill:#0000ff;stroke:#0000ff;stroke-linejoin:miter;" x="376.30425" xlink:href="#mda31a83c8d" y="25.568096"/>
     <use style="fill:#0000ff;stroke:#0000ff;stroke-linejoin:miter;" x="379.94725" xlink:href="#mda31a83c8d" y="25.564742"/>
     <use style="fill:#0000ff;stroke:#0000ff;stroke-linejoin:miter;" x="383.59025" xlink:href="#mda31a83c8d" y="25.561757"/>
     <use style="fill:#0000ff;stroke:#0000ff;stroke-linejoin:miter;" x="387.23325" xlink:href="#mda31a83c8d" y="25.5591"/>
     <use style="fill:#0000ff;stroke:#0000ff;stroke-linejoin:miter;" x="390.87625" xlink:href="#mda31a83c8d" y="25.556734"/>
     <use style="fill:#0000ff;stroke:#0000ff;stroke-linejoin:miter;" x="394.51925" xlink:href="#mda31a83c8d" y="25.554628"/>
     <use style="fill:#0000ff;stroke:#0000ff;stroke-linejoin:miter;" x="398.16225" xlink:href="#mda31a83c8d" y="25.552754"/>
     <use style="fill:#0000ff;stroke:#0000ff;stroke-linejoin:miter;" x="401.80525" xlink:href="#mda31a83c8d" y="25.551085"/>
     <use style="fill:#0000ff;stroke:#0000ff;stroke-linejoin:miter;" x="405.44825" xlink:href="#mda31a83c8d" y="25.5496"/>
     <use style="fill:#0000ff;stroke:#0000ff;stroke-linejoin:miter;" x="409.09125" xlink:href="#mda31a83c8d" y="25.548278"/>
     <use style="fill:#0000ff;stroke:#0000ff;stroke-linejoin:miter;" x="412.73425" xlink:href="#mda31a83c8d" y="25.547101"/>
     <use style="fill:#0000ff;stroke:#0000ff;stroke-linejoin:miter;" x="416.37725" xlink:href="#mda31a83c8d" y="25.546053"/>
     <use style="fill:#0000ff;stroke:#0000ff;stroke-linejoin:miter;" x="420.02025" xlink:href="#mda31a83c8d" y="25.54512"/>
     <use style="fill:#0000ff;stroke:#0000ff;stroke-linejoin:miter;" x="423.66325" xlink:href="#mda31a83c8d" y="25.54429"/>
     <use style="fill:#0000ff;stroke:#0000ff;stroke-linejoin:miter;" x="427.30625" xlink:href="#mda31a83c8d" y="25.543551"/>
     <use style="fill:#0000ff;stroke:#0000ff;stroke-linejoin:miter;" x="430.94925" xlink:href="#mda31a83c8d" y="25.542893"/>
     <use style="fill:#0000ff;stroke:#0000ff;stroke-linejoin:miter;" x="434.59225" xlink:href="#mda31a83c8d" y="25.542308"/>
     <use style="fill:#0000ff;stroke:#0000ff;stroke-linejoin:miter;" x="438.23525" xlink:href="#mda31a83c8d" y="25.541786"/>
     <use style="fill:#0000ff;stroke:#0000ff;stroke-linejoin:miter;" x="441.87825" xlink:href="#mda31a83c8d" y="25.541322"/>
     <use style="fill:#0000ff;stroke:#0000ff;stroke-linejoin:miter;" x="445.52125" xlink:href="#mda31a83c8d" y="25.540909"/>
    </g>
   </g>
   <g id="patch_7">
    <path d="M 63.00625 337.2 
L 63.00625 10.7 
" style="fill:none;stroke:#000000;stroke-linecap:square;stroke-linejoin:miter;stroke-width:0.8;"/>
   </g>
   <g id="patch_8">
    <path d="M 463.73625 337.2 
L 463.73625 10.7 
" style="fill:none;stroke:#000000;stroke-linecap:square;stroke-linejoin:miter;stroke-width:0.8;"/>
   </g>
   <g id="patch_9">
    <path d="M 63.00625 337.2 
L 463.73625 337.2 
" style="fill:none;stroke:#000000;stroke-linecap:square;stroke-linejoin:miter;stroke-width:0.8;"/>
   </g>
   <g id="patch_10">
    <path d="M 63.00625 10.7 
L 463.73625 10.7 
" style="fill:none;stroke:#000000;stroke-linecap:square;stroke-linejoin:miter;stroke-width:0.8;"/>
   </g>
  </g>
 </g>
 <defs>
  <clipPath id="p62e07f5587">
   <rect height="326.5" width="400.73" x="63.00625" y="10.7"/>
  </clipPath>
 </defs>
</svg>
