<?xml version="1.0" encoding="utf-8" standalone="no"?>
<!DOCTYPE svg PUBLIC "-//W3C//DTD SVG 1.1//EN"
  "http://www.w3.org/Graphics/SVG/1.1/DTD/svg11.dtd">
<!-- Created with matplotlib (http://matplotlib.org/) -->
<svg height="400.2525pt" version="1.1" viewBox="0 0 520.10625 400.2525" width="520.10625pt" xmlns="http://www.w3.org/2000/svg" xmlns:xlink="http://www.w3.org/1999/xlink">
 <defs>
  <style type="text/css">
*{stroke-linecap:butt;stroke-linejoin:round;}
  </style>
 </defs>
 <g id="figure_1">
  <g id="patch_1">
   <path d="M 0 400.2525 
L 520.10625 400.2525 
L 520.10625 0 
L 0 0 
z
" style="fill:#ffffff;"/>
  </g>
  <g id="axes_1">
   <g id="patch_2">
    <path d="M 63.00625 343.34 
L 509.40625 343.34 
L 509.40625 10.7 
L 63.00625 10.7 
z
" style="fill:#ffffff;"/>
   </g>
   <g id="matplotlib.axis_1">
    <g id="xtick_1">
     <g id="line2d_1">
      <path clip-path="url(#p9ae7e1a584)" d="M 83.297159 343.34 
L 83.297159 10.7 
" style="fill:none;stroke:#b0b0b0;stroke-linecap:square;stroke-width:0.8;"/>
     </g>
     <g id="line2d_2">
      <defs>
       <path d="M 0 0 
L 0 3.5 
" id="mab86805f5f" style="stroke:#000000;stroke-width:0.8;"/>
      </defs>
      <g>
       <use style="stroke:#000000;stroke-width:0.8;" x="83.297159" xlink:href="#mab86805f5f" y="343.34"/>
      </g>
     </g>
     <g id="text_1">
      <!-- 0 -->
      <defs>
       <path d="M 31.78125 66.40625 
Q 24.171875 66.40625 20.328125 58.90625 
Q 16.5 51.421875 16.5 36.375 
Q 16.5 21.390625 20.328125 13.890625 
Q 24.171875 6.390625 31.78125 6.390625 
Q 39.453125 6.390625 43.28125 13.890625 
Q 47.125 21.390625 47.125 36.375 
Q 47.125 51.421875 43.28125 58.90625 
Q 39.453125 66.40625 31.78125 66.40625 
z
M 31.78125 74.21875 
Q 44.046875 74.21875 50.515625 64.515625 
Q 56.984375 54.828125 56.984375 36.375 
Q 56.984375 17.96875 50.515625 8.265625 
Q 44.046875 -1.421875 31.78125 -1.421875 
Q 19.53125 -1.421875 13.0625 8.265625 
Q 6.59375 17.96875 6.59375 36.375 
Q 6.59375 54.828125 13.0625 64.515625 
Q 19.53125 74.21875 31.78125 74.21875 
z
" id="DejaVuSans-30"/>
      </defs>
      <g transform="translate(76.934659 365.536875)scale(0.2 -0.2)">
       <use xlink:href="#DejaVuSans-30"/>
      </g>
     </g>
    </g>
    <g id="xtick_2">
     <g id="line2d_3">
      <path clip-path="url(#p9ae7e1a584)" d="M 164.460795 343.34 
L 164.460795 10.7 
" style="fill:none;stroke:#b0b0b0;stroke-linecap:square;stroke-width:0.8;"/>
     </g>
     <g id="line2d_4">
      <g>
       <use style="stroke:#000000;stroke-width:0.8;" x="164.460795" xlink:href="#mab86805f5f" y="343.34"/>
      </g>
     </g>
     <g id="text_2">
      <!-- 100 -->
      <defs>
       <path d="M 12.40625 8.296875 
L 28.515625 8.296875 
L 28.515625 63.921875 
L 10.984375 60.40625 
L 10.984375 69.390625 
L 28.421875 72.90625 
L 38.28125 72.90625 
L 38.28125 8.296875 
L 54.390625 8.296875 
L 54.390625 0 
L 12.40625 0 
z
" id="DejaVuSans-31"/>
      </defs>
      <g transform="translate(145.373295 365.536875)scale(0.2 -0.2)">
       <use xlink:href="#DejaVuSans-31"/>
       <use x="63.623047" xlink:href="#DejaVuSans-30"/>
       <use x="127.246094" xlink:href="#DejaVuSans-30"/>
      </g>
     </g>
    </g>
    <g id="xtick_3">
     <g id="line2d_5">
      <path clip-path="url(#p9ae7e1a584)" d="M 245.624432 343.34 
L 245.624432 10.7 
" style="fill:none;stroke:#b0b0b0;stroke-linecap:square;stroke-width:0.8;"/>
     </g>
     <g id="line2d_6">
      <g>
       <use style="stroke:#000000;stroke-width:0.8;" x="245.624432" xlink:href="#mab86805f5f" y="343.34"/>
      </g>
     </g>
     <g id="text_3">
      <!-- 200 -->
      <defs>
       <path d="M 19.1875 8.296875 
L 53.609375 8.296875 
L 53.609375 0 
L 7.328125 0 
L 7.328125 8.296875 
Q 12.9375 14.109375 22.625 23.890625 
Q 32.328125 33.6875 34.8125 36.53125 
Q 39.546875 41.84375 41.421875 45.53125 
Q 43.3125 49.21875 43.3125 52.78125 
Q 43.3125 58.59375 39.234375 62.25 
Q 35.15625 65.921875 28.609375 65.921875 
Q 23.96875 65.921875 18.8125 64.3125 
Q 13.671875 62.703125 7.8125 59.421875 
L 7.8125 69.390625 
Q 13.765625 71.78125 18.9375 73 
Q 24.125 74.21875 28.421875 74.21875 
Q 39.75 74.21875 46.484375 68.546875 
Q 53.21875 62.890625 53.21875 53.421875 
Q 53.21875 48.921875 51.53125 44.890625 
Q 49.859375 40.875 45.40625 35.40625 
Q 44.1875 33.984375 37.640625 27.21875 
Q 31.109375 20.453125 19.1875 8.296875 
z
" id="DejaVuSans-32"/>
      </defs>
      <g transform="translate(226.536932 365.536875)scale(0.2 -0.2)">
       <use xlink:href="#DejaVuSans-32"/>
       <use x="63.623047" xlink:href="#DejaVuSans-30"/>
       <use x="127.246094" xlink:href="#DejaVuSans-30"/>
      </g>
     </g>
    </g>
    <g id="xtick_4">
     <g id="line2d_7">
      <path clip-path="url(#p9ae7e1a584)" d="M 326.788068 343.34 
L 326.788068 10.7 
" style="fill:none;stroke:#b0b0b0;stroke-linecap:square;stroke-width:0.8;"/>
     </g>
     <g id="line2d_8">
      <g>
       <use style="stroke:#000000;stroke-width:0.8;" x="326.788068" xlink:href="#mab86805f5f" y="343.34"/>
      </g>
     </g>
     <g id="text_4">
      <!-- 300 -->
      <defs>
       <path d="M 40.578125 39.3125 
Q 47.65625 37.796875 51.625 33 
Q 55.609375 28.21875 55.609375 21.1875 
Q 55.609375 10.40625 48.1875 4.484375 
Q 40.765625 -1.421875 27.09375 -1.421875 
Q 22.515625 -1.421875 17.65625 -0.515625 
Q 12.796875 0.390625 7.625 2.203125 
L 7.625 11.71875 
Q 11.71875 9.328125 16.59375 8.109375 
Q 21.484375 6.890625 26.8125 6.890625 
Q 36.078125 6.890625 40.9375 10.546875 
Q 45.796875 14.203125 45.796875 21.1875 
Q 45.796875 27.640625 41.28125 31.265625 
Q 36.765625 34.90625 28.71875 34.90625 
L 20.21875 34.90625 
L 20.21875 43.015625 
L 29.109375 43.015625 
Q 36.375 43.015625 40.234375 45.921875 
Q 44.09375 48.828125 44.09375 54.296875 
Q 44.09375 59.90625 40.109375 62.90625 
Q 36.140625 65.921875 28.71875 65.921875 
Q 24.65625 65.921875 20.015625 65.03125 
Q 15.375 64.15625 9.8125 62.3125 
L 9.8125 71.09375 
Q 15.4375 72.65625 20.34375 73.4375 
Q 25.25 74.21875 29.59375 74.21875 
Q 40.828125 74.21875 47.359375 69.109375 
Q 53.90625 64.015625 53.90625 55.328125 
Q 53.90625 49.265625 50.4375 45.09375 
Q 46.96875 40.921875 40.578125 39.3125 
z
" id="DejaVuSans-33"/>
      </defs>
      <g transform="translate(307.700568 365.536875)scale(0.2 -0.2)">
       <use xlink:href="#DejaVuSans-33"/>
       <use x="63.623047" xlink:href="#DejaVuSans-30"/>
       <use x="127.246094" xlink:href="#DejaVuSans-30"/>
      </g>
     </g>
    </g>
    <g id="xtick_5">
     <g id="line2d_9">
      <path clip-path="url(#p9ae7e1a584)" d="M 407.951705 343.34 
L 407.951705 10.7 
" style="fill:none;stroke:#b0b0b0;stroke-linecap:square;stroke-width:0.8;"/>
     </g>
     <g id="line2d_10">
      <g>
       <use style="stroke:#000000;stroke-width:0.8;" x="407.951705" xlink:href="#mab86805f5f" y="343.34"/>
      </g>
     </g>
     <g id="text_5">
      <!-- 400 -->
      <defs>
       <path d="M 37.796875 64.3125 
L 12.890625 25.390625 
L 37.796875 25.390625 
z
M 35.203125 72.90625 
L 47.609375 72.90625 
L 47.609375 25.390625 
L 58.015625 25.390625 
L 58.015625 17.1875 
L 47.609375 17.1875 
L 47.609375 0 
L 37.796875 0 
L 37.796875 17.1875 
L 4.890625 17.1875 
L 4.890625 26.703125 
z
" id="DejaVuSans-34"/>
      </defs>
      <g transform="translate(388.864205 365.536875)scale(0.2 -0.2)">
       <use xlink:href="#DejaVuSans-34"/>
       <use x="63.623047" xlink:href="#DejaVuSans-30"/>
       <use x="127.246094" xlink:href="#DejaVuSans-30"/>
      </g>
     </g>
    </g>
    <g id="xtick_6">
     <g id="line2d_11">
      <path clip-path="url(#p9ae7e1a584)" d="M 489.115341 343.34 
L 489.115341 10.7 
" style="fill:none;stroke:#b0b0b0;stroke-linecap:square;stroke-width:0.8;"/>
     </g>
     <g id="line2d_12">
      <g>
       <use style="stroke:#000000;stroke-width:0.8;" x="489.115341" xlink:href="#mab86805f5f" y="343.34"/>
      </g>
     </g>
     <g id="text_6">
      <!-- 500 -->
      <defs>
       <path d="M 10.796875 72.90625 
L 49.515625 72.90625 
L 49.515625 64.59375 
L 19.828125 64.59375 
L 19.828125 46.734375 
Q 21.96875 47.46875 24.109375 47.828125 
Q 26.265625 48.1875 28.421875 48.1875 
Q 40.625 48.1875 47.75 41.5 
Q 54.890625 34.8125 54.890625 23.390625 
Q 54.890625 11.625 47.5625 5.09375 
Q 40.234375 -1.421875 26.90625 -1.421875 
Q 22.3125 -1.421875 17.546875 -0.640625 
Q 12.796875 0.140625 7.71875 1.703125 
L 7.71875 11.625 
Q 12.109375 9.234375 16.796875 8.0625 
Q 21.484375 6.890625 26.703125 6.890625 
Q 35.15625 6.890625 40.078125 11.328125 
Q 45.015625 15.765625 45.015625 23.390625 
Q 45.015625 31 40.078125 35.4375 
Q 35.15625 39.890625 26.703125 39.890625 
Q 22.75 39.890625 18.8125 39.015625 
Q 14.890625 38.140625 10.796875 36.28125 
z
" id="DejaVuSans-35"/>
      </defs>
      <g transform="translate(470.027841 365.536875)scale(0.2 -0.2)">
       <use xlink:href="#DejaVuSans-35"/>
       <use x="63.623047" xlink:href="#DejaVuSans-30"/>
       <use x="127.246094" xlink:href="#DejaVuSans-30"/>
      </g>
     </g>
    </g>
    <g id="text_7">
     <!-- $t$ [s] -->
     <defs>
      <path d="M 42.28125 54.6875 
L 40.921875 47.703125 
L 23 47.703125 
L 17.1875 18.015625 
Q 16.890625 16.359375 16.75 15.234375 
Q 16.609375 14.109375 16.609375 13.484375 
Q 16.609375 10.359375 18.484375 8.9375 
Q 20.359375 7.515625 24.515625 7.515625 
L 33.59375 7.515625 
L 32.078125 0 
L 23.484375 0 
Q 15.484375 0 11.546875 3.125 
Q 7.625 6.25 7.625 12.59375 
Q 7.625 13.71875 7.765625 15.0625 
Q 7.90625 16.40625 8.203125 18.015625 
L 14.015625 47.703125 
L 6.390625 47.703125 
L 7.8125 54.6875 
L 15.28125 54.6875 
L 18.3125 70.21875 
L 27.296875 70.21875 
L 24.3125 54.6875 
z
" id="DejaVuSans-Oblique-74"/>
      <path id="DejaVuSans-20"/>
      <path d="M 8.59375 75.984375 
L 29.296875 75.984375 
L 29.296875 69 
L 17.578125 69 
L 17.578125 -6.203125 
L 29.296875 -6.203125 
L 29.296875 -13.1875 
L 8.59375 -13.1875 
z
" id="DejaVuSans-5b"/>
      <path d="M 44.28125 53.078125 
L 44.28125 44.578125 
Q 40.484375 46.53125 36.375 47.5 
Q 32.28125 48.484375 27.875 48.484375 
Q 21.1875 48.484375 17.84375 46.4375 
Q 14.5 44.390625 14.5 40.28125 
Q 14.5 37.15625 16.890625 35.375 
Q 19.28125 33.59375 26.515625 31.984375 
L 29.59375 31.296875 
Q 39.15625 29.25 43.1875 25.515625 
Q 47.21875 21.78125 47.21875 15.09375 
Q 47.21875 7.46875 41.1875 3.015625 
Q 35.15625 -1.421875 24.609375 -1.421875 
Q 20.21875 -1.421875 15.453125 -0.5625 
Q 10.6875 0.296875 5.421875 2 
L 5.421875 11.28125 
Q 10.40625 8.6875 15.234375 7.390625 
Q 20.0625 6.109375 24.8125 6.109375 
Q 31.15625 6.109375 34.5625 8.28125 
Q 37.984375 10.453125 37.984375 14.40625 
Q 37.984375 18.0625 35.515625 20.015625 
Q 33.0625 21.96875 24.703125 23.78125 
L 21.578125 24.515625 
Q 13.234375 26.265625 9.515625 29.90625 
Q 5.8125 33.546875 5.8125 39.890625 
Q 5.8125 47.609375 11.28125 51.796875 
Q 16.75 56 26.8125 56 
Q 31.78125 56 36.171875 55.265625 
Q 40.578125 54.546875 44.28125 53.078125 
z
" id="DejaVuSans-73"/>
      <path d="M 30.421875 75.984375 
L 30.421875 -13.1875 
L 9.71875 -13.1875 
L 9.71875 -6.203125 
L 21.390625 -6.203125 
L 21.390625 69 
L 9.71875 69 
L 9.71875 75.984375 
z
" id="DejaVuSans-5d"/>
     </defs>
     <g transform="translate(266.00625 388.893125)scale(0.2 -0.2)">
      <use transform="translate(0 0.015625)" xlink:href="#DejaVuSans-Oblique-74"/>
      <use transform="translate(39.208984 0.015625)" xlink:href="#DejaVuSans-20"/>
      <use transform="translate(70.996094 0.015625)" xlink:href="#DejaVuSans-5b"/>
      <use transform="translate(110.009766 0.015625)" xlink:href="#DejaVuSans-73"/>
      <use transform="translate(162.109375 0.015625)" xlink:href="#DejaVuSans-5d"/>
     </g>
    </g>
   </g>
   <g id="matplotlib.axis_2">
    <g id="ytick_1">
     <g id="line2d_13">
      <path clip-path="url(#p9ae7e1a584)" d="M 63.00625 328.22 
L 509.40625 328.22 
" style="fill:none;stroke:#b0b0b0;stroke-linecap:square;stroke-width:0.8;"/>
     </g>
     <g id="line2d_14">
      <defs>
       <path d="M 0 0 
L -3.5 0 
" id="m8496d1f461" style="stroke:#000000;stroke-width:0.8;"/>
      </defs>
      <g>
       <use style="stroke:#000000;stroke-width:0.8;" x="63.00625" xlink:href="#m8496d1f461" y="328.22"/>
      </g>
     </g>
     <g id="text_8">
      <!-- 0 -->
      <g style="fill:#00bfbf;" transform="translate(43.28125 335.818437)scale(0.2 -0.2)">
       <use xlink:href="#DejaVuSans-30"/>
      </g>
     </g>
    </g>
    <g id="ytick_2">
     <g id="line2d_15">
      <path clip-path="url(#p9ae7e1a584)" d="M 63.00625 267.739658 
L 509.40625 267.739658 
" style="fill:none;stroke:#b0b0b0;stroke-linecap:square;stroke-width:0.8;"/>
     </g>
     <g id="line2d_16">
      <g>
       <use style="stroke:#000000;stroke-width:0.8;" x="63.00625" xlink:href="#m8496d1f461" y="267.739658"/>
      </g>
     </g>
     <g id="text_9">
      <!-- 2 -->
      <g style="fill:#00bfbf;" transform="translate(43.28125 275.338095)scale(0.2 -0.2)">
       <use xlink:href="#DejaVuSans-32"/>
      </g>
     </g>
    </g>
    <g id="ytick_3">
     <g id="line2d_17">
      <path clip-path="url(#p9ae7e1a584)" d="M 63.00625 207.259315 
L 509.40625 207.259315 
" style="fill:none;stroke:#b0b0b0;stroke-linecap:square;stroke-width:0.8;"/>
     </g>
     <g id="line2d_18">
      <g>
       <use style="stroke:#000000;stroke-width:0.8;" x="63.00625" xlink:href="#m8496d1f461" y="207.259315"/>
      </g>
     </g>
     <g id="text_10">
      <!-- 4 -->
      <g style="fill:#00bfbf;" transform="translate(43.28125 214.857753)scale(0.2 -0.2)">
       <use xlink:href="#DejaVuSans-34"/>
      </g>
     </g>
    </g>
    <g id="ytick_4">
     <g id="line2d_19">
      <path clip-path="url(#p9ae7e1a584)" d="M 63.00625 146.778973 
L 509.40625 146.778973 
" style="fill:none;stroke:#b0b0b0;stroke-linecap:square;stroke-width:0.8;"/>
     </g>
     <g id="line2d_20">
      <g>
       <use style="stroke:#000000;stroke-width:0.8;" x="63.00625" xlink:href="#m8496d1f461" y="146.778973"/>
      </g>
     </g>
     <g id="text_11">
      <!-- 6 -->
      <defs>
       <path d="M 33.015625 40.375 
Q 26.375 40.375 22.484375 35.828125 
Q 18.609375 31.296875 18.609375 23.390625 
Q 18.609375 15.53125 22.484375 10.953125 
Q 26.375 6.390625 33.015625 6.390625 
Q 39.65625 6.390625 43.53125 10.953125 
Q 47.40625 15.53125 47.40625 23.390625 
Q 47.40625 31.296875 43.53125 35.828125 
Q 39.65625 40.375 33.015625 40.375 
z
M 52.59375 71.296875 
L 52.59375 62.3125 
Q 48.875 64.0625 45.09375 64.984375 
Q 41.3125 65.921875 37.59375 65.921875 
Q 27.828125 65.921875 22.671875 59.328125 
Q 17.53125 52.734375 16.796875 39.40625 
Q 19.671875 43.65625 24.015625 45.921875 
Q 28.375 48.1875 33.59375 48.1875 
Q 44.578125 48.1875 50.953125 41.515625 
Q 57.328125 34.859375 57.328125 23.390625 
Q 57.328125 12.15625 50.6875 5.359375 
Q 44.046875 -1.421875 33.015625 -1.421875 
Q 20.359375 -1.421875 13.671875 8.265625 
Q 6.984375 17.96875 6.984375 36.375 
Q 6.984375 53.65625 15.1875 63.9375 
Q 23.390625 74.21875 37.203125 74.21875 
Q 40.921875 74.21875 44.703125 73.484375 
Q 48.484375 72.75 52.59375 71.296875 
z
" id="DejaVuSans-36"/>
      </defs>
      <g style="fill:#00bfbf;" transform="translate(43.28125 154.377411)scale(0.2 -0.2)">
       <use xlink:href="#DejaVuSans-36"/>
      </g>
     </g>
    </g>
    <g id="ytick_5">
     <g id="line2d_21">
      <path clip-path="url(#p9ae7e1a584)" d="M 63.00625 86.298631 
L 509.40625 86.298631 
" style="fill:none;stroke:#b0b0b0;stroke-linecap:square;stroke-width:0.8;"/>
     </g>
     <g id="line2d_22">
      <g>
       <use style="stroke:#000000;stroke-width:0.8;" x="63.00625" xlink:href="#m8496d1f461" y="86.298631"/>
      </g>
     </g>
     <g id="text_12">
      <!-- 8 -->
      <defs>
       <path d="M 31.78125 34.625 
Q 24.75 34.625 20.71875 30.859375 
Q 16.703125 27.09375 16.703125 20.515625 
Q 16.703125 13.921875 20.71875 10.15625 
Q 24.75 6.390625 31.78125 6.390625 
Q 38.8125 6.390625 42.859375 10.171875 
Q 46.921875 13.96875 46.921875 20.515625 
Q 46.921875 27.09375 42.890625 30.859375 
Q 38.875 34.625 31.78125 34.625 
z
M 21.921875 38.8125 
Q 15.578125 40.375 12.03125 44.71875 
Q 8.5 49.078125 8.5 55.328125 
Q 8.5 64.0625 14.71875 69.140625 
Q 20.953125 74.21875 31.78125 74.21875 
Q 42.671875 74.21875 48.875 69.140625 
Q 55.078125 64.0625 55.078125 55.328125 
Q 55.078125 49.078125 51.53125 44.71875 
Q 48 40.375 41.703125 38.8125 
Q 48.828125 37.15625 52.796875 32.3125 
Q 56.78125 27.484375 56.78125 20.515625 
Q 56.78125 9.90625 50.3125 4.234375 
Q 43.84375 -1.421875 31.78125 -1.421875 
Q 19.734375 -1.421875 13.25 4.234375 
Q 6.78125 9.90625 6.78125 20.515625 
Q 6.78125 27.484375 10.78125 32.3125 
Q 14.796875 37.15625 21.921875 38.8125 
z
M 18.3125 54.390625 
Q 18.3125 48.734375 21.84375 45.5625 
Q 25.390625 42.390625 31.78125 42.390625 
Q 38.140625 42.390625 41.71875 45.5625 
Q 45.3125 48.734375 45.3125 54.390625 
Q 45.3125 60.0625 41.71875 63.234375 
Q 38.140625 66.40625 31.78125 66.40625 
Q 25.390625 66.40625 21.84375 63.234375 
Q 18.3125 60.0625 18.3125 54.390625 
z
" id="DejaVuSans-38"/>
      </defs>
      <g style="fill:#00bfbf;" transform="translate(43.28125 93.897068)scale(0.2 -0.2)">
       <use xlink:href="#DejaVuSans-38"/>
      </g>
     </g>
    </g>
    <g id="ytick_6">
     <g id="line2d_23">
      <path clip-path="url(#p9ae7e1a584)" d="M 63.00625 25.818288 
L 509.40625 25.818288 
" style="fill:none;stroke:#b0b0b0;stroke-linecap:square;stroke-width:0.8;"/>
     </g>
     <g id="line2d_24">
      <g>
       <use style="stroke:#000000;stroke-width:0.8;" x="63.00625" xlink:href="#m8496d1f461" y="25.818288"/>
      </g>
     </g>
     <g id="text_13">
      <!-- 10 -->
      <g style="fill:#00bfbf;" transform="translate(30.55625 33.416726)scale(0.2 -0.2)">
       <use xlink:href="#DejaVuSans-31"/>
       <use x="63.623047" xlink:href="#DejaVuSans-30"/>
      </g>
     </g>
    </g>
    <g id="text_14">
     <!-- $u_z$ [mm] -->
     <defs>
      <path d="M 6.6875 21.6875 
L 13.09375 54.6875 
L 22.125 54.6875 
L 15.71875 22.015625 
Q 15.234375 19.625 15.015625 17.921875 
Q 14.796875 16.21875 14.796875 15.09375 
Q 14.796875 10.9375 17.328125 8.65625 
Q 19.875 6.390625 24.515625 6.390625 
Q 31.734375 6.390625 37 11.265625 
Q 42.28125 16.15625 43.890625 24.421875 
L 49.90625 54.6875 
L 58.890625 54.6875 
L 48.296875 0 
L 39.3125 0 
L 41.109375 8.59375 
Q 37.3125 3.8125 32.0625 1.1875 
Q 26.8125 -1.421875 20.90625 -1.421875 
Q 13.71875 -1.421875 9.71875 2.515625 
Q 5.71875 6.453125 5.71875 13.484375 
Q 5.71875 14.9375 5.953125 17.140625 
Q 6.203125 19.34375 6.6875 21.6875 
z
" id="DejaVuSans-Oblique-75"/>
      <path d="M 11.625 54.6875 
L 54.296875 54.6875 
L 52.6875 46.484375 
L 11.53125 7.171875 
L 45.515625 7.171875 
L 44.09375 0 
L -0.296875 0 
L 1.3125 8.203125 
L 42.484375 47.515625 
L 10.203125 47.515625 
z
" id="DejaVuSans-Oblique-7a"/>
      <path d="M 52 44.1875 
Q 55.375 50.25 60.0625 53.125 
Q 64.75 56 71.09375 56 
Q 79.640625 56 84.28125 50.015625 
Q 88.921875 44.046875 88.921875 33.015625 
L 88.921875 0 
L 79.890625 0 
L 79.890625 32.71875 
Q 79.890625 40.578125 77.09375 44.375 
Q 74.3125 48.1875 68.609375 48.1875 
Q 61.625 48.1875 57.5625 43.546875 
Q 53.515625 38.921875 53.515625 30.90625 
L 53.515625 0 
L 44.484375 0 
L 44.484375 32.71875 
Q 44.484375 40.625 41.703125 44.40625 
Q 38.921875 48.1875 33.109375 48.1875 
Q 26.21875 48.1875 22.15625 43.53125 
Q 18.109375 38.875 18.109375 30.90625 
L 18.109375 0 
L 9.078125 0 
L 9.078125 54.6875 
L 18.109375 54.6875 
L 18.109375 46.1875 
Q 21.1875 51.21875 25.484375 53.609375 
Q 29.78125 56 35.6875 56 
Q 41.65625 56 45.828125 52.96875 
Q 50 49.953125 52 44.1875 
z
" id="DejaVuSans-6d"/>
     </defs>
     <g style="fill:#00bfbf;" transform="translate(22.396875 217.82)rotate(-90)scale(0.2 -0.2)">
      <use transform="translate(0 0.015625)" xlink:href="#DejaVuSans-Oblique-75"/>
      <use transform="translate(63.378906 -16.390625)scale(0.7)" xlink:href="#DejaVuSans-Oblique-7a"/>
      <use transform="translate(102.856445 0.015625)" xlink:href="#DejaVuSans-20"/>
      <use transform="translate(134.643555 0.015625)" xlink:href="#DejaVuSans-5b"/>
      <use transform="translate(173.657227 0.015625)" xlink:href="#DejaVuSans-6d"/>
      <use transform="translate(271.069336 0.015625)" xlink:href="#DejaVuSans-6d"/>
      <use transform="translate(368.481445 0.015625)" xlink:href="#DejaVuSans-5d"/>
     </g>
    </g>
   </g>
   <g id="line2d_25">
    <path clip-path="url(#p9ae7e1a584)" d="M 83.297159 328.22 
L 87.355341 186.642179 
L 91.413523 167.928254 
L 95.471705 154.701394 
L 99.529886 142.165337 
L 103.588068 130.263667 
L 107.64625 119.234301 
L 111.704432 109.190432 
L 115.762614 100.137812 
L 119.820795 92.025228 
L 123.878977 84.77765 
L 127.937159 78.313665 
L 131.995341 72.553705 
L 136.053523 67.423539 
L 140.111705 62.855468 
L 144.169886 58.788456 
L 148.228068 55.167803 
L 152.28625 51.944644 
L 156.344432 49.075401 
L 160.402614 46.521238 
L 164.460795 44.247569 
L 168.518977 42.223597 
L 172.577159 40.421903 
L 176.635341 38.818078 
L 180.693523 37.39039 
L 184.751705 36.119497 
L 188.809886 34.988178 
L 192.868068 33.981106 
L 196.92625 33.084635 
L 200.984432 32.286618 
L 205.042614 31.576243 
L 209.100795 30.943884 
L 213.158977 30.380973 
L 217.217159 29.879884 
L 221.275341 29.433826 
L 225.333523 29.036757 
L 229.391705 28.683295 
L 233.449886 28.368652 
L 237.508068 28.088564 
L 241.56625 27.839237 
L 245.624432 27.617292 
L 249.682614 27.419722 
L 253.740795 27.24385 
L 257.798977 27.087293 
L 261.857159 26.94793 
L 265.915341 26.823872 
L 269.973523 26.713438 
L 274.031705 26.615133 
L 278.089886 26.527625 
L 282.148068 26.449727 
L 286.20625 26.380384 
L 290.264432 26.318656 
L 294.322614 26.263708 
L 298.380795 26.214794 
L 302.438977 26.171252 
L 306.497159 26.132493 
L 310.555341 26.09799 
L 314.613523 26.067276 
L 318.671705 26.039935 
L 322.729886 26.015597 
L 326.788068 25.993932 
L 330.84625 25.974646 
L 334.904432 25.957479 
L 338.962614 25.942196 
L 343.020795 25.928592 
L 347.078977 25.916483 
L 351.137159 25.905703 
L 355.195341 25.896107 
L 359.253523 25.887565 
L 363.311705 25.879961 
L 367.369886 25.873192 
L 371.428068 25.867166 
L 375.48625 25.861802 
L 379.544432 25.857028 
L 383.602614 25.852777 
L 387.660795 25.848994 
L 391.718977 25.845626 
L 395.777159 25.842628 
L 399.835341 25.839959 
L 403.893523 25.837583 
L 407.951705 25.835468 
L 412.009886 25.833586 
L 416.068068 25.83191 
L 420.12625 25.830418 
L 424.184432 25.82909 
L 428.242614 25.827908 
L 432.300795 25.826856 
L 436.358977 25.825919 
L 440.417159 25.825085 
L 444.475341 25.824343 
L 448.533523 25.823682 
L 452.591705 25.823094 
L 456.649886 25.822571 
L 460.708068 25.822105 
L 464.76625 25.82169 
L 468.824432 25.82132 
L 472.882614 25.820992 
L 476.940795 25.820699 
L 480.998977 25.820438 
L 485.057159 25.820206 
L 489.115341 25.82 
" style="fill:none;stroke:#00bfbf;stroke-dasharray:5.55,2.4;stroke-dashoffset:0;stroke-width:1.5;"/>
    <defs>
     <path d="M -0 7.071068 
L 4.242641 0 
L 0 -7.071068 
L -4.242641 0 
z
" id="m28fcce7faa" style="stroke:#00bfbf;stroke-linejoin:miter;"/>
    </defs>
    <g clip-path="url(#p9ae7e1a584)">
     <use style="fill:#00bfbf;stroke:#00bfbf;stroke-linejoin:miter;" x="83.297159" xlink:href="#m28fcce7faa" y="328.22"/>
     <use style="fill:#00bfbf;stroke:#00bfbf;stroke-linejoin:miter;" x="87.355341" xlink:href="#m28fcce7faa" y="186.642179"/>
     <use style="fill:#00bfbf;stroke:#00bfbf;stroke-linejoin:miter;" x="91.413523" xlink:href="#m28fcce7faa" y="167.928254"/>
     <use style="fill:#00bfbf;stroke:#00bfbf;stroke-linejoin:miter;" x="95.471705" xlink:href="#m28fcce7faa" y="154.701394"/>
     <use style="fill:#00bfbf;stroke:#00bfbf;stroke-linejoin:miter;" x="99.529886" xlink:href="#m28fcce7faa" y="142.165337"/>
     <use style="fill:#00bfbf;stroke:#00bfbf;stroke-linejoin:miter;" x="103.588068" xlink:href="#m28fcce7faa" y="130.263667"/>
     <use style="fill:#00bfbf;stroke:#00bfbf;stroke-linejoin:miter;" x="107.64625" xlink:href="#m28fcce7faa" y="119.234301"/>
     <use style="fill:#00bfbf;stroke:#00bfbf;stroke-linejoin:miter;" x="111.704432" xlink:href="#m28fcce7faa" y="109.190432"/>
     <use style="fill:#00bfbf;stroke:#00bfbf;stroke-linejoin:miter;" x="115.762614" xlink:href="#m28fcce7faa" y="100.137812"/>
     <use style="fill:#00bfbf;stroke:#00bfbf;stroke-linejoin:miter;" x="119.820795" xlink:href="#m28fcce7faa" y="92.025228"/>
     <use style="fill:#00bfbf;stroke:#00bfbf;stroke-linejoin:miter;" x="123.878977" xlink:href="#m28fcce7faa" y="84.77765"/>
     <use style="fill:#00bfbf;stroke:#00bfbf;stroke-linejoin:miter;" x="127.937159" xlink:href="#m28fcce7faa" y="78.313665"/>
     <use style="fill:#00bfbf;stroke:#00bfbf;stroke-linejoin:miter;" x="131.995341" xlink:href="#m28fcce7faa" y="72.553705"/>
     <use style="fill:#00bfbf;stroke:#00bfbf;stroke-linejoin:miter;" x="136.053523" xlink:href="#m28fcce7faa" y="67.423539"/>
     <use style="fill:#00bfbf;stroke:#00bfbf;stroke-linejoin:miter;" x="140.111705" xlink:href="#m28fcce7faa" y="62.855468"/>
     <use style="fill:#00bfbf;stroke:#00bfbf;stroke-linejoin:miter;" x="144.169886" xlink:href="#m28fcce7faa" y="58.788456"/>
     <use style="fill:#00bfbf;stroke:#00bfbf;stroke-linejoin:miter;" x="148.228068" xlink:href="#m28fcce7faa" y="55.167803"/>
     <use style="fill:#00bfbf;stroke:#00bfbf;stroke-linejoin:miter;" x="152.28625" xlink:href="#m28fcce7faa" y="51.944644"/>
     <use style="fill:#00bfbf;stroke:#00bfbf;stroke-linejoin:miter;" x="156.344432" xlink:href="#m28fcce7faa" y="49.075401"/>
     <use style="fill:#00bfbf;stroke:#00bfbf;stroke-linejoin:miter;" x="160.402614" xlink:href="#m28fcce7faa" y="46.521238"/>
     <use style="fill:#00bfbf;stroke:#00bfbf;stroke-linejoin:miter;" x="164.460795" xlink:href="#m28fcce7faa" y="44.247569"/>
     <use style="fill:#00bfbf;stroke:#00bfbf;stroke-linejoin:miter;" x="168.518977" xlink:href="#m28fcce7faa" y="42.223597"/>
     <use style="fill:#00bfbf;stroke:#00bfbf;stroke-linejoin:miter;" x="172.577159" xlink:href="#m28fcce7faa" y="40.421903"/>
     <use style="fill:#00bfbf;stroke:#00bfbf;stroke-linejoin:miter;" x="176.635341" xlink:href="#m28fcce7faa" y="38.818078"/>
     <use style="fill:#00bfbf;stroke:#00bfbf;stroke-linejoin:miter;" x="180.693523" xlink:href="#m28fcce7faa" y="37.39039"/>
     <use style="fill:#00bfbf;stroke:#00bfbf;stroke-linejoin:miter;" x="184.751705" xlink:href="#m28fcce7faa" y="36.119497"/>
     <use style="fill:#00bfbf;stroke:#00bfbf;stroke-linejoin:miter;" x="188.809886" xlink:href="#m28fcce7faa" y="34.988178"/>
     <use style="fill:#00bfbf;stroke:#00bfbf;stroke-linejoin:miter;" x="192.868068" xlink:href="#m28fcce7faa" y="33.981106"/>
     <use style="fill:#00bfbf;stroke:#00bfbf;stroke-linejoin:miter;" x="196.92625" xlink:href="#m28fcce7faa" y="33.084635"/>
     <use style="fill:#00bfbf;stroke:#00bfbf;stroke-linejoin:miter;" x="200.984432" xlink:href="#m28fcce7faa" y="32.286618"/>
     <use style="fill:#00bfbf;stroke:#00bfbf;stroke-linejoin:miter;" x="205.042614" xlink:href="#m28fcce7faa" y="31.576243"/>
     <use style="fill:#00bfbf;stroke:#00bfbf;stroke-linejoin:miter;" x="209.100795" xlink:href="#m28fcce7faa" y="30.943884"/>
     <use style="fill:#00bfbf;stroke:#00bfbf;stroke-linejoin:miter;" x="213.158977" xlink:href="#m28fcce7faa" y="30.380973"/>
     <use style="fill:#00bfbf;stroke:#00bfbf;stroke-linejoin:miter;" x="217.217159" xlink:href="#m28fcce7faa" y="29.879884"/>
     <use style="fill:#00bfbf;stroke:#00bfbf;stroke-linejoin:miter;" x="221.275341" xlink:href="#m28fcce7faa" y="29.433826"/>
     <use style="fill:#00bfbf;stroke:#00bfbf;stroke-linejoin:miter;" x="225.333523" xlink:href="#m28fcce7faa" y="29.036757"/>
     <use style="fill:#00bfbf;stroke:#00bfbf;stroke-linejoin:miter;" x="229.391705" xlink:href="#m28fcce7faa" y="28.683295"/>
     <use style="fill:#00bfbf;stroke:#00bfbf;stroke-linejoin:miter;" x="233.449886" xlink:href="#m28fcce7faa" y="28.368652"/>
     <use style="fill:#00bfbf;stroke:#00bfbf;stroke-linejoin:miter;" x="237.508068" xlink:href="#m28fcce7faa" y="28.088564"/>
     <use style="fill:#00bfbf;stroke:#00bfbf;stroke-linejoin:miter;" x="241.56625" xlink:href="#m28fcce7faa" y="27.839237"/>
     <use style="fill:#00bfbf;stroke:#00bfbf;stroke-linejoin:miter;" x="245.624432" xlink:href="#m28fcce7faa" y="27.617292"/>
     <use style="fill:#00bfbf;stroke:#00bfbf;stroke-linejoin:miter;" x="249.682614" xlink:href="#m28fcce7faa" y="27.419722"/>
     <use style="fill:#00bfbf;stroke:#00bfbf;stroke-linejoin:miter;" x="253.740795" xlink:href="#m28fcce7faa" y="27.24385"/>
     <use style="fill:#00bfbf;stroke:#00bfbf;stroke-linejoin:miter;" x="257.798977" xlink:href="#m28fcce7faa" y="27.087293"/>
     <use style="fill:#00bfbf;stroke:#00bfbf;stroke-linejoin:miter;" x="261.857159" xlink:href="#m28fcce7faa" y="26.94793"/>
     <use style="fill:#00bfbf;stroke:#00bfbf;stroke-linejoin:miter;" x="265.915341" xlink:href="#m28fcce7faa" y="26.823872"/>
     <use style="fill:#00bfbf;stroke:#00bfbf;stroke-linejoin:miter;" x="269.973523" xlink:href="#m28fcce7faa" y="26.713438"/>
     <use style="fill:#00bfbf;stroke:#00bfbf;stroke-linejoin:miter;" x="274.031705" xlink:href="#m28fcce7faa" y="26.615133"/>
     <use style="fill:#00bfbf;stroke:#00bfbf;stroke-linejoin:miter;" x="278.089886" xlink:href="#m28fcce7faa" y="26.527625"/>
     <use style="fill:#00bfbf;stroke:#00bfbf;stroke-linejoin:miter;" x="282.148068" xlink:href="#m28fcce7faa" y="26.449727"/>
     <use style="fill:#00bfbf;stroke:#00bfbf;stroke-linejoin:miter;" x="286.20625" xlink:href="#m28fcce7faa" y="26.380384"/>
     <use style="fill:#00bfbf;stroke:#00bfbf;stroke-linejoin:miter;" x="290.264432" xlink:href="#m28fcce7faa" y="26.318656"/>
     <use style="fill:#00bfbf;stroke:#00bfbf;stroke-linejoin:miter;" x="294.322614" xlink:href="#m28fcce7faa" y="26.263708"/>
     <use style="fill:#00bfbf;stroke:#00bfbf;stroke-linejoin:miter;" x="298.380795" xlink:href="#m28fcce7faa" y="26.214794"/>
     <use style="fill:#00bfbf;stroke:#00bfbf;stroke-linejoin:miter;" x="302.438977" xlink:href="#m28fcce7faa" y="26.171252"/>
     <use style="fill:#00bfbf;stroke:#00bfbf;stroke-linejoin:miter;" x="306.497159" xlink:href="#m28fcce7faa" y="26.132493"/>
     <use style="fill:#00bfbf;stroke:#00bfbf;stroke-linejoin:miter;" x="310.555341" xlink:href="#m28fcce7faa" y="26.09799"/>
     <use style="fill:#00bfbf;stroke:#00bfbf;stroke-linejoin:miter;" x="314.613523" xlink:href="#m28fcce7faa" y="26.067276"/>
     <use style="fill:#00bfbf;stroke:#00bfbf;stroke-linejoin:miter;" x="318.671705" xlink:href="#m28fcce7faa" y="26.039935"/>
     <use style="fill:#00bfbf;stroke:#00bfbf;stroke-linejoin:miter;" x="322.729886" xlink:href="#m28fcce7faa" y="26.015597"/>
     <use style="fill:#00bfbf;stroke:#00bfbf;stroke-linejoin:miter;" x="326.788068" xlink:href="#m28fcce7faa" y="25.993932"/>
     <use style="fill:#00bfbf;stroke:#00bfbf;stroke-linejoin:miter;" x="330.84625" xlink:href="#m28fcce7faa" y="25.974646"/>
     <use style="fill:#00bfbf;stroke:#00bfbf;stroke-linejoin:miter;" x="334.904432" xlink:href="#m28fcce7faa" y="25.957479"/>
     <use style="fill:#00bfbf;stroke:#00bfbf;stroke-linejoin:miter;" x="338.962614" xlink:href="#m28fcce7faa" y="25.942196"/>
     <use style="fill:#00bfbf;stroke:#00bfbf;stroke-linejoin:miter;" x="343.020795" xlink:href="#m28fcce7faa" y="25.928592"/>
     <use style="fill:#00bfbf;stroke:#00bfbf;stroke-linejoin:miter;" x="347.078977" xlink:href="#m28fcce7faa" y="25.916483"/>
     <use style="fill:#00bfbf;stroke:#00bfbf;stroke-linejoin:miter;" x="351.137159" xlink:href="#m28fcce7faa" y="25.905703"/>
     <use style="fill:#00bfbf;stroke:#00bfbf;stroke-linejoin:miter;" x="355.195341" xlink:href="#m28fcce7faa" y="25.896107"/>
     <use style="fill:#00bfbf;stroke:#00bfbf;stroke-linejoin:miter;" x="359.253523" xlink:href="#m28fcce7faa" y="25.887565"/>
     <use style="fill:#00bfbf;stroke:#00bfbf;stroke-linejoin:miter;" x="363.311705" xlink:href="#m28fcce7faa" y="25.879961"/>
     <use style="fill:#00bfbf;stroke:#00bfbf;stroke-linejoin:miter;" x="367.369886" xlink:href="#m28fcce7faa" y="25.873192"/>
     <use style="fill:#00bfbf;stroke:#00bfbf;stroke-linejoin:miter;" x="371.428068" xlink:href="#m28fcce7faa" y="25.867166"/>
     <use style="fill:#00bfbf;stroke:#00bfbf;stroke-linejoin:miter;" x="375.48625" xlink:href="#m28fcce7faa" y="25.861802"/>
     <use style="fill:#00bfbf;stroke:#00bfbf;stroke-linejoin:miter;" x="379.544432" xlink:href="#m28fcce7faa" y="25.857028"/>
     <use style="fill:#00bfbf;stroke:#00bfbf;stroke-linejoin:miter;" x="383.602614" xlink:href="#m28fcce7faa" y="25.852777"/>
     <use style="fill:#00bfbf;stroke:#00bfbf;stroke-linejoin:miter;" x="387.660795" xlink:href="#m28fcce7faa" y="25.848994"/>
     <use style="fill:#00bfbf;stroke:#00bfbf;stroke-linejoin:miter;" x="391.718977" xlink:href="#m28fcce7faa" y="25.845626"/>
     <use style="fill:#00bfbf;stroke:#00bfbf;stroke-linejoin:miter;" x="395.777159" xlink:href="#m28fcce7faa" y="25.842628"/>
     <use style="fill:#00bfbf;stroke:#00bfbf;stroke-linejoin:miter;" x="399.835341" xlink:href="#m28fcce7faa" y="25.839959"/>
     <use style="fill:#00bfbf;stroke:#00bfbf;stroke-linejoin:miter;" x="403.893523" xlink:href="#m28fcce7faa" y="25.837583"/>
     <use style="fill:#00bfbf;stroke:#00bfbf;stroke-linejoin:miter;" x="407.951705" xlink:href="#m28fcce7faa" y="25.835468"/>
     <use style="fill:#00bfbf;stroke:#00bfbf;stroke-linejoin:miter;" x="412.009886" xlink:href="#m28fcce7faa" y="25.833586"/>
     <use style="fill:#00bfbf;stroke:#00bfbf;stroke-linejoin:miter;" x="416.068068" xlink:href="#m28fcce7faa" y="25.83191"/>
     <use style="fill:#00bfbf;stroke:#00bfbf;stroke-linejoin:miter;" x="420.12625" xlink:href="#m28fcce7faa" y="25.830418"/>
     <use style="fill:#00bfbf;stroke:#00bfbf;stroke-linejoin:miter;" x="424.184432" xlink:href="#m28fcce7faa" y="25.82909"/>
     <use style="fill:#00bfbf;stroke:#00bfbf;stroke-linejoin:miter;" x="428.242614" xlink:href="#m28fcce7faa" y="25.827908"/>
     <use style="fill:#00bfbf;stroke:#00bfbf;stroke-linejoin:miter;" x="432.300795" xlink:href="#m28fcce7faa" y="25.826856"/>
     <use style="fill:#00bfbf;stroke:#00bfbf;stroke-linejoin:miter;" x="436.358977" xlink:href="#m28fcce7faa" y="25.825919"/>
     <use style="fill:#00bfbf;stroke:#00bfbf;stroke-linejoin:miter;" x="440.417159" xlink:href="#m28fcce7faa" y="25.825085"/>
     <use style="fill:#00bfbf;stroke:#00bfbf;stroke-linejoin:miter;" x="444.475341" xlink:href="#m28fcce7faa" y="25.824343"/>
     <use style="fill:#00bfbf;stroke:#00bfbf;stroke-linejoin:miter;" x="448.533523" xlink:href="#m28fcce7faa" y="25.823682"/>
     <use style="fill:#00bfbf;stroke:#00bfbf;stroke-linejoin:miter;" x="452.591705" xlink:href="#m28fcce7faa" y="25.823094"/>
     <use style="fill:#00bfbf;stroke:#00bfbf;stroke-linejoin:miter;" x="456.649886" xlink:href="#m28fcce7faa" y="25.822571"/>
     <use style="fill:#00bfbf;stroke:#00bfbf;stroke-linejoin:miter;" x="460.708068" xlink:href="#m28fcce7faa" y="25.822105"/>
     <use style="fill:#00bfbf;stroke:#00bfbf;stroke-linejoin:miter;" x="464.76625" xlink:href="#m28fcce7faa" y="25.82169"/>
     <use style="fill:#00bfbf;stroke:#00bfbf;stroke-linejoin:miter;" x="468.824432" xlink:href="#m28fcce7faa" y="25.82132"/>
     <use style="fill:#00bfbf;stroke:#00bfbf;stroke-linejoin:miter;" x="472.882614" xlink:href="#m28fcce7faa" y="25.820992"/>
     <use style="fill:#00bfbf;stroke:#00bfbf;stroke-linejoin:miter;" x="476.940795" xlink:href="#m28fcce7faa" y="25.820699"/>
     <use style="fill:#00bfbf;stroke:#00bfbf;stroke-linejoin:miter;" x="480.998977" xlink:href="#m28fcce7faa" y="25.820438"/>
     <use style="fill:#00bfbf;stroke:#00bfbf;stroke-linejoin:miter;" x="485.057159" xlink:href="#m28fcce7faa" y="25.820206"/>
     <use style="fill:#00bfbf;stroke:#00bfbf;stroke-linejoin:miter;" x="489.115341" xlink:href="#m28fcce7faa" y="25.82"/>
    </g>
   </g>
   <g id="patch_3">
    <path d="M 63.00625 343.34 
L 63.00625 10.7 
" style="fill:none;stroke:#000000;stroke-linecap:square;stroke-linejoin:miter;stroke-width:0.8;"/>
   </g>
   <g id="patch_4">
    <path d="M 509.40625 343.34 
L 509.40625 10.7 
" style="fill:none;stroke:#000000;stroke-linecap:square;stroke-linejoin:miter;stroke-width:0.8;"/>
   </g>
   <g id="patch_5">
    <path d="M 63.00625 343.34 
L 509.40625 343.34 
" style="fill:none;stroke:#000000;stroke-linecap:square;stroke-linejoin:miter;stroke-width:0.8;"/>
   </g>
   <g id="patch_6">
    <path d="M 63.00625 10.7 
L 509.40625 10.7 
" style="fill:none;stroke:#000000;stroke-linecap:square;stroke-linejoin:miter;stroke-width:0.8;"/>
   </g>
  </g>
 </g>
 <defs>
  <clipPath id="p9ae7e1a584">
   <rect height="332.64" width="446.4" x="63.00625" y="10.7"/>
  </clipPath>
 </defs>
</svg>
