<?xml version="1.0" encoding="utf-8" standalone="no"?>
<!DOCTYPE svg PUBLIC "-//W3C//DTD SVG 1.1//EN"
  "http://www.w3.org/Graphics/SVG/1.1/DTD/svg11.dtd">
<!-- Created with matplotlib (http://matplotlib.org/) -->
<svg height="407.985312pt" version="1.1" viewBox="0 0 551.01875 407.985312" width="551.01875pt" xmlns="http://www.w3.org/2000/svg" xmlns:xlink="http://www.w3.org/1999/xlink">
 <defs>
  <style type="text/css">
*{stroke-linecap:butt;stroke-linejoin:round;}
  </style>
 </defs>
 <g id="figure_1">
  <g id="patch_1">
   <path d="M 0 407.985312 
L 551.01875 407.985312 
L 551.01875 0 
L 0 0 
z
" style="fill:#ffffff;"/>
  </g>
  <g id="axes_1">
   <g id="patch_2">
    <path d="M 95.41875 341.84 
L 541.81875 341.84 
L 541.81875 9.2 
L 95.41875 9.2 
z
" style="fill:#ffffff;"/>
   </g>
   <g id="matplotlib.axis_1">
    <g id="xtick_1">
     <g id="line2d_1">
      <path clip-path="url(#pf837e4fa62)" d="M 115.709659 341.84 
L 115.709659 9.2 
" style="fill:none;stroke:#b0b0b0;stroke-linecap:square;stroke-width:0.8;"/>
     </g>
     <g id="line2d_2">
      <defs>
       <path d="M 0 0 
L 0 -3.5 
" id="mc54cf8f845" style="stroke:#000000;stroke-width:0.8;"/>
      </defs>
      <g>
       <use style="stroke:#000000;stroke-width:0.8;" x="115.709659" xlink:href="#mc54cf8f845" y="341.84"/>
      </g>
     </g>
     <g id="line2d_3">
      <defs>
       <path d="M 0 0 
L 0 3.5 
" id="m0023dc30a5" style="stroke:#000000;stroke-width:0.8;"/>
      </defs>
      <g>
       <use style="stroke:#000000;stroke-width:0.8;" x="115.709659" xlink:href="#m0023dc30a5" y="9.2"/>
      </g>
     </g>
     <g id="text_1">
      <!-- 0.0 -->
      <defs>
       <path d="M 31.78125 3.421875 
Q 39.265625 3.421875 42.96875 11.625 
Q 46.6875 19.828125 46.6875 36.375 
Q 46.6875 52.984375 42.96875 61.1875 
Q 39.265625 69.390625 31.78125 69.390625 
Q 24.3125 69.390625 20.59375 61.1875 
Q 16.890625 52.984375 16.890625 36.375 
Q 16.890625 19.828125 20.59375 11.625 
Q 24.3125 3.421875 31.78125 3.421875 
z
M 31.78125 -1.421875 
Q 19.921875 -1.421875 13.25 8.53125 
Q 6.59375 18.5 6.59375 36.375 
Q 6.59375 54.296875 13.25 64.25 
Q 19.921875 74.21875 31.78125 74.21875 
Q 43.703125 74.21875 50.34375 64.25 
Q 56.984375 54.296875 56.984375 36.375 
Q 56.984375 18.5 50.34375 8.53125 
Q 43.703125 -1.421875 31.78125 -1.421875 
z
" id="DejaVuSerif-30"/>
       <path d="M 9.421875 5.078125 
Q 9.421875 7.8125 11.28125 9.71875 
Q 13.140625 11.625 15.921875 11.625 
Q 18.609375 11.625 20.5 9.71875 
Q 22.40625 7.8125 22.40625 5.078125 
Q 22.40625 2.390625 20.5 0.484375 
Q 18.609375 -1.421875 15.921875 -1.421875 
Q 13.140625 -1.421875 11.28125 0.453125 
Q 9.421875 2.34375 9.421875 5.078125 
z
" id="DejaVuSerif-2e"/>
      </defs>
      <g transform="translate(95.830753 364.336094)scale(0.25 -0.25)">
       <use xlink:href="#DejaVuSerif-30"/>
       <use x="63.623047" xlink:href="#DejaVuSerif-2e"/>
       <use x="95.410156" xlink:href="#DejaVuSerif-30"/>
      </g>
     </g>
    </g>
    <g id="xtick_2">
     <g id="line2d_4">
      <path clip-path="url(#pf837e4fa62)" d="M 250.982386 341.84 
L 250.982386 9.2 
" style="fill:none;stroke:#b0b0b0;stroke-linecap:square;stroke-width:0.8;"/>
     </g>
     <g id="line2d_5">
      <g>
       <use style="stroke:#000000;stroke-width:0.8;" x="250.982386" xlink:href="#mc54cf8f845" y="341.84"/>
      </g>
     </g>
     <g id="line2d_6">
      <g>
       <use style="stroke:#000000;stroke-width:0.8;" x="250.982386" xlink:href="#m0023dc30a5" y="9.2"/>
      </g>
     </g>
     <g id="text_2">
      <!-- 0.4 -->
      <defs>
       <path d="M 34.90625 24.703125 
L 34.90625 63.484375 
L 10.015625 24.703125 
z
M 56.390625 0 
L 23.1875 0 
L 23.1875 5.171875 
L 34.90625 5.171875 
L 34.90625 19.484375 
L 3.078125 19.484375 
L 3.078125 24.8125 
L 35.015625 74.21875 
L 44.671875 74.21875 
L 44.671875 24.703125 
L 58.59375 24.703125 
L 58.59375 19.484375 
L 44.671875 19.484375 
L 44.671875 5.171875 
L 56.390625 5.171875 
z
" id="DejaVuSerif-34"/>
      </defs>
      <g transform="translate(231.10348 364.336094)scale(0.25 -0.25)">
       <use xlink:href="#DejaVuSerif-30"/>
       <use x="63.623047" xlink:href="#DejaVuSerif-2e"/>
       <use x="95.410156" xlink:href="#DejaVuSerif-34"/>
      </g>
     </g>
    </g>
    <g id="xtick_3">
     <g id="line2d_7">
      <path clip-path="url(#pf837e4fa62)" d="M 386.255114 341.84 
L 386.255114 9.2 
" style="fill:none;stroke:#b0b0b0;stroke-linecap:square;stroke-width:0.8;"/>
     </g>
     <g id="line2d_8">
      <g>
       <use style="stroke:#000000;stroke-width:0.8;" x="386.255114" xlink:href="#mc54cf8f845" y="341.84"/>
      </g>
     </g>
     <g id="line2d_9">
      <g>
       <use style="stroke:#000000;stroke-width:0.8;" x="386.255114" xlink:href="#m0023dc30a5" y="9.2"/>
      </g>
     </g>
     <g id="text_3">
      <!-- 0.8 -->
      <defs>
       <path d="M 46.578125 19.921875 
Q 46.578125 27.734375 42.6875 32.046875 
Q 38.8125 36.375 31.78125 36.375 
Q 24.75 36.375 20.875 32.046875 
Q 17 27.734375 17 19.921875 
Q 17 12.0625 20.875 7.734375 
Q 24.75 3.421875 31.78125 3.421875 
Q 38.8125 3.421875 42.6875 7.734375 
Q 46.578125 12.0625 46.578125 19.921875 
z
M 44.578125 55.328125 
Q 44.578125 61.96875 41.203125 65.671875 
Q 37.84375 69.390625 31.78125 69.390625 
Q 25.78125 69.390625 22.390625 65.671875 
Q 19 61.96875 19 55.328125 
Q 19 48.640625 22.390625 44.921875 
Q 25.78125 41.21875 31.78125 41.21875 
Q 37.84375 41.21875 41.203125 44.921875 
Q 44.578125 48.640625 44.578125 55.328125 
z
M 39.3125 38.8125 
Q 47.609375 37.703125 52.25 32.6875 
Q 56.890625 27.6875 56.890625 19.921875 
Q 56.890625 9.671875 50.390625 4.125 
Q 43.890625 -1.421875 31.78125 -1.421875 
Q 19.734375 -1.421875 13.203125 4.125 
Q 6.6875 9.671875 6.6875 19.921875 
Q 6.6875 27.6875 11.328125 32.6875 
Q 15.96875 37.703125 24.3125 38.8125 
Q 16.9375 40.140625 13 44.40625 
Q 9.078125 48.6875 9.078125 55.328125 
Q 9.078125 64.109375 15.125 69.15625 
Q 21.1875 74.21875 31.78125 74.21875 
Q 42.390625 74.21875 48.4375 69.15625 
Q 54.5 64.109375 54.5 55.328125 
Q 54.5 48.6875 50.5625 44.40625 
Q 46.625 40.140625 39.3125 38.8125 
z
" id="DejaVuSerif-38"/>
      </defs>
      <g transform="translate(366.376207 364.336094)scale(0.25 -0.25)">
       <use xlink:href="#DejaVuSerif-30"/>
       <use x="63.623047" xlink:href="#DejaVuSerif-2e"/>
       <use x="95.410156" xlink:href="#DejaVuSerif-38"/>
      </g>
     </g>
    </g>
    <g id="xtick_4">
     <g id="line2d_10">
      <path clip-path="url(#pf837e4fa62)" d="M 521.527841 341.84 
L 521.527841 9.2 
" style="fill:none;stroke:#b0b0b0;stroke-linecap:square;stroke-width:0.8;"/>
     </g>
     <g id="line2d_11">
      <g>
       <use style="stroke:#000000;stroke-width:0.8;" x="521.527841" xlink:href="#mc54cf8f845" y="341.84"/>
      </g>
     </g>
     <g id="line2d_12">
      <g>
       <use style="stroke:#000000;stroke-width:0.8;" x="521.527841" xlink:href="#m0023dc30a5" y="9.2"/>
      </g>
     </g>
     <g id="text_4">
      <!-- 1.2 -->
      <defs>
       <path d="M 14.203125 0 
L 14.203125 5.171875 
L 26.90625 5.171875 
L 26.90625 65.828125 
L 12.203125 56.296875 
L 12.203125 62.703125 
L 29.984375 74.21875 
L 36.71875 74.21875 
L 36.71875 5.171875 
L 49.421875 5.171875 
L 49.421875 0 
z
" id="DejaVuSerif-31"/>
       <path d="M 12.796875 55.515625 
L 7.328125 55.515625 
L 7.328125 68.5 
Q 12.546875 71.296875 17.84375 72.75 
Q 23.140625 74.21875 28.21875 74.21875 
Q 39.59375 74.21875 46.1875 68.703125 
Q 52.78125 63.1875 52.78125 53.71875 
Q 52.78125 43.015625 37.84375 28.125 
Q 36.671875 27 36.078125 26.421875 
L 17.671875 8.015625 
L 48.09375 8.015625 
L 48.09375 17 
L 53.8125 17 
L 53.8125 0 
L 6.78125 0 
L 6.78125 5.328125 
L 28.90625 27.390625 
Q 36.234375 34.71875 39.359375 40.84375 
Q 42.484375 46.96875 42.484375 53.71875 
Q 42.484375 61.078125 38.640625 65.234375 
Q 34.8125 69.390625 28.078125 69.390625 
Q 21.09375 69.390625 17.28125 65.921875 
Q 13.484375 62.453125 12.796875 55.515625 
z
" id="DejaVuSerif-32"/>
      </defs>
      <g transform="translate(501.648935 364.336094)scale(0.25 -0.25)">
       <use xlink:href="#DejaVuSerif-31"/>
       <use x="63.623047" xlink:href="#DejaVuSerif-2e"/>
       <use x="95.410156" xlink:href="#DejaVuSerif-32"/>
      </g>
     </g>
    </g>
    <g id="text_5">
     <!-- $q^{tot}$ -->
     <defs>
      <path d="M 41.703125 8.203125 
Q 38.09375 3.46875 33.171875 1.015625 
Q 28.265625 -1.421875 22.3125 -1.421875 
Q 14.015625 -1.421875 9.296875 4.171875 
Q 4.59375 9.765625 4.59375 19.578125 
Q 4.59375 27.484375 7.5 34.859375 
Q 10.40625 42.234375 15.828125 48.09375 
Q 19.34375 51.90625 23.90625 53.953125 
Q 28.46875 56 33.5 56 
Q 39.546875 56 43.453125 53.609375 
Q 47.359375 51.21875 49.125 46.390625 
L 50.6875 54.59375 
L 59.71875 54.59375 
L 45.125 -20.609375 
L 36.078125 -20.609375 
z
M 13.921875 20.90625 
Q 13.921875 13.671875 16.9375 9.890625 
Q 19.96875 6.109375 25.6875 6.109375 
Q 34.1875 6.109375 40.1875 14.234375 
Q 46.1875 22.359375 46.1875 33.984375 
Q 46.1875 41.015625 43.078125 44.75 
Q 39.984375 48.484375 34.1875 48.484375 
Q 29.9375 48.484375 26.3125 46.5 
Q 22.703125 44.53125 20.015625 40.71875 
Q 17.1875 36.71875 15.546875 31.34375 
Q 13.921875 25.984375 13.921875 20.90625 
z
" id="DejaVuSans-Oblique-71"/>
      <path d="M 42.28125 54.6875 
L 40.921875 47.703125 
L 23 47.703125 
L 17.1875 18.015625 
Q 16.890625 16.359375 16.75 15.234375 
Q 16.609375 14.109375 16.609375 13.484375 
Q 16.609375 10.359375 18.484375 8.9375 
Q 20.359375 7.515625 24.515625 7.515625 
L 33.59375 7.515625 
L 32.078125 0 
L 23.484375 0 
Q 15.484375 0 11.546875 3.125 
Q 7.625 6.25 7.625 12.59375 
Q 7.625 13.71875 7.765625 15.0625 
Q 7.90625 16.40625 8.203125 18.015625 
L 14.015625 47.703125 
L 6.390625 47.703125 
L 7.8125 54.6875 
L 15.28125 54.6875 
L 18.3125 70.21875 
L 27.296875 70.21875 
L 24.3125 54.6875 
z
" id="DejaVuSans-Oblique-74"/>
      <path d="M 25.390625 -1.421875 
Q 15.765625 -1.421875 10.171875 4.515625 
Q 4.59375 10.453125 4.59375 20.703125 
Q 4.59375 26.65625 6.515625 32.828125 
Q 8.453125 39.015625 11.53125 43.21875 
Q 16.359375 49.75 22.3125 52.875 
Q 28.265625 56 35.796875 56 
Q 45.125 56 50.859375 50.1875 
Q 56.59375 44.390625 56.59375 35.015625 
Q 56.59375 28.515625 54.6875 22.0625 
Q 52.78125 15.625 49.703125 11.375 
Q 44.921875 4.828125 38.96875 1.703125 
Q 33.015625 -1.421875 25.390625 -1.421875 
z
M 13.921875 21 
Q 13.921875 13.578125 17.015625 9.890625 
Q 20.125 6.203125 26.421875 6.203125 
Q 35.453125 6.203125 41.375 14.078125 
Q 47.3125 21.96875 47.3125 34.078125 
Q 47.3125 41.15625 44.140625 44.765625 
Q 40.96875 48.390625 34.8125 48.390625 
Q 29.734375 48.390625 25.78125 46.015625 
Q 21.828125 43.65625 18.703125 38.8125 
Q 16.40625 35.203125 15.15625 30.5625 
Q 13.921875 25.921875 13.921875 21 
z
" id="DejaVuSans-Oblique-6f"/>
     </defs>
     <g transform="translate(297.49375 395.535312)scale(0.25 -0.25)">
      <use transform="translate(0 0.565625)" xlink:href="#DejaVuSans-Oblique-71"/>
      <use transform="translate(68.126458 38.846875)scale(0.7)" xlink:href="#DejaVuSans-Oblique-74"/>
      <use transform="translate(95.572747 38.846875)scale(0.7)" xlink:href="#DejaVuSans-Oblique-6f"/>
      <use transform="translate(138.399896 38.846875)scale(0.7)" xlink:href="#DejaVuSans-Oblique-74"/>
     </g>
    </g>
   </g>
   <g id="matplotlib.axis_2">
    <g id="ytick_1">
     <g id="line2d_13">
      <path clip-path="url(#pf837e4fa62)" d="M 95.41875 326.72 
L 541.81875 326.72 
" style="fill:none;stroke:#b0b0b0;stroke-linecap:square;stroke-width:0.8;"/>
     </g>
     <g id="line2d_14">
      <defs>
       <path d="M 0 0 
L 3.5 0 
" id="mb81351a298" style="stroke:#000000;stroke-width:0.8;"/>
      </defs>
      <g>
       <use style="stroke:#000000;stroke-width:0.8;" x="95.41875" xlink:href="#mb81351a298" y="326.72"/>
      </g>
     </g>
     <g id="line2d_15">
      <defs>
       <path d="M 0 0 
L -3.5 0 
" id="m1ace41ef16" style="stroke:#000000;stroke-width:0.8;"/>
      </defs>
      <g>
       <use style="stroke:#000000;stroke-width:0.8;" x="541.81875" xlink:href="#m1ace41ef16" y="326.72"/>
      </g>
     </g>
     <g id="text_6">
      <!-- 0 -->
      <g transform="translate(76.0125 336.218047)scale(0.25 -0.25)">
       <use xlink:href="#DejaVuSerif-30"/>
      </g>
     </g>
    </g>
    <g id="ytick_2">
     <g id="line2d_16">
      <path clip-path="url(#pf837e4fa62)" d="M 95.41875 251.120007 
L 541.81875 251.120007 
" style="fill:none;stroke:#b0b0b0;stroke-linecap:square;stroke-width:0.8;"/>
     </g>
     <g id="line2d_17">
      <g>
       <use style="stroke:#000000;stroke-width:0.8;" x="95.41875" xlink:href="#mb81351a298" y="251.120007"/>
      </g>
     </g>
     <g id="line2d_18">
      <g>
       <use style="stroke:#000000;stroke-width:0.8;" x="541.81875" xlink:href="#m1ace41ef16" y="251.120007"/>
      </g>
     </g>
     <g id="text_7">
      <!-- 25 -->
      <defs>
       <path d="M 50.296875 72.90625 
L 50.296875 64.890625 
L 16.890625 64.890625 
L 16.890625 44 
Q 19.4375 45.75 22.828125 46.625 
Q 26.21875 47.515625 30.421875 47.515625 
Q 42.234375 47.515625 49.0625 40.96875 
Q 55.90625 34.421875 55.90625 23.09375 
Q 55.90625 11.53125 49 5.046875 
Q 42.09375 -1.421875 29.59375 -1.421875 
Q 24.5625 -1.421875 19.28125 -0.1875 
Q 14.015625 1.03125 8.5 3.515625 
L 8.5 17.671875 
L 14.015625 17.671875 
Q 14.453125 10.75 18.421875 7.078125 
Q 22.40625 3.421875 29.59375 3.421875 
Q 37.3125 3.421875 41.453125 8.5 
Q 45.609375 13.578125 45.609375 23.09375 
Q 45.609375 32.5625 41.484375 37.609375 
Q 37.359375 42.671875 29.59375 42.671875 
Q 25.203125 42.671875 21.84375 41.109375 
Q 18.5 39.546875 15.921875 36.28125 
L 11.71875 36.28125 
L 11.71875 72.90625 
z
" id="DejaVuSerif-35"/>
      </defs>
      <g transform="translate(60.10625 260.618054)scale(0.25 -0.25)">
       <use xlink:href="#DejaVuSerif-32"/>
       <use x="63.623047" xlink:href="#DejaVuSerif-35"/>
      </g>
     </g>
    </g>
    <g id="ytick_3">
     <g id="line2d_19">
      <path clip-path="url(#pf837e4fa62)" d="M 95.41875 175.520015 
L 541.81875 175.520015 
" style="fill:none;stroke:#b0b0b0;stroke-linecap:square;stroke-width:0.8;"/>
     </g>
     <g id="line2d_20">
      <g>
       <use style="stroke:#000000;stroke-width:0.8;" x="95.41875" xlink:href="#mb81351a298" y="175.520015"/>
      </g>
     </g>
     <g id="line2d_21">
      <g>
       <use style="stroke:#000000;stroke-width:0.8;" x="541.81875" xlink:href="#m1ace41ef16" y="175.520015"/>
      </g>
     </g>
     <g id="text_8">
      <!-- 50 -->
      <g transform="translate(60.10625 185.018062)scale(0.25 -0.25)">
       <use xlink:href="#DejaVuSerif-35"/>
       <use x="63.623047" xlink:href="#DejaVuSerif-30"/>
      </g>
     </g>
    </g>
    <g id="ytick_4">
     <g id="line2d_22">
      <path clip-path="url(#pf837e4fa62)" d="M 95.41875 99.920022 
L 541.81875 99.920022 
" style="fill:none;stroke:#b0b0b0;stroke-linecap:square;stroke-width:0.8;"/>
     </g>
     <g id="line2d_23">
      <g>
       <use style="stroke:#000000;stroke-width:0.8;" x="95.41875" xlink:href="#mb81351a298" y="99.920022"/>
      </g>
     </g>
     <g id="line2d_24">
      <g>
       <use style="stroke:#000000;stroke-width:0.8;" x="541.81875" xlink:href="#m1ace41ef16" y="99.920022"/>
      </g>
     </g>
     <g id="text_9">
      <!-- 75 -->
      <defs>
       <path d="M 56.390625 67.921875 
L 27.875 0 
L 20.609375 0 
L 47.796875 64.890625 
L 14.109375 64.890625 
L 14.109375 55.90625 
L 8.40625 55.90625 
L 8.40625 72.90625 
L 56.390625 72.90625 
z
" id="DejaVuSerif-37"/>
      </defs>
      <g transform="translate(60.10625 109.418069)scale(0.25 -0.25)">
       <use xlink:href="#DejaVuSerif-37"/>
       <use x="63.623047" xlink:href="#DejaVuSerif-35"/>
      </g>
     </g>
    </g>
    <g id="ytick_5">
     <g id="line2d_25">
      <path clip-path="url(#pf837e4fa62)" d="M 95.41875 24.320029 
L 541.81875 24.320029 
" style="fill:none;stroke:#b0b0b0;stroke-linecap:square;stroke-width:0.8;"/>
     </g>
     <g id="line2d_26">
      <g>
       <use style="stroke:#000000;stroke-width:0.8;" x="95.41875" xlink:href="#mb81351a298" y="24.320029"/>
      </g>
     </g>
     <g id="line2d_27">
      <g>
       <use style="stroke:#000000;stroke-width:0.8;" x="541.81875" xlink:href="#m1ace41ef16" y="24.320029"/>
      </g>
     </g>
     <g id="text_10">
      <!-- 100 -->
      <g transform="translate(44.2 33.818076)scale(0.25 -0.25)">
       <use xlink:href="#DejaVuSerif-31"/>
       <use x="63.623047" xlink:href="#DejaVuSerif-30"/>
       <use x="127.246094" xlink:href="#DejaVuSerif-30"/>
      </g>
     </g>
    </g>
    <g id="text_11">
     <!-- $\sqrt{J_2}$ [MPa] -->
     <defs>
      <path d="M 108.90625 155.203125 
L 52.703125 -29.5 
L 48.5 -29.5 
L 25.40625 45.59375 
Q 24.296875 49.203125 22.890625 50.796875 
Q 21.5 52.40625 19.203125 52.40625 
Q 15.796875 52.40625 12.40625 49.703125 
L 11.203125 51.703125 
L 27.59375 64.296875 
L 30.09375 64.296875 
L 52.796875 -9.40625 
L 53.203125 -9.40625 
L 103.203125 155.203125 
z
" id="STIXSizeOneSym-Regular-221a"/>
      <path d="M 16.703125 72.90625 
L 26.609375 72.90625 
L 13.375 5.078125 
Q 10.796875 -8.15625 4.65625 -14.078125 
Q -1.46875 -20.015625 -12.5 -20.015625 
L -16.40625 -20.015625 
L -14.796875 -11.71875 
L -11.71875 -11.71875 
Q -5.125 -11.71875 -1.703125 -7.953125 
Q 1.703125 -4.203125 3.515625 5.078125 
z
" id="DejaVuSans-Oblique-4a"/>
      <path d="M 19.1875 8.296875 
L 53.609375 8.296875 
L 53.609375 0 
L 7.328125 0 
L 7.328125 8.296875 
Q 12.9375 14.109375 22.625 23.890625 
Q 32.328125 33.6875 34.8125 36.53125 
Q 39.546875 41.84375 41.421875 45.53125 
Q 43.3125 49.21875 43.3125 52.78125 
Q 43.3125 58.59375 39.234375 62.25 
Q 35.15625 65.921875 28.609375 65.921875 
Q 23.96875 65.921875 18.8125 64.3125 
Q 13.671875 62.703125 7.8125 59.421875 
L 7.8125 69.390625 
Q 13.765625 71.78125 18.9375 73 
Q 24.125 74.21875 28.421875 74.21875 
Q 39.75 74.21875 46.484375 68.546875 
Q 53.21875 62.890625 53.21875 53.421875 
Q 53.21875 48.921875 51.53125 44.890625 
Q 49.859375 40.875 45.40625 35.40625 
Q 44.1875 33.984375 37.640625 27.21875 
Q 31.109375 20.453125 19.1875 8.296875 
z
" id="DejaVuSans-32"/>
      <path id="DejaVuSerif-20"/>
      <path d="M 8.59375 75.984375 
L 31.296875 75.984375 
L 31.296875 70.796875 
L 17.921875 70.796875 
L 17.921875 -8.015625 
L 31.296875 -8.015625 
L 31.296875 -13.1875 
L 8.59375 -13.1875 
z
" id="DejaVuSerif-5b"/>
      <path d="M 5.515625 0 
L 5.515625 5.171875 
L 14.796875 5.171875 
L 14.796875 67.671875 
L 4.984375 67.671875 
L 4.984375 72.90625 
L 26.21875 72.90625 
L 51.8125 21 
L 77.390625 72.90625 
L 97.3125 72.90625 
L 97.3125 67.671875 
L 87.59375 67.671875 
L 87.59375 5.171875 
L 96.921875 5.171875 
L 96.921875 0 
L 68.40625 0 
L 68.40625 5.171875 
L 77.6875 5.171875 
L 77.6875 61.53125 
L 52.6875 10.6875 
L 45.796875 10.6875 
L 20.796875 61.53125 
L 20.796875 5.171875 
L 30.078125 5.171875 
L 30.078125 0 
z
" id="DejaVuSerif-4d"/>
      <path d="M 24.703125 37.109375 
L 37.59375 37.109375 
Q 44.875 37.109375 48.671875 41.03125 
Q 52.484375 44.96875 52.484375 52.390625 
Q 52.484375 59.859375 48.671875 63.765625 
Q 44.875 67.671875 37.59375 67.671875 
L 24.703125 67.671875 
z
M 5.515625 0 
L 5.515625 5.171875 
L 14.796875 5.171875 
L 14.796875 67.671875 
L 5.515625 67.671875 
L 5.515625 72.90625 
L 39.984375 72.90625 
Q 50.921875 72.90625 57.3125 67.359375 
Q 63.71875 61.8125 63.71875 52.390625 
Q 63.71875 43.015625 57.3125 37.453125 
Q 50.921875 31.890625 39.984375 31.890625 
L 24.703125 31.890625 
L 24.703125 5.171875 
L 35.984375 5.171875 
L 35.984375 0 
z
" id="DejaVuSerif-50"/>
      <path d="M 39.796875 16.3125 
L 39.796875 27.296875 
L 28.21875 27.296875 
Q 21.53125 27.296875 18.25 24.40625 
Q 14.984375 21.53125 14.984375 15.578125 
Q 14.984375 10.15625 18.296875 6.984375 
Q 21.625 3.8125 27.296875 3.8125 
Q 32.90625 3.8125 36.34375 7.28125 
Q 39.796875 10.75 39.796875 16.3125 
z
M 48.78125 32.421875 
L 48.78125 5.171875 
L 56.78125 5.171875 
L 56.78125 0 
L 39.796875 0 
L 39.796875 5.609375 
Q 36.8125 2 32.90625 0.28125 
Q 29 -1.421875 23.78125 -1.421875 
Q 15.140625 -1.421875 10.0625 3.171875 
Q 4.984375 7.765625 4.984375 15.578125 
Q 4.984375 23.640625 10.796875 28.078125 
Q 16.609375 32.515625 27.203125 32.515625 
L 39.796875 32.515625 
L 39.796875 36.078125 
Q 39.796875 42 36.203125 45.234375 
Q 32.625 48.484375 26.125 48.484375 
Q 20.75 48.484375 17.578125 46.046875 
Q 14.40625 43.609375 13.625 38.8125 
L 8.984375 38.8125 
L 8.984375 49.3125 
Q 13.671875 51.3125 18.09375 52.3125 
Q 22.515625 53.328125 26.703125 53.328125 
Q 37.5 53.328125 43.140625 47.96875 
Q 48.78125 42.625 48.78125 32.421875 
z
" id="DejaVuSerif-61"/>
      <path d="M 30.421875 75.984375 
L 30.421875 -13.1875 
L 7.71875 -13.1875 
L 7.71875 -8.015625 
L 21.09375 -8.015625 
L 21.09375 70.796875 
L 7.71875 70.796875 
L 7.71875 75.984375 
z
" id="DejaVuSerif-5d"/>
     </defs>
     <g transform="translate(34.95 239.52)rotate(-90)scale(0.25 -0.25)">
      <use transform="translate(0 0.671875)scale(0.672278)" xlink:href="#STIXSizeOneSym-Regular-221a"/>
      <use transform="translate(83.550217 0.84375)" xlink:href="#DejaVuSans-Oblique-4a"/>
      <use transform="translate(113.042404 -15.5625)scale(0.7)" xlink:href="#DejaVuSans-32"/>
      <use transform="translate(172.812912 0.859375)" xlink:href="#DejaVuSerif-20"/>
      <use transform="translate(204.600021 0.859375)" xlink:href="#DejaVuSerif-5b"/>
      <use transform="translate(243.613693 0.859375)" xlink:href="#DejaVuSerif-4d"/>
      <use transform="translate(346.006271 0.859375)" xlink:href="#DejaVuSerif-50"/>
      <use transform="translate(413.291428 0.859375)" xlink:href="#DejaVuSerif-61"/>
      <use transform="translate(472.910568 0.859375)" xlink:href="#DejaVuSerif-5d"/>
      <path d="M 71.050217 98.5 
L 71.050217 104.75 
L 172.812912 104.75 
L 172.812912 98.5 
L 71.050217 98.5 
z
"/>
     </g>
    </g>
   </g>
   <g id="line2d_28">
    <path clip-path="url(#pf837e4fa62)" d="M 115.709659 326.72 
L 115.709659 326.72 
L 122.473295 266.240006 
L 129.236932 205.760012 
L 136.000568 145.280018 
L 142.764205 84.800023 
L 149.527841 24.320029 
L 156.291477 24.320005 
L 163.055114 24.320005 
L 169.81875 24.320005 
L 176.582386 24.320005 
L 183.346023 24.320005 
L 190.109659 24.320005 
L 196.873295 24.320005 
L 203.636932 24.320005 
L 210.400568 24.320005 
L 217.164205 24.320005 
L 223.927841 24.320005 
L 230.691477 24.320005 
L 237.455114 24.320005 
L 244.21875 24.320005 
L 250.982386 24.320005 
L 257.746023 24.320005 
L 264.509659 24.320005 
L 271.273295 24.320005 
L 278.036932 24.320005 
L 284.800568 24.320005 
L 291.564205 24.320005 
L 298.327841 24.320005 
L 305.091477 24.320005 
L 311.855114 24.320005 
L 318.61875 24.320005 
L 325.382386 24.320005 
L 332.146023 24.320005 
L 338.909659 24.320005 
L 345.673295 24.320005 
L 352.436932 24.320005 
L 359.200568 24.320005 
L 365.964205 24.320005 
L 372.727841 24.320005 
L 379.491477 24.320005 
L 386.255114 24.320005 
L 386.255114 24.320005 
L 393.01875 24.320002 
L 399.782386 24.320002 
L 406.546023 24.320002 
L 413.309659 24.320002 
L 420.073295 24.320002 
L 426.836932 24.320002 
L 433.600568 24.320002 
L 440.364205 24.320002 
L 447.127841 24.320002 
L 453.891477 24.320002 
L 453.891477 24.320002 
L 460.655114 24.32 
L 467.41875 24.32 
L 474.182386 24.32 
L 480.946023 24.32 
L 487.709659 24.32 
L 494.473295 24.32 
L 501.236932 24.32 
L 508.000568 24.32 
L 514.764205 24.32 
L 521.527841 24.32 
L 521.527841 24.32 
" style="fill:none;stroke:#ff0000;stroke-dasharray:1.5,2.475;stroke-dashoffset:0;stroke-width:1.5;"/>
    <defs>
     <path d="M -0 7.071068 
L 4.242641 0 
L 0 -7.071068 
L -4.242641 0 
z
" id="m8a3e29181c" style="stroke:#ff0000;stroke-linejoin:miter;stroke-width:2;"/>
    </defs>
    <g clip-path="url(#pf837e4fa62)">
     <use style="fill-opacity:0;stroke:#ff0000;stroke-linejoin:miter;stroke-width:2;" x="115.709659" xlink:href="#m8a3e29181c" y="326.72"/>
     <use style="fill-opacity:0;stroke:#ff0000;stroke-linejoin:miter;stroke-width:2;" x="115.709659" xlink:href="#m8a3e29181c" y="326.72"/>
     <use style="fill-opacity:0;stroke:#ff0000;stroke-linejoin:miter;stroke-width:2;" x="122.473295" xlink:href="#m8a3e29181c" y="266.240006"/>
     <use style="fill-opacity:0;stroke:#ff0000;stroke-linejoin:miter;stroke-width:2;" x="129.236932" xlink:href="#m8a3e29181c" y="205.760012"/>
     <use style="fill-opacity:0;stroke:#ff0000;stroke-linejoin:miter;stroke-width:2;" x="136.000568" xlink:href="#m8a3e29181c" y="145.280018"/>
     <use style="fill-opacity:0;stroke:#ff0000;stroke-linejoin:miter;stroke-width:2;" x="142.764205" xlink:href="#m8a3e29181c" y="84.800023"/>
     <use style="fill-opacity:0;stroke:#ff0000;stroke-linejoin:miter;stroke-width:2;" x="149.527841" xlink:href="#m8a3e29181c" y="24.320029"/>
     <use style="fill-opacity:0;stroke:#ff0000;stroke-linejoin:miter;stroke-width:2;" x="156.291477" xlink:href="#m8a3e29181c" y="24.320005"/>
     <use style="fill-opacity:0;stroke:#ff0000;stroke-linejoin:miter;stroke-width:2;" x="163.055114" xlink:href="#m8a3e29181c" y="24.320005"/>
     <use style="fill-opacity:0;stroke:#ff0000;stroke-linejoin:miter;stroke-width:2;" x="169.81875" xlink:href="#m8a3e29181c" y="24.320005"/>
     <use style="fill-opacity:0;stroke:#ff0000;stroke-linejoin:miter;stroke-width:2;" x="176.582386" xlink:href="#m8a3e29181c" y="24.320005"/>
     <use style="fill-opacity:0;stroke:#ff0000;stroke-linejoin:miter;stroke-width:2;" x="183.346023" xlink:href="#m8a3e29181c" y="24.320005"/>
     <use style="fill-opacity:0;stroke:#ff0000;stroke-linejoin:miter;stroke-width:2;" x="190.109659" xlink:href="#m8a3e29181c" y="24.320005"/>
     <use style="fill-opacity:0;stroke:#ff0000;stroke-linejoin:miter;stroke-width:2;" x="196.873295" xlink:href="#m8a3e29181c" y="24.320005"/>
     <use style="fill-opacity:0;stroke:#ff0000;stroke-linejoin:miter;stroke-width:2;" x="203.636932" xlink:href="#m8a3e29181c" y="24.320005"/>
     <use style="fill-opacity:0;stroke:#ff0000;stroke-linejoin:miter;stroke-width:2;" x="210.400568" xlink:href="#m8a3e29181c" y="24.320005"/>
     <use style="fill-opacity:0;stroke:#ff0000;stroke-linejoin:miter;stroke-width:2;" x="217.164205" xlink:href="#m8a3e29181c" y="24.320005"/>
     <use style="fill-opacity:0;stroke:#ff0000;stroke-linejoin:miter;stroke-width:2;" x="223.927841" xlink:href="#m8a3e29181c" y="24.320005"/>
     <use style="fill-opacity:0;stroke:#ff0000;stroke-linejoin:miter;stroke-width:2;" x="230.691477" xlink:href="#m8a3e29181c" y="24.320005"/>
     <use style="fill-opacity:0;stroke:#ff0000;stroke-linejoin:miter;stroke-width:2;" x="237.455114" xlink:href="#m8a3e29181c" y="24.320005"/>
     <use style="fill-opacity:0;stroke:#ff0000;stroke-linejoin:miter;stroke-width:2;" x="244.21875" xlink:href="#m8a3e29181c" y="24.320005"/>
     <use style="fill-opacity:0;stroke:#ff0000;stroke-linejoin:miter;stroke-width:2;" x="250.982386" xlink:href="#m8a3e29181c" y="24.320005"/>
     <use style="fill-opacity:0;stroke:#ff0000;stroke-linejoin:miter;stroke-width:2;" x="257.746023" xlink:href="#m8a3e29181c" y="24.320005"/>
     <use style="fill-opacity:0;stroke:#ff0000;stroke-linejoin:miter;stroke-width:2;" x="264.509659" xlink:href="#m8a3e29181c" y="24.320005"/>
     <use style="fill-opacity:0;stroke:#ff0000;stroke-linejoin:miter;stroke-width:2;" x="271.273295" xlink:href="#m8a3e29181c" y="24.320005"/>
     <use style="fill-opacity:0;stroke:#ff0000;stroke-linejoin:miter;stroke-width:2;" x="278.036932" xlink:href="#m8a3e29181c" y="24.320005"/>
     <use style="fill-opacity:0;stroke:#ff0000;stroke-linejoin:miter;stroke-width:2;" x="284.800568" xlink:href="#m8a3e29181c" y="24.320005"/>
     <use style="fill-opacity:0;stroke:#ff0000;stroke-linejoin:miter;stroke-width:2;" x="291.564205" xlink:href="#m8a3e29181c" y="24.320005"/>
     <use style="fill-opacity:0;stroke:#ff0000;stroke-linejoin:miter;stroke-width:2;" x="298.327841" xlink:href="#m8a3e29181c" y="24.320005"/>
     <use style="fill-opacity:0;stroke:#ff0000;stroke-linejoin:miter;stroke-width:2;" x="305.091477" xlink:href="#m8a3e29181c" y="24.320005"/>
     <use style="fill-opacity:0;stroke:#ff0000;stroke-linejoin:miter;stroke-width:2;" x="311.855114" xlink:href="#m8a3e29181c" y="24.320005"/>
     <use style="fill-opacity:0;stroke:#ff0000;stroke-linejoin:miter;stroke-width:2;" x="318.61875" xlink:href="#m8a3e29181c" y="24.320005"/>
     <use style="fill-opacity:0;stroke:#ff0000;stroke-linejoin:miter;stroke-width:2;" x="325.382386" xlink:href="#m8a3e29181c" y="24.320005"/>
     <use style="fill-opacity:0;stroke:#ff0000;stroke-linejoin:miter;stroke-width:2;" x="332.146023" xlink:href="#m8a3e29181c" y="24.320005"/>
     <use style="fill-opacity:0;stroke:#ff0000;stroke-linejoin:miter;stroke-width:2;" x="338.909659" xlink:href="#m8a3e29181c" y="24.320005"/>
     <use style="fill-opacity:0;stroke:#ff0000;stroke-linejoin:miter;stroke-width:2;" x="345.673295" xlink:href="#m8a3e29181c" y="24.320005"/>
     <use style="fill-opacity:0;stroke:#ff0000;stroke-linejoin:miter;stroke-width:2;" x="352.436932" xlink:href="#m8a3e29181c" y="24.320005"/>
     <use style="fill-opacity:0;stroke:#ff0000;stroke-linejoin:miter;stroke-width:2;" x="359.200568" xlink:href="#m8a3e29181c" y="24.320005"/>
     <use style="fill-opacity:0;stroke:#ff0000;stroke-linejoin:miter;stroke-width:2;" x="365.964205" xlink:href="#m8a3e29181c" y="24.320005"/>
     <use style="fill-opacity:0;stroke:#ff0000;stroke-linejoin:miter;stroke-width:2;" x="372.727841" xlink:href="#m8a3e29181c" y="24.320005"/>
     <use style="fill-opacity:0;stroke:#ff0000;stroke-linejoin:miter;stroke-width:2;" x="379.491477" xlink:href="#m8a3e29181c" y="24.320005"/>
     <use style="fill-opacity:0;stroke:#ff0000;stroke-linejoin:miter;stroke-width:2;" x="386.255114" xlink:href="#m8a3e29181c" y="24.320005"/>
     <use style="fill-opacity:0;stroke:#ff0000;stroke-linejoin:miter;stroke-width:2;" x="386.255114" xlink:href="#m8a3e29181c" y="24.320005"/>
     <use style="fill-opacity:0;stroke:#ff0000;stroke-linejoin:miter;stroke-width:2;" x="393.01875" xlink:href="#m8a3e29181c" y="24.320002"/>
     <use style="fill-opacity:0;stroke:#ff0000;stroke-linejoin:miter;stroke-width:2;" x="399.782386" xlink:href="#m8a3e29181c" y="24.320002"/>
     <use style="fill-opacity:0;stroke:#ff0000;stroke-linejoin:miter;stroke-width:2;" x="406.546023" xlink:href="#m8a3e29181c" y="24.320002"/>
     <use style="fill-opacity:0;stroke:#ff0000;stroke-linejoin:miter;stroke-width:2;" x="413.309659" xlink:href="#m8a3e29181c" y="24.320002"/>
     <use style="fill-opacity:0;stroke:#ff0000;stroke-linejoin:miter;stroke-width:2;" x="420.073295" xlink:href="#m8a3e29181c" y="24.320002"/>
     <use style="fill-opacity:0;stroke:#ff0000;stroke-linejoin:miter;stroke-width:2;" x="426.836932" xlink:href="#m8a3e29181c" y="24.320002"/>
     <use style="fill-opacity:0;stroke:#ff0000;stroke-linejoin:miter;stroke-width:2;" x="433.600568" xlink:href="#m8a3e29181c" y="24.320002"/>
     <use style="fill-opacity:0;stroke:#ff0000;stroke-linejoin:miter;stroke-width:2;" x="440.364205" xlink:href="#m8a3e29181c" y="24.320002"/>
     <use style="fill-opacity:0;stroke:#ff0000;stroke-linejoin:miter;stroke-width:2;" x="447.127841" xlink:href="#m8a3e29181c" y="24.320002"/>
     <use style="fill-opacity:0;stroke:#ff0000;stroke-linejoin:miter;stroke-width:2;" x="453.891477" xlink:href="#m8a3e29181c" y="24.320002"/>
     <use style="fill-opacity:0;stroke:#ff0000;stroke-linejoin:miter;stroke-width:2;" x="453.891477" xlink:href="#m8a3e29181c" y="24.320002"/>
     <use style="fill-opacity:0;stroke:#ff0000;stroke-linejoin:miter;stroke-width:2;" x="460.655114" xlink:href="#m8a3e29181c" y="24.32"/>
     <use style="fill-opacity:0;stroke:#ff0000;stroke-linejoin:miter;stroke-width:2;" x="467.41875" xlink:href="#m8a3e29181c" y="24.32"/>
     <use style="fill-opacity:0;stroke:#ff0000;stroke-linejoin:miter;stroke-width:2;" x="474.182386" xlink:href="#m8a3e29181c" y="24.32"/>
     <use style="fill-opacity:0;stroke:#ff0000;stroke-linejoin:miter;stroke-width:2;" x="480.946023" xlink:href="#m8a3e29181c" y="24.32"/>
     <use style="fill-opacity:0;stroke:#ff0000;stroke-linejoin:miter;stroke-width:2;" x="487.709659" xlink:href="#m8a3e29181c" y="24.32"/>
     <use style="fill-opacity:0;stroke:#ff0000;stroke-linejoin:miter;stroke-width:2;" x="494.473295" xlink:href="#m8a3e29181c" y="24.32"/>
     <use style="fill-opacity:0;stroke:#ff0000;stroke-linejoin:miter;stroke-width:2;" x="501.236932" xlink:href="#m8a3e29181c" y="24.32"/>
     <use style="fill-opacity:0;stroke:#ff0000;stroke-linejoin:miter;stroke-width:2;" x="508.000568" xlink:href="#m8a3e29181c" y="24.32"/>
     <use style="fill-opacity:0;stroke:#ff0000;stroke-linejoin:miter;stroke-width:2;" x="514.764205" xlink:href="#m8a3e29181c" y="24.32"/>
     <use style="fill-opacity:0;stroke:#ff0000;stroke-linejoin:miter;stroke-width:2;" x="521.527841" xlink:href="#m8a3e29181c" y="24.32"/>
     <use style="fill-opacity:0;stroke:#ff0000;stroke-linejoin:miter;stroke-width:2;" x="521.527841" xlink:href="#m8a3e29181c" y="24.32"/>
    </g>
   </g>
   <g id="patch_3">
    <path d="M 95.41875 341.84 
L 95.41875 9.2 
" style="fill:none;stroke:#000000;stroke-linecap:square;stroke-linejoin:miter;stroke-width:0.8;"/>
   </g>
   <g id="patch_4">
    <path d="M 541.81875 341.84 
L 541.81875 9.2 
" style="fill:none;stroke:#000000;stroke-linecap:square;stroke-linejoin:miter;stroke-width:0.8;"/>
   </g>
   <g id="patch_5">
    <path d="M 95.41875 341.84 
L 541.81875 341.84 
" style="fill:none;stroke:#000000;stroke-linecap:square;stroke-linejoin:miter;stroke-width:0.8;"/>
   </g>
   <g id="patch_6">
    <path d="M 95.41875 9.2 
L 541.81875 9.2 
" style="fill:none;stroke:#000000;stroke-linecap:square;stroke-linejoin:miter;stroke-width:0.8;"/>
   </g>
  </g>
 </g>
 <defs>
  <clipPath id="pf837e4fa62">
   <rect height="332.64" width="446.4" x="95.41875" y="9.2"/>
  </clipPath>
 </defs>
</svg>
