<?xml version="1.0" encoding="utf-8" standalone="no"?>
<!DOCTYPE svg PUBLIC "-//W3C//DTD SVG 1.1//EN"
  "http://www.w3.org/Graphics/SVG/1.1/DTD/svg11.dtd">
<!-- Created with matplotlib (https://matplotlib.org/) -->
<svg height="396.7525pt" version="1.1" viewBox="0 0 544.030885 396.7525" width="544.030885pt" xmlns="http://www.w3.org/2000/svg" xmlns:xlink="http://www.w3.org/1999/xlink">
 <defs>
  <style type="text/css">
*{stroke-linecap:butt;stroke-linejoin:round;}
  </style>
 </defs>
 <g id="figure_1">
  <g id="patch_1">
   <path d="M 0 396.7525 
L 544.030885 396.7525 
L 544.030885 0 
L 0 0 
z
" style="fill:#ffffff;"/>
  </g>
  <g id="axes_1">
   <g id="patch_2">
    <path d="M 88.45625 339.84 
L 534.85625 339.84 
L 534.85625 7.2 
L 88.45625 7.2 
z
" style="fill:#ffffff;"/>
   </g>
   <g id="matplotlib.axis_1">
    <g id="xtick_1">
     <g id="line2d_1">
      <path clip-path="url(#pe3ca2897ad)" d="M 108.747159 339.84 
L 108.747159 7.2 
" style="fill:none;stroke:#b0b0b0;stroke-linecap:square;stroke-width:0.8;"/>
     </g>
     <g id="line2d_2">
      <defs>
       <path d="M 0 0 
L 0 3.5 
" id="m01f4cf085e" style="stroke:#000000;stroke-width:0.8;"/>
      </defs>
      <g>
       <use style="stroke:#000000;stroke-width:0.8;" x="108.747159" xlink:href="#m01f4cf085e" y="339.84"/>
      </g>
     </g>
     <g id="text_1">
      <!-- 0.00 -->
      <defs>
       <path d="M 31.78125 66.40625 
Q 24.171875 66.40625 20.328125 58.90625 
Q 16.5 51.421875 16.5 36.375 
Q 16.5 21.390625 20.328125 13.890625 
Q 24.171875 6.390625 31.78125 6.390625 
Q 39.453125 6.390625 43.28125 13.890625 
Q 47.125 21.390625 47.125 36.375 
Q 47.125 51.421875 43.28125 58.90625 
Q 39.453125 66.40625 31.78125 66.40625 
z
M 31.78125 74.21875 
Q 44.046875 74.21875 50.515625 64.515625 
Q 56.984375 54.828125 56.984375 36.375 
Q 56.984375 17.96875 50.515625 8.265625 
Q 44.046875 -1.421875 31.78125 -1.421875 
Q 19.53125 -1.421875 13.0625 8.265625 
Q 6.59375 17.96875 6.59375 36.375 
Q 6.59375 54.828125 13.0625 64.515625 
Q 19.53125 74.21875 31.78125 74.21875 
z
" id="DejaVuSans-48"/>
       <path d="M 10.6875 12.40625 
L 21 12.40625 
L 21 0 
L 10.6875 0 
z
" id="DejaVuSans-46"/>
      </defs>
      <g transform="translate(86.481534 362.036875)scale(0.2 -0.2)">
       <use xlink:href="#DejaVuSans-48"/>
       <use x="63.623047" xlink:href="#DejaVuSans-46"/>
       <use x="95.410156" xlink:href="#DejaVuSans-48"/>
       <use x="159.033203" xlink:href="#DejaVuSans-48"/>
      </g>
     </g>
    </g>
    <g id="xtick_2">
     <g id="line2d_3">
      <path clip-path="url(#pe3ca2897ad)" d="M 189.910779 339.84 
L 189.910779 7.2 
" style="fill:none;stroke:#b0b0b0;stroke-linecap:square;stroke-width:0.8;"/>
     </g>
     <g id="line2d_4">
      <g>
       <use style="stroke:#000000;stroke-width:0.8;" x="189.910779" xlink:href="#m01f4cf085e" y="339.84"/>
      </g>
     </g>
     <g id="text_2">
      <!-- 0.01 -->
      <defs>
       <path d="M 12.40625 8.296875 
L 28.515625 8.296875 
L 28.515625 63.921875 
L 10.984375 60.40625 
L 10.984375 69.390625 
L 28.421875 72.90625 
L 38.28125 72.90625 
L 38.28125 8.296875 
L 54.390625 8.296875 
L 54.390625 0 
L 12.40625 0 
z
" id="DejaVuSans-49"/>
      </defs>
      <g transform="translate(167.645154 362.036875)scale(0.2 -0.2)">
       <use xlink:href="#DejaVuSans-48"/>
       <use x="63.623047" xlink:href="#DejaVuSans-46"/>
       <use x="95.410156" xlink:href="#DejaVuSans-48"/>
       <use x="159.033203" xlink:href="#DejaVuSans-49"/>
      </g>
     </g>
    </g>
    <g id="xtick_3">
     <g id="line2d_5">
      <path clip-path="url(#pe3ca2897ad)" d="M 271.074399 339.84 
L 271.074399 7.2 
" style="fill:none;stroke:#b0b0b0;stroke-linecap:square;stroke-width:0.8;"/>
     </g>
     <g id="line2d_6">
      <g>
       <use style="stroke:#000000;stroke-width:0.8;" x="271.074399" xlink:href="#m01f4cf085e" y="339.84"/>
      </g>
     </g>
     <g id="text_3">
      <!-- 0.02 -->
      <defs>
       <path d="M 19.1875 8.296875 
L 53.609375 8.296875 
L 53.609375 0 
L 7.328125 0 
L 7.328125 8.296875 
Q 12.9375 14.109375 22.625 23.890625 
Q 32.328125 33.6875 34.8125 36.53125 
Q 39.546875 41.84375 41.421875 45.53125 
Q 43.3125 49.21875 43.3125 52.78125 
Q 43.3125 58.59375 39.234375 62.25 
Q 35.15625 65.921875 28.609375 65.921875 
Q 23.96875 65.921875 18.8125 64.3125 
Q 13.671875 62.703125 7.8125 59.421875 
L 7.8125 69.390625 
Q 13.765625 71.78125 18.9375 73 
Q 24.125 74.21875 28.421875 74.21875 
Q 39.75 74.21875 46.484375 68.546875 
Q 53.21875 62.890625 53.21875 53.421875 
Q 53.21875 48.921875 51.53125 44.890625 
Q 49.859375 40.875 45.40625 35.40625 
Q 44.1875 33.984375 37.640625 27.21875 
Q 31.109375 20.453125 19.1875 8.296875 
z
" id="DejaVuSans-50"/>
      </defs>
      <g transform="translate(248.808774 362.036875)scale(0.2 -0.2)">
       <use xlink:href="#DejaVuSans-48"/>
       <use x="63.623047" xlink:href="#DejaVuSans-46"/>
       <use x="95.410156" xlink:href="#DejaVuSans-48"/>
       <use x="159.033203" xlink:href="#DejaVuSans-50"/>
      </g>
     </g>
    </g>
    <g id="xtick_4">
     <g id="line2d_7">
      <path clip-path="url(#pe3ca2897ad)" d="M 352.238019 339.84 
L 352.238019 7.2 
" style="fill:none;stroke:#b0b0b0;stroke-linecap:square;stroke-width:0.8;"/>
     </g>
     <g id="line2d_8">
      <g>
       <use style="stroke:#000000;stroke-width:0.8;" x="352.238019" xlink:href="#m01f4cf085e" y="339.84"/>
      </g>
     </g>
     <g id="text_4">
      <!-- 0.03 -->
      <defs>
       <path d="M 40.578125 39.3125 
Q 47.65625 37.796875 51.625 33 
Q 55.609375 28.21875 55.609375 21.1875 
Q 55.609375 10.40625 48.1875 4.484375 
Q 40.765625 -1.421875 27.09375 -1.421875 
Q 22.515625 -1.421875 17.65625 -0.515625 
Q 12.796875 0.390625 7.625 2.203125 
L 7.625 11.71875 
Q 11.71875 9.328125 16.59375 8.109375 
Q 21.484375 6.890625 26.8125 6.890625 
Q 36.078125 6.890625 40.9375 10.546875 
Q 45.796875 14.203125 45.796875 21.1875 
Q 45.796875 27.640625 41.28125 31.265625 
Q 36.765625 34.90625 28.71875 34.90625 
L 20.21875 34.90625 
L 20.21875 43.015625 
L 29.109375 43.015625 
Q 36.375 43.015625 40.234375 45.921875 
Q 44.09375 48.828125 44.09375 54.296875 
Q 44.09375 59.90625 40.109375 62.90625 
Q 36.140625 65.921875 28.71875 65.921875 
Q 24.65625 65.921875 20.015625 65.03125 
Q 15.375 64.15625 9.8125 62.3125 
L 9.8125 71.09375 
Q 15.4375 72.65625 20.34375 73.4375 
Q 25.25 74.21875 29.59375 74.21875 
Q 40.828125 74.21875 47.359375 69.109375 
Q 53.90625 64.015625 53.90625 55.328125 
Q 53.90625 49.265625 50.4375 45.09375 
Q 46.96875 40.921875 40.578125 39.3125 
z
" id="DejaVuSans-51"/>
      </defs>
      <g transform="translate(329.972394 362.036875)scale(0.2 -0.2)">
       <use xlink:href="#DejaVuSans-48"/>
       <use x="63.623047" xlink:href="#DejaVuSans-46"/>
       <use x="95.410156" xlink:href="#DejaVuSans-48"/>
       <use x="159.033203" xlink:href="#DejaVuSans-51"/>
      </g>
     </g>
    </g>
    <g id="xtick_5">
     <g id="line2d_9">
      <path clip-path="url(#pe3ca2897ad)" d="M 433.40164 339.84 
L 433.40164 7.2 
" style="fill:none;stroke:#b0b0b0;stroke-linecap:square;stroke-width:0.8;"/>
     </g>
     <g id="line2d_10">
      <g>
       <use style="stroke:#000000;stroke-width:0.8;" x="433.40164" xlink:href="#m01f4cf085e" y="339.84"/>
      </g>
     </g>
     <g id="text_5">
      <!-- 0.04 -->
      <defs>
       <path d="M 37.796875 64.3125 
L 12.890625 25.390625 
L 37.796875 25.390625 
z
M 35.203125 72.90625 
L 47.609375 72.90625 
L 47.609375 25.390625 
L 58.015625 25.390625 
L 58.015625 17.1875 
L 47.609375 17.1875 
L 47.609375 0 
L 37.796875 0 
L 37.796875 17.1875 
L 4.890625 17.1875 
L 4.890625 26.703125 
z
" id="DejaVuSans-52"/>
      </defs>
      <g transform="translate(411.136015 362.036875)scale(0.2 -0.2)">
       <use xlink:href="#DejaVuSans-48"/>
       <use x="63.623047" xlink:href="#DejaVuSans-46"/>
       <use x="95.410156" xlink:href="#DejaVuSans-48"/>
       <use x="159.033203" xlink:href="#DejaVuSans-52"/>
      </g>
     </g>
    </g>
    <g id="xtick_6">
     <g id="line2d_11">
      <path clip-path="url(#pe3ca2897ad)" d="M 514.56526 339.84 
L 514.56526 7.2 
" style="fill:none;stroke:#b0b0b0;stroke-linecap:square;stroke-width:0.8;"/>
     </g>
     <g id="line2d_12">
      <g>
       <use style="stroke:#000000;stroke-width:0.8;" x="514.56526" xlink:href="#m01f4cf085e" y="339.84"/>
      </g>
     </g>
     <g id="text_6">
      <!-- 0.05 -->
      <defs>
       <path d="M 10.796875 72.90625 
L 49.515625 72.90625 
L 49.515625 64.59375 
L 19.828125 64.59375 
L 19.828125 46.734375 
Q 21.96875 47.46875 24.109375 47.828125 
Q 26.265625 48.1875 28.421875 48.1875 
Q 40.625 48.1875 47.75 41.5 
Q 54.890625 34.8125 54.890625 23.390625 
Q 54.890625 11.625 47.5625 5.09375 
Q 40.234375 -1.421875 26.90625 -1.421875 
Q 22.3125 -1.421875 17.546875 -0.640625 
Q 12.796875 0.140625 7.71875 1.703125 
L 7.71875 11.625 
Q 12.109375 9.234375 16.796875 8.0625 
Q 21.484375 6.890625 26.703125 6.890625 
Q 35.15625 6.890625 40.078125 11.328125 
Q 45.015625 15.765625 45.015625 23.390625 
Q 45.015625 31 40.078125 35.4375 
Q 35.15625 39.890625 26.703125 39.890625 
Q 22.75 39.890625 18.8125 39.015625 
Q 14.890625 38.140625 10.796875 36.28125 
z
" id="DejaVuSans-53"/>
      </defs>
      <g transform="translate(492.299635 362.036875)scale(0.2 -0.2)">
       <use xlink:href="#DejaVuSans-48"/>
       <use x="63.623047" xlink:href="#DejaVuSans-46"/>
       <use x="95.410156" xlink:href="#DejaVuSans-48"/>
       <use x="159.033203" xlink:href="#DejaVuSans-53"/>
      </g>
     </g>
    </g>
    <g id="text_7">
     <!-- $t$ [s] -->
     <defs>
      <path d="M 42.28125 54.6875 
L 40.921875 47.703125 
L 23 47.703125 
L 17.1875 18.015625 
Q 16.890625 16.359375 16.75 15.234375 
Q 16.609375 14.109375 16.609375 13.484375 
Q 16.609375 10.359375 18.484375 8.9375 
Q 20.359375 7.515625 24.515625 7.515625 
L 33.59375 7.515625 
L 32.078125 0 
L 23.484375 0 
Q 15.484375 0 11.546875 3.125 
Q 7.625 6.25 7.625 12.59375 
Q 7.625 13.71875 7.765625 15.0625 
Q 7.90625 16.40625 8.203125 18.015625 
L 14.015625 47.703125 
L 6.390625 47.703125 
L 7.8125 54.6875 
L 15.28125 54.6875 
L 18.3125 70.21875 
L 27.296875 70.21875 
L 24.3125 54.6875 
z
" id="DejaVuSans-Oblique-116"/>
      <path id="DejaVuSans-32"/>
      <path d="M 8.59375 75.984375 
L 29.296875 75.984375 
L 29.296875 69 
L 17.578125 69 
L 17.578125 -6.203125 
L 29.296875 -6.203125 
L 29.296875 -13.1875 
L 8.59375 -13.1875 
z
" id="DejaVuSans-91"/>
      <path d="M 44.28125 53.078125 
L 44.28125 44.578125 
Q 40.484375 46.53125 36.375 47.5 
Q 32.28125 48.484375 27.875 48.484375 
Q 21.1875 48.484375 17.84375 46.4375 
Q 14.5 44.390625 14.5 40.28125 
Q 14.5 37.15625 16.890625 35.375 
Q 19.28125 33.59375 26.515625 31.984375 
L 29.59375 31.296875 
Q 39.15625 29.25 43.1875 25.515625 
Q 47.21875 21.78125 47.21875 15.09375 
Q 47.21875 7.46875 41.1875 3.015625 
Q 35.15625 -1.421875 24.609375 -1.421875 
Q 20.21875 -1.421875 15.453125 -0.5625 
Q 10.6875 0.296875 5.421875 2 
L 5.421875 11.28125 
Q 10.40625 8.6875 15.234375 7.390625 
Q 20.0625 6.109375 24.8125 6.109375 
Q 31.15625 6.109375 34.5625 8.28125 
Q 37.984375 10.453125 37.984375 14.40625 
Q 37.984375 18.0625 35.515625 20.015625 
Q 33.0625 21.96875 24.703125 23.78125 
L 21.578125 24.515625 
Q 13.234375 26.265625 9.515625 29.90625 
Q 5.8125 33.546875 5.8125 39.890625 
Q 5.8125 47.609375 11.28125 51.796875 
Q 16.75 56 26.8125 56 
Q 31.78125 56 36.171875 55.265625 
Q 40.578125 54.546875 44.28125 53.078125 
z
" id="DejaVuSans-115"/>
      <path d="M 30.421875 75.984375 
L 30.421875 -13.1875 
L 9.71875 -13.1875 
L 9.71875 -6.203125 
L 21.390625 -6.203125 
L 21.390625 69 
L 9.71875 69 
L 9.71875 75.984375 
z
" id="DejaVuSans-93"/>
     </defs>
     <g transform="translate(291.45625 385.393125)scale(0.2 -0.2)">
      <use transform="translate(0 0.015625)" xlink:href="#DejaVuSans-Oblique-116"/>
      <use transform="translate(39.208984 0.015625)" xlink:href="#DejaVuSans-32"/>
      <use transform="translate(70.996094 0.015625)" xlink:href="#DejaVuSans-91"/>
      <use transform="translate(110.009766 0.015625)" xlink:href="#DejaVuSans-115"/>
      <use transform="translate(162.109375 0.015625)" xlink:href="#DejaVuSans-93"/>
     </g>
    </g>
   </g>
   <g id="matplotlib.axis_2">
    <g id="ytick_1">
     <g id="line2d_13">
      <path clip-path="url(#pe3ca2897ad)" d="M 88.45625 324.72 
L 534.85625 324.72 
" style="fill:none;stroke:#b0b0b0;stroke-linecap:square;stroke-width:0.8;"/>
     </g>
     <g id="line2d_14">
      <defs>
       <path d="M 0 0 
L -3.5 0 
" id="m28347a3591" style="stroke:#000000;stroke-width:0.8;"/>
      </defs>
      <g>
       <use style="stroke:#000000;stroke-width:0.8;" x="88.45625" xlink:href="#m28347a3591" y="324.72"/>
      </g>
     </g>
     <g id="text_8">
      <!-- 0 -->
      <g style="fill:#ff0000;" transform="translate(68.73125 332.318438)scale(0.2 -0.2)">
       <use xlink:href="#DejaVuSans-48"/>
      </g>
     </g>
    </g>
    <g id="ytick_2">
     <g id="line2d_15">
      <path clip-path="url(#pe3ca2897ad)" d="M 88.45625 264.239946 
L 534.85625 264.239946 
" style="fill:none;stroke:#b0b0b0;stroke-linecap:square;stroke-width:0.8;"/>
     </g>
     <g id="line2d_16">
      <g>
       <use style="stroke:#000000;stroke-width:0.8;" x="88.45625" xlink:href="#m28347a3591" y="264.239946"/>
      </g>
     </g>
     <g id="text_9">
      <!-- 200 -->
      <g style="fill:#ff0000;" transform="translate(43.28125 271.838383)scale(0.2 -0.2)">
       <use xlink:href="#DejaVuSans-50"/>
       <use x="63.623047" xlink:href="#DejaVuSans-48"/>
       <use x="127.246094" xlink:href="#DejaVuSans-48"/>
      </g>
     </g>
    </g>
    <g id="ytick_3">
     <g id="line2d_17">
      <path clip-path="url(#pe3ca2897ad)" d="M 88.45625 203.759891 
L 534.85625 203.759891 
" style="fill:none;stroke:#b0b0b0;stroke-linecap:square;stroke-width:0.8;"/>
     </g>
     <g id="line2d_18">
      <g>
       <use style="stroke:#000000;stroke-width:0.8;" x="88.45625" xlink:href="#m28347a3591" y="203.759891"/>
      </g>
     </g>
     <g id="text_10">
      <!-- 400 -->
      <g style="fill:#ff0000;" transform="translate(43.28125 211.358329)scale(0.2 -0.2)">
       <use xlink:href="#DejaVuSans-52"/>
       <use x="63.623047" xlink:href="#DejaVuSans-48"/>
       <use x="127.246094" xlink:href="#DejaVuSans-48"/>
      </g>
     </g>
    </g>
    <g id="ytick_4">
     <g id="line2d_19">
      <path clip-path="url(#pe3ca2897ad)" d="M 88.45625 143.279837 
L 534.85625 143.279837 
" style="fill:none;stroke:#b0b0b0;stroke-linecap:square;stroke-width:0.8;"/>
     </g>
     <g id="line2d_20">
      <g>
       <use style="stroke:#000000;stroke-width:0.8;" x="88.45625" xlink:href="#m28347a3591" y="143.279837"/>
      </g>
     </g>
     <g id="text_11">
      <!-- 600 -->
      <defs>
       <path d="M 33.015625 40.375 
Q 26.375 40.375 22.484375 35.828125 
Q 18.609375 31.296875 18.609375 23.390625 
Q 18.609375 15.53125 22.484375 10.953125 
Q 26.375 6.390625 33.015625 6.390625 
Q 39.65625 6.390625 43.53125 10.953125 
Q 47.40625 15.53125 47.40625 23.390625 
Q 47.40625 31.296875 43.53125 35.828125 
Q 39.65625 40.375 33.015625 40.375 
z
M 52.59375 71.296875 
L 52.59375 62.3125 
Q 48.875 64.0625 45.09375 64.984375 
Q 41.3125 65.921875 37.59375 65.921875 
Q 27.828125 65.921875 22.671875 59.328125 
Q 17.53125 52.734375 16.796875 39.40625 
Q 19.671875 43.65625 24.015625 45.921875 
Q 28.375 48.1875 33.59375 48.1875 
Q 44.578125 48.1875 50.953125 41.515625 
Q 57.328125 34.859375 57.328125 23.390625 
Q 57.328125 12.15625 50.6875 5.359375 
Q 44.046875 -1.421875 33.015625 -1.421875 
Q 20.359375 -1.421875 13.671875 8.265625 
Q 6.984375 17.96875 6.984375 36.375 
Q 6.984375 53.65625 15.1875 63.9375 
Q 23.390625 74.21875 37.203125 74.21875 
Q 40.921875 74.21875 44.703125 73.484375 
Q 48.484375 72.75 52.59375 71.296875 
z
" id="DejaVuSans-54"/>
      </defs>
      <g style="fill:#ff0000;" transform="translate(43.28125 150.878274)scale(0.2 -0.2)">
       <use xlink:href="#DejaVuSans-54"/>
       <use x="63.623047" xlink:href="#DejaVuSans-48"/>
       <use x="127.246094" xlink:href="#DejaVuSans-48"/>
      </g>
     </g>
    </g>
    <g id="ytick_5">
     <g id="line2d_21">
      <path clip-path="url(#pe3ca2897ad)" d="M 88.45625 82.799782 
L 534.85625 82.799782 
" style="fill:none;stroke:#b0b0b0;stroke-linecap:square;stroke-width:0.8;"/>
     </g>
     <g id="line2d_22">
      <g>
       <use style="stroke:#000000;stroke-width:0.8;" x="88.45625" xlink:href="#m28347a3591" y="82.799782"/>
      </g>
     </g>
     <g id="text_12">
      <!-- 800 -->
      <defs>
       <path d="M 31.78125 34.625 
Q 24.75 34.625 20.71875 30.859375 
Q 16.703125 27.09375 16.703125 20.515625 
Q 16.703125 13.921875 20.71875 10.15625 
Q 24.75 6.390625 31.78125 6.390625 
Q 38.8125 6.390625 42.859375 10.171875 
Q 46.921875 13.96875 46.921875 20.515625 
Q 46.921875 27.09375 42.890625 30.859375 
Q 38.875 34.625 31.78125 34.625 
z
M 21.921875 38.8125 
Q 15.578125 40.375 12.03125 44.71875 
Q 8.5 49.078125 8.5 55.328125 
Q 8.5 64.0625 14.71875 69.140625 
Q 20.953125 74.21875 31.78125 74.21875 
Q 42.671875 74.21875 48.875 69.140625 
Q 55.078125 64.0625 55.078125 55.328125 
Q 55.078125 49.078125 51.53125 44.71875 
Q 48 40.375 41.703125 38.8125 
Q 48.828125 37.15625 52.796875 32.3125 
Q 56.78125 27.484375 56.78125 20.515625 
Q 56.78125 9.90625 50.3125 4.234375 
Q 43.84375 -1.421875 31.78125 -1.421875 
Q 19.734375 -1.421875 13.25 4.234375 
Q 6.78125 9.90625 6.78125 20.515625 
Q 6.78125 27.484375 10.78125 32.3125 
Q 14.796875 37.15625 21.921875 38.8125 
z
M 18.3125 54.390625 
Q 18.3125 48.734375 21.84375 45.5625 
Q 25.390625 42.390625 31.78125 42.390625 
Q 38.140625 42.390625 41.71875 45.5625 
Q 45.3125 48.734375 45.3125 54.390625 
Q 45.3125 60.0625 41.71875 63.234375 
Q 38.140625 66.40625 31.78125 66.40625 
Q 25.390625 66.40625 21.84375 63.234375 
Q 18.3125 60.0625 18.3125 54.390625 
z
" id="DejaVuSans-56"/>
      </defs>
      <g style="fill:#ff0000;" transform="translate(43.28125 90.39822)scale(0.2 -0.2)">
       <use xlink:href="#DejaVuSans-56"/>
       <use x="63.623047" xlink:href="#DejaVuSans-48"/>
       <use x="127.246094" xlink:href="#DejaVuSans-48"/>
      </g>
     </g>
    </g>
    <g id="ytick_6">
     <g id="line2d_23">
      <path clip-path="url(#pe3ca2897ad)" d="M 88.45625 22.319728 
L 534.85625 22.319728 
" style="fill:none;stroke:#b0b0b0;stroke-linecap:square;stroke-width:0.8;"/>
     </g>
     <g id="line2d_24">
      <g>
       <use style="stroke:#000000;stroke-width:0.8;" x="88.45625" xlink:href="#m28347a3591" y="22.319728"/>
      </g>
     </g>
     <g id="text_13">
      <!-- 1000 -->
      <g style="fill:#ff0000;" transform="translate(30.55625 29.918165)scale(0.2 -0.2)">
       <use xlink:href="#DejaVuSans-49"/>
       <use x="63.623047" xlink:href="#DejaVuSans-48"/>
       <use x="127.246094" xlink:href="#DejaVuSans-48"/>
       <use x="190.869141" xlink:href="#DejaVuSans-48"/>
      </g>
     </g>
    </g>
    <g id="text_14">
     <!-- $\sigma$ [MPa] -->
     <defs>
      <path d="M 34.671875 47.5625 
Q 27.25 47.5625 22.21875 42.1875 
Q 16.890625 36.578125 15.140625 27.296875 
Q 13.1875 17.484375 16.3125 11.8125 
Q 19.390625 6.203125 26.65625 6.203125 
Q 33.84375 6.203125 39.109375 11.859375 
Q 44.4375 17.53125 46.34375 27.296875 
Q 48.046875 36.234375 45.015625 42.1875 
Q 42.1875 47.5625 34.671875 47.5625 
z
M 36.078125 54.734375 
L 65.921875 54.6875 
L 64.15625 45.703125 
L 54.109375 45.703125 
Q 57.90625 38.09375 55.859375 27.296875 
Q 53.21875 13.875 45.0625 6.25 
Q 36.859375 -1.421875 25.140625 -1.421875 
Q 13.375 -1.421875 8.203125 6.25 
Q 3.03125 13.875 5.671875 27.296875 
Q 8.25 40.765625 16.40625 48.390625 
Q 23.1875 54.734375 36.078125 54.734375 
z
" id="DejaVuSans-Oblique-963"/>
      <path d="M 9.8125 72.90625 
L 24.515625 72.90625 
L 43.109375 23.296875 
L 61.8125 72.90625 
L 76.515625 72.90625 
L 76.515625 0 
L 66.890625 0 
L 66.890625 64.015625 
L 48.09375 14.015625 
L 38.1875 14.015625 
L 19.390625 64.015625 
L 19.390625 0 
L 9.8125 0 
z
" id="DejaVuSans-77"/>
      <path d="M 19.671875 64.796875 
L 19.671875 37.40625 
L 32.078125 37.40625 
Q 38.96875 37.40625 42.71875 40.96875 
Q 46.484375 44.53125 46.484375 51.125 
Q 46.484375 57.671875 42.71875 61.234375 
Q 38.96875 64.796875 32.078125 64.796875 
z
M 9.8125 72.90625 
L 32.078125 72.90625 
Q 44.34375 72.90625 50.609375 67.359375 
Q 56.890625 61.8125 56.890625 51.125 
Q 56.890625 40.328125 50.609375 34.8125 
Q 44.34375 29.296875 32.078125 29.296875 
L 19.671875 29.296875 
L 19.671875 0 
L 9.8125 0 
z
" id="DejaVuSans-80"/>
      <path d="M 34.28125 27.484375 
Q 23.390625 27.484375 19.1875 25 
Q 14.984375 22.515625 14.984375 16.5 
Q 14.984375 11.71875 18.140625 8.90625 
Q 21.296875 6.109375 26.703125 6.109375 
Q 34.1875 6.109375 38.703125 11.40625 
Q 43.21875 16.703125 43.21875 25.484375 
L 43.21875 27.484375 
z
M 52.203125 31.203125 
L 52.203125 0 
L 43.21875 0 
L 43.21875 8.296875 
Q 40.140625 3.328125 35.546875 0.953125 
Q 30.953125 -1.421875 24.3125 -1.421875 
Q 15.921875 -1.421875 10.953125 3.296875 
Q 6 8.015625 6 15.921875 
Q 6 25.140625 12.171875 29.828125 
Q 18.359375 34.515625 30.609375 34.515625 
L 43.21875 34.515625 
L 43.21875 35.40625 
Q 43.21875 41.609375 39.140625 45 
Q 35.0625 48.390625 27.6875 48.390625 
Q 23 48.390625 18.546875 47.265625 
Q 14.109375 46.140625 10.015625 43.890625 
L 10.015625 52.203125 
Q 14.9375 54.109375 19.578125 55.046875 
Q 24.21875 56 28.609375 56 
Q 40.484375 56 46.34375 49.84375 
Q 52.203125 43.703125 52.203125 31.203125 
z
" id="DejaVuSans-97"/>
     </defs>
     <g style="fill:#ff0000;" transform="translate(22.396875 211.72)rotate(-90)scale(0.2 -0.2)">
      <use transform="translate(0 0.015625)" xlink:href="#DejaVuSans-Oblique-963"/>
      <use transform="translate(63.378906 0.015625)" xlink:href="#DejaVuSans-32"/>
      <use transform="translate(95.166016 0.015625)" xlink:href="#DejaVuSans-91"/>
      <use transform="translate(134.179688 0.015625)" xlink:href="#DejaVuSans-77"/>
      <use transform="translate(220.458984 0.015625)" xlink:href="#DejaVuSans-80"/>
      <use transform="translate(280.761719 0.015625)" xlink:href="#DejaVuSans-97"/>
      <use transform="translate(342.041016 0.015625)" xlink:href="#DejaVuSans-93"/>
     </g>
    </g>
   </g>
   <g id="line2d_25">
    <path clip-path="url(#pe3ca2897ad)" d="M 108.747159 324.72 
L 108.747167 22.32 
L 108.747175 22.320272 
L 108.747183 22.320544 
L 108.747192 22.320816 
L 108.7472 22.321089 
L 108.747208 22.321361 
L 108.747216 22.321633 
L 108.747224 22.321905 
L 108.747232 22.322177 
L 108.74724 22.322449 
L 116.863602 158.401211 
L 124.979964 226.440592 
L 133.096326 260.460282 
L 141.212688 277.470128 
L 149.32905 285.97505 
L 157.445412 290.227511 
L 165.561774 292.353742 
L 173.678136 293.416857 
L 181.794498 293.948415 
L 189.91086 294.214194 
L 189.91086 294.214194 
L 198.027222 294.347083 
L 206.143584 294.413528 
L 214.259946 294.44675 
L 222.376308 294.463362 
L 230.49267 294.471667 
L 238.609032 294.47582 
L 246.725394 294.477896 
L 254.841756 294.478935 
L 262.958119 294.479454 
L 271.074481 294.479713 
L 279.190843 294.479843 
L 287.307205 294.479908 
L 295.423567 294.47994 
L 303.539929 294.479957 
L 311.656291 294.479965 
L 319.772653 294.479969 
L 327.889015 294.479971 
L 336.005377 294.479972 
L 344.121739 294.479972 
L 352.238101 294.479973 
L 360.354463 294.479973 
L 368.470825 294.479973 
L 376.587187 294.479973 
L 384.703549 294.479973 
L 392.819911 294.479973 
L 400.936273 294.479973 
L 409.052635 294.479973 
L 417.168997 294.479973 
L 425.285359 294.479973 
L 433.401721 294.479973 
L 441.518083 294.479973 
L 449.634445 294.479973 
L 457.750807 294.479973 
L 465.867169 294.479973 
L 473.983531 294.479973 
L 482.099893 294.479973 
L 490.216255 294.479973 
L 498.332617 294.479973 
L 506.448979 294.479973 
L 514.565341 294.479973 
" style="fill:none;stroke:#ff0000;stroke-linecap:square;stroke-width:1.5;"/>
    <defs>
     <path d="M 0 5 
C 1.326016 5 2.597899 4.473168 3.535534 3.535534 
C 4.473168 2.597899 5 1.326016 5 0 
C 5 -1.326016 4.473168 -2.597899 3.535534 -3.535534 
C 2.597899 -4.473168 1.326016 -5 0 -5 
C -1.326016 -5 -2.597899 -4.473168 -3.535534 -3.535534 
C -4.473168 -2.597899 -5 -1.326016 -5 0 
C -5 1.326016 -4.473168 2.597899 -3.535534 3.535534 
C -2.597899 4.473168 -1.326016 5 0 5 
z
" id="m29a2483df5" style="stroke:#ff0000;"/>
    </defs>
    <g clip-path="url(#pe3ca2897ad)">
     <use style="fill:#ff0000;stroke:#ff0000;" x="108.747159" xlink:href="#m29a2483df5" y="324.72"/>
     <use style="fill:#ff0000;stroke:#ff0000;" x="108.747167" xlink:href="#m29a2483df5" y="22.32"/>
     <use style="fill:#ff0000;stroke:#ff0000;" x="108.747175" xlink:href="#m29a2483df5" y="22.320272"/>
     <use style="fill:#ff0000;stroke:#ff0000;" x="108.747183" xlink:href="#m29a2483df5" y="22.320544"/>
     <use style="fill:#ff0000;stroke:#ff0000;" x="108.747192" xlink:href="#m29a2483df5" y="22.320816"/>
     <use style="fill:#ff0000;stroke:#ff0000;" x="108.7472" xlink:href="#m29a2483df5" y="22.321089"/>
     <use style="fill:#ff0000;stroke:#ff0000;" x="108.747208" xlink:href="#m29a2483df5" y="22.321361"/>
     <use style="fill:#ff0000;stroke:#ff0000;" x="108.747216" xlink:href="#m29a2483df5" y="22.321633"/>
     <use style="fill:#ff0000;stroke:#ff0000;" x="108.747224" xlink:href="#m29a2483df5" y="22.321905"/>
     <use style="fill:#ff0000;stroke:#ff0000;" x="108.747232" xlink:href="#m29a2483df5" y="22.322177"/>
     <use style="fill:#ff0000;stroke:#ff0000;" x="108.74724" xlink:href="#m29a2483df5" y="22.322449"/>
     <use style="fill:#ff0000;stroke:#ff0000;" x="116.863602" xlink:href="#m29a2483df5" y="158.401211"/>
     <use style="fill:#ff0000;stroke:#ff0000;" x="124.979964" xlink:href="#m29a2483df5" y="226.440592"/>
     <use style="fill:#ff0000;stroke:#ff0000;" x="133.096326" xlink:href="#m29a2483df5" y="260.460282"/>
     <use style="fill:#ff0000;stroke:#ff0000;" x="141.212688" xlink:href="#m29a2483df5" y="277.470128"/>
     <use style="fill:#ff0000;stroke:#ff0000;" x="149.32905" xlink:href="#m29a2483df5" y="285.97505"/>
     <use style="fill:#ff0000;stroke:#ff0000;" x="157.445412" xlink:href="#m29a2483df5" y="290.227511"/>
     <use style="fill:#ff0000;stroke:#ff0000;" x="165.561774" xlink:href="#m29a2483df5" y="292.353742"/>
     <use style="fill:#ff0000;stroke:#ff0000;" x="173.678136" xlink:href="#m29a2483df5" y="293.416857"/>
     <use style="fill:#ff0000;stroke:#ff0000;" x="181.794498" xlink:href="#m29a2483df5" y="293.948415"/>
     <use style="fill:#ff0000;stroke:#ff0000;" x="189.91086" xlink:href="#m29a2483df5" y="294.214194"/>
     <use style="fill:#ff0000;stroke:#ff0000;" x="189.91086" xlink:href="#m29a2483df5" y="294.214194"/>
     <use style="fill:#ff0000;stroke:#ff0000;" x="198.027222" xlink:href="#m29a2483df5" y="294.347083"/>
     <use style="fill:#ff0000;stroke:#ff0000;" x="206.143584" xlink:href="#m29a2483df5" y="294.413528"/>
     <use style="fill:#ff0000;stroke:#ff0000;" x="214.259946" xlink:href="#m29a2483df5" y="294.44675"/>
     <use style="fill:#ff0000;stroke:#ff0000;" x="222.376308" xlink:href="#m29a2483df5" y="294.463362"/>
     <use style="fill:#ff0000;stroke:#ff0000;" x="230.49267" xlink:href="#m29a2483df5" y="294.471667"/>
     <use style="fill:#ff0000;stroke:#ff0000;" x="238.609032" xlink:href="#m29a2483df5" y="294.47582"/>
     <use style="fill:#ff0000;stroke:#ff0000;" x="246.725394" xlink:href="#m29a2483df5" y="294.477896"/>
     <use style="fill:#ff0000;stroke:#ff0000;" x="254.841756" xlink:href="#m29a2483df5" y="294.478935"/>
     <use style="fill:#ff0000;stroke:#ff0000;" x="262.958119" xlink:href="#m29a2483df5" y="294.479454"/>
     <use style="fill:#ff0000;stroke:#ff0000;" x="271.074481" xlink:href="#m29a2483df5" y="294.479713"/>
     <use style="fill:#ff0000;stroke:#ff0000;" x="279.190843" xlink:href="#m29a2483df5" y="294.479843"/>
     <use style="fill:#ff0000;stroke:#ff0000;" x="287.307205" xlink:href="#m29a2483df5" y="294.479908"/>
     <use style="fill:#ff0000;stroke:#ff0000;" x="295.423567" xlink:href="#m29a2483df5" y="294.47994"/>
     <use style="fill:#ff0000;stroke:#ff0000;" x="303.539929" xlink:href="#m29a2483df5" y="294.479957"/>
     <use style="fill:#ff0000;stroke:#ff0000;" x="311.656291" xlink:href="#m29a2483df5" y="294.479965"/>
     <use style="fill:#ff0000;stroke:#ff0000;" x="319.772653" xlink:href="#m29a2483df5" y="294.479969"/>
     <use style="fill:#ff0000;stroke:#ff0000;" x="327.889015" xlink:href="#m29a2483df5" y="294.479971"/>
     <use style="fill:#ff0000;stroke:#ff0000;" x="336.005377" xlink:href="#m29a2483df5" y="294.479972"/>
     <use style="fill:#ff0000;stroke:#ff0000;" x="344.121739" xlink:href="#m29a2483df5" y="294.479972"/>
     <use style="fill:#ff0000;stroke:#ff0000;" x="352.238101" xlink:href="#m29a2483df5" y="294.479973"/>
     <use style="fill:#ff0000;stroke:#ff0000;" x="360.354463" xlink:href="#m29a2483df5" y="294.479973"/>
     <use style="fill:#ff0000;stroke:#ff0000;" x="368.470825" xlink:href="#m29a2483df5" y="294.479973"/>
     <use style="fill:#ff0000;stroke:#ff0000;" x="376.587187" xlink:href="#m29a2483df5" y="294.479973"/>
     <use style="fill:#ff0000;stroke:#ff0000;" x="384.703549" xlink:href="#m29a2483df5" y="294.479973"/>
     <use style="fill:#ff0000;stroke:#ff0000;" x="392.819911" xlink:href="#m29a2483df5" y="294.479973"/>
     <use style="fill:#ff0000;stroke:#ff0000;" x="400.936273" xlink:href="#m29a2483df5" y="294.479973"/>
     <use style="fill:#ff0000;stroke:#ff0000;" x="409.052635" xlink:href="#m29a2483df5" y="294.479973"/>
     <use style="fill:#ff0000;stroke:#ff0000;" x="417.168997" xlink:href="#m29a2483df5" y="294.479973"/>
     <use style="fill:#ff0000;stroke:#ff0000;" x="425.285359" xlink:href="#m29a2483df5" y="294.479973"/>
     <use style="fill:#ff0000;stroke:#ff0000;" x="433.401721" xlink:href="#m29a2483df5" y="294.479973"/>
     <use style="fill:#ff0000;stroke:#ff0000;" x="441.518083" xlink:href="#m29a2483df5" y="294.479973"/>
     <use style="fill:#ff0000;stroke:#ff0000;" x="449.634445" xlink:href="#m29a2483df5" y="294.479973"/>
     <use style="fill:#ff0000;stroke:#ff0000;" x="457.750807" xlink:href="#m29a2483df5" y="294.479973"/>
     <use style="fill:#ff0000;stroke:#ff0000;" x="465.867169" xlink:href="#m29a2483df5" y="294.479973"/>
     <use style="fill:#ff0000;stroke:#ff0000;" x="473.983531" xlink:href="#m29a2483df5" y="294.479973"/>
     <use style="fill:#ff0000;stroke:#ff0000;" x="482.099893" xlink:href="#m29a2483df5" y="294.479973"/>
     <use style="fill:#ff0000;stroke:#ff0000;" x="490.216255" xlink:href="#m29a2483df5" y="294.479973"/>
     <use style="fill:#ff0000;stroke:#ff0000;" x="498.332617" xlink:href="#m29a2483df5" y="294.479973"/>
     <use style="fill:#ff0000;stroke:#ff0000;" x="506.448979" xlink:href="#m29a2483df5" y="294.479973"/>
     <use style="fill:#ff0000;stroke:#ff0000;" x="514.565341" xlink:href="#m29a2483df5" y="294.479973"/>
    </g>
   </g>
   <g id="patch_3">
    <path d="M 88.45625 339.84 
L 88.45625 7.2 
" style="fill:none;stroke:#000000;stroke-linecap:square;stroke-linejoin:miter;stroke-width:0.8;"/>
   </g>
   <g id="patch_4">
    <path d="M 534.85625 339.84 
L 534.85625 7.2 
" style="fill:none;stroke:#000000;stroke-linecap:square;stroke-linejoin:miter;stroke-width:0.8;"/>
   </g>
   <g id="patch_5">
    <path d="M 88.45625 339.84 
L 534.85625 339.84 
" style="fill:none;stroke:#000000;stroke-linecap:square;stroke-linejoin:miter;stroke-width:0.8;"/>
   </g>
   <g id="patch_6">
    <path d="M 88.45625 7.2 
L 534.85625 7.2 
" style="fill:none;stroke:#000000;stroke-linecap:square;stroke-linejoin:miter;stroke-width:0.8;"/>
   </g>
  </g>
 </g>
 <defs>
  <clipPath id="pe3ca2897ad">
   <rect height="332.64" width="446.4" x="88.45625" y="7.2"/>
  </clipPath>
 </defs>
</svg>
