<?xml version="1.0" encoding="utf-8" standalone="no"?>
<!DOCTYPE svg PUBLIC "-//W3C//DTD SVG 1.1//EN"
  "http://www.w3.org/Graphics/SVG/1.1/DTD/svg11.dtd">
<!-- Created with matplotlib (https://matplotlib.org/) -->
<svg height="396.7525pt" version="1.1" viewBox="0 0 542.05625 396.7525" width="542.05625pt" xmlns="http://www.w3.org/2000/svg" xmlns:xlink="http://www.w3.org/1999/xlink">
 <defs>
  <style type="text/css">
*{stroke-linecap:butt;stroke-linejoin:round;}
  </style>
 </defs>
 <g id="figure_1">
  <g id="patch_1">
   <path d="M 0 396.7525 
L 542.05625 396.7525 
L 542.05625 0 
L 0 0 
z
" style="fill:#ffffff;"/>
  </g>
  <g id="axes_1">
   <g id="patch_2">
    <path d="M 88.45625 339.84 
L 534.85625 339.84 
L 534.85625 7.2 
L 88.45625 7.2 
z
" style="fill:#ffffff;"/>
   </g>
   <g id="matplotlib.axis_1">
    <g id="xtick_1">
     <g id="line2d_1">
      <path clip-path="url(#pd412f0bb06)" d="M 108.747159 339.84 
L 108.747159 7.2 
" style="fill:none;stroke:#b0b0b0;stroke-linecap:square;stroke-width:0.8;"/>
     </g>
     <g id="line2d_2">
      <defs>
       <path d="M 0 0 
L 0 3.5 
" id="m55ba1f035f" style="stroke:#000000;stroke-width:0.8;"/>
      </defs>
      <g>
       <use style="stroke:#000000;stroke-width:0.8;" x="108.747159" xlink:href="#m55ba1f035f" y="339.84"/>
      </g>
     </g>
     <g id="text_1">
      <!-- 0.0 -->
      <defs>
       <path d="M 31.78125 66.40625 
Q 24.171875 66.40625 20.328125 58.90625 
Q 16.5 51.421875 16.5 36.375 
Q 16.5 21.390625 20.328125 13.890625 
Q 24.171875 6.390625 31.78125 6.390625 
Q 39.453125 6.390625 43.28125 13.890625 
Q 47.125 21.390625 47.125 36.375 
Q 47.125 51.421875 43.28125 58.90625 
Q 39.453125 66.40625 31.78125 66.40625 
z
M 31.78125 74.21875 
Q 44.046875 74.21875 50.515625 64.515625 
Q 56.984375 54.828125 56.984375 36.375 
Q 56.984375 17.96875 50.515625 8.265625 
Q 44.046875 -1.421875 31.78125 -1.421875 
Q 19.53125 -1.421875 13.0625 8.265625 
Q 6.59375 17.96875 6.59375 36.375 
Q 6.59375 54.828125 13.0625 64.515625 
Q 19.53125 74.21875 31.78125 74.21875 
z
" id="DejaVuSans-48"/>
       <path d="M 10.6875 12.40625 
L 21 12.40625 
L 21 0 
L 10.6875 0 
z
" id="DejaVuSans-46"/>
      </defs>
      <g transform="translate(92.844034 362.036875)scale(0.2 -0.2)">
       <use xlink:href="#DejaVuSans-48"/>
       <use x="63.623047" xlink:href="#DejaVuSans-46"/>
       <use x="95.410156" xlink:href="#DejaVuSans-48"/>
      </g>
     </g>
    </g>
    <g id="xtick_2">
     <g id="line2d_3">
      <path clip-path="url(#pd412f0bb06)" d="M 189.910795 339.84 
L 189.910795 7.2 
" style="fill:none;stroke:#b0b0b0;stroke-linecap:square;stroke-width:0.8;"/>
     </g>
     <g id="line2d_4">
      <g>
       <use style="stroke:#000000;stroke-width:0.8;" x="189.910795" xlink:href="#m55ba1f035f" y="339.84"/>
      </g>
     </g>
     <g id="text_2">
      <!-- 0.2 -->
      <defs>
       <path d="M 19.1875 8.296875 
L 53.609375 8.296875 
L 53.609375 0 
L 7.328125 0 
L 7.328125 8.296875 
Q 12.9375 14.109375 22.625 23.890625 
Q 32.328125 33.6875 34.8125 36.53125 
Q 39.546875 41.84375 41.421875 45.53125 
Q 43.3125 49.21875 43.3125 52.78125 
Q 43.3125 58.59375 39.234375 62.25 
Q 35.15625 65.921875 28.609375 65.921875 
Q 23.96875 65.921875 18.8125 64.3125 
Q 13.671875 62.703125 7.8125 59.421875 
L 7.8125 69.390625 
Q 13.765625 71.78125 18.9375 73 
Q 24.125 74.21875 28.421875 74.21875 
Q 39.75 74.21875 46.484375 68.546875 
Q 53.21875 62.890625 53.21875 53.421875 
Q 53.21875 48.921875 51.53125 44.890625 
Q 49.859375 40.875 45.40625 35.40625 
Q 44.1875 33.984375 37.640625 27.21875 
Q 31.109375 20.453125 19.1875 8.296875 
z
" id="DejaVuSans-50"/>
      </defs>
      <g transform="translate(174.00767 362.036875)scale(0.2 -0.2)">
       <use xlink:href="#DejaVuSans-48"/>
       <use x="63.623047" xlink:href="#DejaVuSans-46"/>
       <use x="95.410156" xlink:href="#DejaVuSans-50"/>
      </g>
     </g>
    </g>
    <g id="xtick_3">
     <g id="line2d_5">
      <path clip-path="url(#pd412f0bb06)" d="M 271.074432 339.84 
L 271.074432 7.2 
" style="fill:none;stroke:#b0b0b0;stroke-linecap:square;stroke-width:0.8;"/>
     </g>
     <g id="line2d_6">
      <g>
       <use style="stroke:#000000;stroke-width:0.8;" x="271.074432" xlink:href="#m55ba1f035f" y="339.84"/>
      </g>
     </g>
     <g id="text_3">
      <!-- 0.4 -->
      <defs>
       <path d="M 37.796875 64.3125 
L 12.890625 25.390625 
L 37.796875 25.390625 
z
M 35.203125 72.90625 
L 47.609375 72.90625 
L 47.609375 25.390625 
L 58.015625 25.390625 
L 58.015625 17.1875 
L 47.609375 17.1875 
L 47.609375 0 
L 37.796875 0 
L 37.796875 17.1875 
L 4.890625 17.1875 
L 4.890625 26.703125 
z
" id="DejaVuSans-52"/>
      </defs>
      <g transform="translate(255.171307 362.036875)scale(0.2 -0.2)">
       <use xlink:href="#DejaVuSans-48"/>
       <use x="63.623047" xlink:href="#DejaVuSans-46"/>
       <use x="95.410156" xlink:href="#DejaVuSans-52"/>
      </g>
     </g>
    </g>
    <g id="xtick_4">
     <g id="line2d_7">
      <path clip-path="url(#pd412f0bb06)" d="M 352.238068 339.84 
L 352.238068 7.2 
" style="fill:none;stroke:#b0b0b0;stroke-linecap:square;stroke-width:0.8;"/>
     </g>
     <g id="line2d_8">
      <g>
       <use style="stroke:#000000;stroke-width:0.8;" x="352.238068" xlink:href="#m55ba1f035f" y="339.84"/>
      </g>
     </g>
     <g id="text_4">
      <!-- 0.6 -->
      <defs>
       <path d="M 33.015625 40.375 
Q 26.375 40.375 22.484375 35.828125 
Q 18.609375 31.296875 18.609375 23.390625 
Q 18.609375 15.53125 22.484375 10.953125 
Q 26.375 6.390625 33.015625 6.390625 
Q 39.65625 6.390625 43.53125 10.953125 
Q 47.40625 15.53125 47.40625 23.390625 
Q 47.40625 31.296875 43.53125 35.828125 
Q 39.65625 40.375 33.015625 40.375 
z
M 52.59375 71.296875 
L 52.59375 62.3125 
Q 48.875 64.0625 45.09375 64.984375 
Q 41.3125 65.921875 37.59375 65.921875 
Q 27.828125 65.921875 22.671875 59.328125 
Q 17.53125 52.734375 16.796875 39.40625 
Q 19.671875 43.65625 24.015625 45.921875 
Q 28.375 48.1875 33.59375 48.1875 
Q 44.578125 48.1875 50.953125 41.515625 
Q 57.328125 34.859375 57.328125 23.390625 
Q 57.328125 12.15625 50.6875 5.359375 
Q 44.046875 -1.421875 33.015625 -1.421875 
Q 20.359375 -1.421875 13.671875 8.265625 
Q 6.984375 17.96875 6.984375 36.375 
Q 6.984375 53.65625 15.1875 63.9375 
Q 23.390625 74.21875 37.203125 74.21875 
Q 40.921875 74.21875 44.703125 73.484375 
Q 48.484375 72.75 52.59375 71.296875 
z
" id="DejaVuSans-54"/>
      </defs>
      <g transform="translate(336.334943 362.036875)scale(0.2 -0.2)">
       <use xlink:href="#DejaVuSans-48"/>
       <use x="63.623047" xlink:href="#DejaVuSans-46"/>
       <use x="95.410156" xlink:href="#DejaVuSans-54"/>
      </g>
     </g>
    </g>
    <g id="xtick_5">
     <g id="line2d_9">
      <path clip-path="url(#pd412f0bb06)" d="M 433.401705 339.84 
L 433.401705 7.2 
" style="fill:none;stroke:#b0b0b0;stroke-linecap:square;stroke-width:0.8;"/>
     </g>
     <g id="line2d_10">
      <g>
       <use style="stroke:#000000;stroke-width:0.8;" x="433.401705" xlink:href="#m55ba1f035f" y="339.84"/>
      </g>
     </g>
     <g id="text_5">
      <!-- 0.8 -->
      <defs>
       <path d="M 31.78125 34.625 
Q 24.75 34.625 20.71875 30.859375 
Q 16.703125 27.09375 16.703125 20.515625 
Q 16.703125 13.921875 20.71875 10.15625 
Q 24.75 6.390625 31.78125 6.390625 
Q 38.8125 6.390625 42.859375 10.171875 
Q 46.921875 13.96875 46.921875 20.515625 
Q 46.921875 27.09375 42.890625 30.859375 
Q 38.875 34.625 31.78125 34.625 
z
M 21.921875 38.8125 
Q 15.578125 40.375 12.03125 44.71875 
Q 8.5 49.078125 8.5 55.328125 
Q 8.5 64.0625 14.71875 69.140625 
Q 20.953125 74.21875 31.78125 74.21875 
Q 42.671875 74.21875 48.875 69.140625 
Q 55.078125 64.0625 55.078125 55.328125 
Q 55.078125 49.078125 51.53125 44.71875 
Q 48 40.375 41.703125 38.8125 
Q 48.828125 37.15625 52.796875 32.3125 
Q 56.78125 27.484375 56.78125 20.515625 
Q 56.78125 9.90625 50.3125 4.234375 
Q 43.84375 -1.421875 31.78125 -1.421875 
Q 19.734375 -1.421875 13.25 4.234375 
Q 6.78125 9.90625 6.78125 20.515625 
Q 6.78125 27.484375 10.78125 32.3125 
Q 14.796875 37.15625 21.921875 38.8125 
z
M 18.3125 54.390625 
Q 18.3125 48.734375 21.84375 45.5625 
Q 25.390625 42.390625 31.78125 42.390625 
Q 38.140625 42.390625 41.71875 45.5625 
Q 45.3125 48.734375 45.3125 54.390625 
Q 45.3125 60.0625 41.71875 63.234375 
Q 38.140625 66.40625 31.78125 66.40625 
Q 25.390625 66.40625 21.84375 63.234375 
Q 18.3125 60.0625 18.3125 54.390625 
z
" id="DejaVuSans-56"/>
      </defs>
      <g transform="translate(417.49858 362.036875)scale(0.2 -0.2)">
       <use xlink:href="#DejaVuSans-48"/>
       <use x="63.623047" xlink:href="#DejaVuSans-46"/>
       <use x="95.410156" xlink:href="#DejaVuSans-56"/>
      </g>
     </g>
    </g>
    <g id="xtick_6">
     <g id="line2d_11">
      <path clip-path="url(#pd412f0bb06)" d="M 514.565341 339.84 
L 514.565341 7.2 
" style="fill:none;stroke:#b0b0b0;stroke-linecap:square;stroke-width:0.8;"/>
     </g>
     <g id="line2d_12">
      <g>
       <use style="stroke:#000000;stroke-width:0.8;" x="514.565341" xlink:href="#m55ba1f035f" y="339.84"/>
      </g>
     </g>
     <g id="text_6">
      <!-- 1.0 -->
      <defs>
       <path d="M 12.40625 8.296875 
L 28.515625 8.296875 
L 28.515625 63.921875 
L 10.984375 60.40625 
L 10.984375 69.390625 
L 28.421875 72.90625 
L 38.28125 72.90625 
L 38.28125 8.296875 
L 54.390625 8.296875 
L 54.390625 0 
L 12.40625 0 
z
" id="DejaVuSans-49"/>
      </defs>
      <g transform="translate(498.662216 362.036875)scale(0.2 -0.2)">
       <use xlink:href="#DejaVuSans-49"/>
       <use x="63.623047" xlink:href="#DejaVuSans-46"/>
       <use x="95.410156" xlink:href="#DejaVuSans-48"/>
      </g>
     </g>
    </g>
    <g id="text_7">
     <!-- $u$ [mm] -->
     <defs>
      <path d="M 6.6875 21.6875 
L 13.09375 54.6875 
L 22.125 54.6875 
L 15.71875 22.015625 
Q 15.234375 19.625 15.015625 17.921875 
Q 14.796875 16.21875 14.796875 15.09375 
Q 14.796875 10.9375 17.328125 8.65625 
Q 19.875 6.390625 24.515625 6.390625 
Q 31.734375 6.390625 37 11.265625 
Q 42.28125 16.15625 43.890625 24.421875 
L 49.90625 54.6875 
L 58.890625 54.6875 
L 48.296875 0 
L 39.3125 0 
L 41.109375 8.59375 
Q 37.3125 3.8125 32.0625 1.1875 
Q 26.8125 -1.421875 20.90625 -1.421875 
Q 13.71875 -1.421875 9.71875 2.515625 
Q 5.71875 6.453125 5.71875 13.484375 
Q 5.71875 14.9375 5.953125 17.140625 
Q 6.203125 19.34375 6.6875 21.6875 
z
" id="DejaVuSans-Oblique-117"/>
      <path id="DejaVuSans-32"/>
      <path d="M 8.59375 75.984375 
L 29.296875 75.984375 
L 29.296875 69 
L 17.578125 69 
L 17.578125 -6.203125 
L 29.296875 -6.203125 
L 29.296875 -13.1875 
L 8.59375 -13.1875 
z
" id="DejaVuSans-91"/>
      <path d="M 52 44.1875 
Q 55.375 50.25 60.0625 53.125 
Q 64.75 56 71.09375 56 
Q 79.640625 56 84.28125 50.015625 
Q 88.921875 44.046875 88.921875 33.015625 
L 88.921875 0 
L 79.890625 0 
L 79.890625 32.71875 
Q 79.890625 40.578125 77.09375 44.375 
Q 74.3125 48.1875 68.609375 48.1875 
Q 61.625 48.1875 57.5625 43.546875 
Q 53.515625 38.921875 53.515625 30.90625 
L 53.515625 0 
L 44.484375 0 
L 44.484375 32.71875 
Q 44.484375 40.625 41.703125 44.40625 
Q 38.921875 48.1875 33.109375 48.1875 
Q 26.21875 48.1875 22.15625 43.53125 
Q 18.109375 38.875 18.109375 30.90625 
L 18.109375 0 
L 9.078125 0 
L 9.078125 54.6875 
L 18.109375 54.6875 
L 18.109375 46.1875 
Q 21.1875 51.21875 25.484375 53.609375 
Q 29.78125 56 35.6875 56 
Q 41.65625 56 45.828125 52.96875 
Q 50 49.953125 52 44.1875 
z
" id="DejaVuSans-109"/>
      <path d="M 30.421875 75.984375 
L 30.421875 -13.1875 
L 9.71875 -13.1875 
L 9.71875 -6.203125 
L 21.390625 -6.203125 
L 21.390625 69 
L 9.71875 69 
L 9.71875 75.984375 
z
" id="DejaVuSans-93"/>
     </defs>
     <g transform="translate(274.75625 385.393125)scale(0.2 -0.2)">
      <use transform="translate(0 0.015625)" xlink:href="#DejaVuSans-Oblique-117"/>
      <use transform="translate(63.378906 0.015625)" xlink:href="#DejaVuSans-32"/>
      <use transform="translate(95.166016 0.015625)" xlink:href="#DejaVuSans-91"/>
      <use transform="translate(134.179688 0.015625)" xlink:href="#DejaVuSans-109"/>
      <use transform="translate(231.591797 0.015625)" xlink:href="#DejaVuSans-109"/>
      <use transform="translate(329.003906 0.015625)" xlink:href="#DejaVuSans-93"/>
     </g>
    </g>
   </g>
   <g id="matplotlib.axis_2">
    <g id="ytick_1">
     <g id="line2d_13">
      <path clip-path="url(#pd412f0bb06)" d="M 88.45625 324.72 
L 534.85625 324.72 
" style="fill:none;stroke:#b0b0b0;stroke-linecap:square;stroke-width:0.8;"/>
     </g>
     <g id="line2d_14">
      <defs>
       <path d="M 0 0 
L -3.5 0 
" id="m58561eea90" style="stroke:#000000;stroke-width:0.8;"/>
      </defs>
      <g>
       <use style="stroke:#000000;stroke-width:0.8;" x="88.45625" xlink:href="#m58561eea90" y="324.72"/>
      </g>
     </g>
     <g id="text_8">
      <!-- 0 -->
      <g transform="translate(68.73125 332.318438)scale(0.2 -0.2)">
       <use xlink:href="#DejaVuSans-48"/>
      </g>
     </g>
    </g>
    <g id="ytick_2">
     <g id="line2d_15">
      <path clip-path="url(#pd412f0bb06)" d="M 88.45625 264.239946 
L 534.85625 264.239946 
" style="fill:none;stroke:#b0b0b0;stroke-linecap:square;stroke-width:0.8;"/>
     </g>
     <g id="line2d_16">
      <g>
       <use style="stroke:#000000;stroke-width:0.8;" x="88.45625" xlink:href="#m58561eea90" y="264.239946"/>
      </g>
     </g>
     <g id="text_9">
      <!-- 200 -->
      <g transform="translate(43.28125 271.838383)scale(0.2 -0.2)">
       <use xlink:href="#DejaVuSans-50"/>
       <use x="63.623047" xlink:href="#DejaVuSans-48"/>
       <use x="127.246094" xlink:href="#DejaVuSans-48"/>
      </g>
     </g>
    </g>
    <g id="ytick_3">
     <g id="line2d_17">
      <path clip-path="url(#pd412f0bb06)" d="M 88.45625 203.759891 
L 534.85625 203.759891 
" style="fill:none;stroke:#b0b0b0;stroke-linecap:square;stroke-width:0.8;"/>
     </g>
     <g id="line2d_18">
      <g>
       <use style="stroke:#000000;stroke-width:0.8;" x="88.45625" xlink:href="#m58561eea90" y="203.759891"/>
      </g>
     </g>
     <g id="text_10">
      <!-- 400 -->
      <g transform="translate(43.28125 211.358329)scale(0.2 -0.2)">
       <use xlink:href="#DejaVuSans-52"/>
       <use x="63.623047" xlink:href="#DejaVuSans-48"/>
       <use x="127.246094" xlink:href="#DejaVuSans-48"/>
      </g>
     </g>
    </g>
    <g id="ytick_4">
     <g id="line2d_19">
      <path clip-path="url(#pd412f0bb06)" d="M 88.45625 143.279837 
L 534.85625 143.279837 
" style="fill:none;stroke:#b0b0b0;stroke-linecap:square;stroke-width:0.8;"/>
     </g>
     <g id="line2d_20">
      <g>
       <use style="stroke:#000000;stroke-width:0.8;" x="88.45625" xlink:href="#m58561eea90" y="143.279837"/>
      </g>
     </g>
     <g id="text_11">
      <!-- 600 -->
      <g transform="translate(43.28125 150.878274)scale(0.2 -0.2)">
       <use xlink:href="#DejaVuSans-54"/>
       <use x="63.623047" xlink:href="#DejaVuSans-48"/>
       <use x="127.246094" xlink:href="#DejaVuSans-48"/>
      </g>
     </g>
    </g>
    <g id="ytick_5">
     <g id="line2d_21">
      <path clip-path="url(#pd412f0bb06)" d="M 88.45625 82.799782 
L 534.85625 82.799782 
" style="fill:none;stroke:#b0b0b0;stroke-linecap:square;stroke-width:0.8;"/>
     </g>
     <g id="line2d_22">
      <g>
       <use style="stroke:#000000;stroke-width:0.8;" x="88.45625" xlink:href="#m58561eea90" y="82.799782"/>
      </g>
     </g>
     <g id="text_12">
      <!-- 800 -->
      <g transform="translate(43.28125 90.39822)scale(0.2 -0.2)">
       <use xlink:href="#DejaVuSans-56"/>
       <use x="63.623047" xlink:href="#DejaVuSans-48"/>
       <use x="127.246094" xlink:href="#DejaVuSans-48"/>
      </g>
     </g>
    </g>
    <g id="ytick_6">
     <g id="line2d_23">
      <path clip-path="url(#pd412f0bb06)" d="M 88.45625 22.319728 
L 534.85625 22.319728 
" style="fill:none;stroke:#b0b0b0;stroke-linecap:square;stroke-width:0.8;"/>
     </g>
     <g id="line2d_24">
      <g>
       <use style="stroke:#000000;stroke-width:0.8;" x="88.45625" xlink:href="#m58561eea90" y="22.319728"/>
      </g>
     </g>
     <g id="text_13">
      <!-- 1000 -->
      <g transform="translate(30.55625 29.918165)scale(0.2 -0.2)">
       <use xlink:href="#DejaVuSans-49"/>
       <use x="63.623047" xlink:href="#DejaVuSans-48"/>
       <use x="127.246094" xlink:href="#DejaVuSans-48"/>
       <use x="190.869141" xlink:href="#DejaVuSans-48"/>
      </g>
     </g>
    </g>
    <g id="text_14">
     <!-- $\sigma$ [kPa] -->
     <defs>
      <path d="M 34.671875 47.5625 
Q 27.25 47.5625 22.21875 42.1875 
Q 16.890625 36.578125 15.140625 27.296875 
Q 13.1875 17.484375 16.3125 11.8125 
Q 19.390625 6.203125 26.65625 6.203125 
Q 33.84375 6.203125 39.109375 11.859375 
Q 44.4375 17.53125 46.34375 27.296875 
Q 48.046875 36.234375 45.015625 42.1875 
Q 42.1875 47.5625 34.671875 47.5625 
z
M 36.078125 54.734375 
L 65.921875 54.6875 
L 64.15625 45.703125 
L 54.109375 45.703125 
Q 57.90625 38.09375 55.859375 27.296875 
Q 53.21875 13.875 45.0625 6.25 
Q 36.859375 -1.421875 25.140625 -1.421875 
Q 13.375 -1.421875 8.203125 6.25 
Q 3.03125 13.875 5.671875 27.296875 
Q 8.25 40.765625 16.40625 48.390625 
Q 23.1875 54.734375 36.078125 54.734375 
z
" id="DejaVuSans-Oblique-963"/>
      <path d="M 9.078125 75.984375 
L 18.109375 75.984375 
L 18.109375 31.109375 
L 44.921875 54.6875 
L 56.390625 54.6875 
L 27.390625 29.109375 
L 57.625 0 
L 45.90625 0 
L 18.109375 26.703125 
L 18.109375 0 
L 9.078125 0 
z
" id="DejaVuSans-107"/>
      <path d="M 19.671875 64.796875 
L 19.671875 37.40625 
L 32.078125 37.40625 
Q 38.96875 37.40625 42.71875 40.96875 
Q 46.484375 44.53125 46.484375 51.125 
Q 46.484375 57.671875 42.71875 61.234375 
Q 38.96875 64.796875 32.078125 64.796875 
z
M 9.8125 72.90625 
L 32.078125 72.90625 
Q 44.34375 72.90625 50.609375 67.359375 
Q 56.890625 61.8125 56.890625 51.125 
Q 56.890625 40.328125 50.609375 34.8125 
Q 44.34375 29.296875 32.078125 29.296875 
L 19.671875 29.296875 
L 19.671875 0 
L 9.8125 0 
z
" id="DejaVuSans-80"/>
      <path d="M 34.28125 27.484375 
Q 23.390625 27.484375 19.1875 25 
Q 14.984375 22.515625 14.984375 16.5 
Q 14.984375 11.71875 18.140625 8.90625 
Q 21.296875 6.109375 26.703125 6.109375 
Q 34.1875 6.109375 38.703125 11.40625 
Q 43.21875 16.703125 43.21875 25.484375 
L 43.21875 27.484375 
z
M 52.203125 31.203125 
L 52.203125 0 
L 43.21875 0 
L 43.21875 8.296875 
Q 40.140625 3.328125 35.546875 0.953125 
Q 30.953125 -1.421875 24.3125 -1.421875 
Q 15.921875 -1.421875 10.953125 3.296875 
Q 6 8.015625 6 15.921875 
Q 6 25.140625 12.171875 29.828125 
Q 18.359375 34.515625 30.609375 34.515625 
L 43.21875 34.515625 
L 43.21875 35.40625 
Q 43.21875 41.609375 39.140625 45 
Q 35.0625 48.390625 27.6875 48.390625 
Q 23 48.390625 18.546875 47.265625 
Q 14.109375 46.140625 10.015625 43.890625 
L 10.015625 52.203125 
Q 14.9375 54.109375 19.578125 55.046875 
Q 24.21875 56 28.609375 56 
Q 40.484375 56 46.34375 49.84375 
Q 52.203125 43.703125 52.203125 31.203125 
z
" id="DejaVuSans-97"/>
     </defs>
     <g transform="translate(22.396875 208.82)rotate(-90)scale(0.2 -0.2)">
      <use transform="translate(0 0.015625)" xlink:href="#DejaVuSans-Oblique-963"/>
      <use transform="translate(63.378906 0.015625)" xlink:href="#DejaVuSans-32"/>
      <use transform="translate(95.166016 0.015625)" xlink:href="#DejaVuSans-91"/>
      <use transform="translate(134.179688 0.015625)" xlink:href="#DejaVuSans-107"/>
      <use transform="translate(192.089844 0.015625)" xlink:href="#DejaVuSans-80"/>
      <use transform="translate(252.392578 0.015625)" xlink:href="#DejaVuSans-97"/>
      <use transform="translate(313.671875 0.015625)" xlink:href="#DejaVuSans-93"/>
     </g>
    </g>
   </g>
   <g id="line2d_25">
    <path clip-path="url(#pd412f0bb06)" d="M 108.747159 324.72 
L 514.565341 22.32 
L 514.565341 22.32 
L 514.565341 22.32 
L 514.565341 22.32 
L 514.565341 22.32 
L 514.565341 22.32 
L 514.565341 22.32 
L 514.565341 22.32 
L 514.565341 22.32 
L 514.565341 22.32 
L 514.565341 240.3879 
L 514.565341 240.3879 
L 514.565341 240.3879 
L 514.565341 240.3879 
L 514.565341 240.3879 
L 514.565341 240.3879 
L 514.565341 240.3879 
L 514.565341 240.3879 
L 514.565341 240.3879 
L 514.565341 240.3879 
L 514.565341 240.3879 
L 514.565341 240.3879 
L 514.565341 240.3879 
L 514.565341 240.3879 
L 514.565341 240.3879 
L 514.565341 240.3879 
L 514.565341 240.3879 
L 514.565341 240.3879 
L 514.565341 240.3879 
L 514.565341 240.3879 
L 514.565341 240.3879 
L 514.565341 240.3879 
L 514.565341 240.3879 
L 514.565341 240.3879 
L 514.565341 240.3879 
L 514.565341 240.3879 
L 514.565341 240.3879 
L 514.565341 240.3879 
L 514.565341 240.3879 
L 514.565341 240.3879 
L 514.565341 240.3879 
L 514.565341 240.3879 
L 514.565341 240.3879 
L 514.565341 240.3879 
L 514.565341 240.3879 
L 514.565341 240.3879 
L 514.565341 240.3879 
L 514.565341 240.3879 
L 514.565341 240.3879 
L 514.565341 240.3879 
L 514.565341 240.3879 
L 514.565341 240.3879 
L 514.565341 240.3879 
L 514.565341 240.3879 
L 514.565341 240.3879 
L 514.565341 240.3879 
L 514.565341 240.3879 
L 514.565341 240.3879 
L 514.565341 240.3879 
L 514.565341 240.3879 
L 514.565341 240.3879 
" style="fill:none;stroke:#008000;stroke-dasharray:5.55,2.4;stroke-dashoffset:0;stroke-width:1.5;"/>
    <defs>
     <path d="M -5 5 
L 5 5 
L 5 -5 
L -5 -5 
z
" id="m4b70ce2680" style="stroke:#008000;stroke-linejoin:miter;"/>
    </defs>
    <g clip-path="url(#pd412f0bb06)">
     <use style="fill:#008000;stroke:#008000;stroke-linejoin:miter;" x="108.747159" xlink:href="#m4b70ce2680" y="324.72"/>
     <use style="fill:#008000;stroke:#008000;stroke-linejoin:miter;" x="514.565341" xlink:href="#m4b70ce2680" y="22.32"/>
     <use style="fill:#008000;stroke:#008000;stroke-linejoin:miter;" x="514.565341" xlink:href="#m4b70ce2680" y="22.32"/>
     <use style="fill:#008000;stroke:#008000;stroke-linejoin:miter;" x="514.565341" xlink:href="#m4b70ce2680" y="22.32"/>
     <use style="fill:#008000;stroke:#008000;stroke-linejoin:miter;" x="514.565341" xlink:href="#m4b70ce2680" y="22.32"/>
     <use style="fill:#008000;stroke:#008000;stroke-linejoin:miter;" x="514.565341" xlink:href="#m4b70ce2680" y="22.32"/>
     <use style="fill:#008000;stroke:#008000;stroke-linejoin:miter;" x="514.565341" xlink:href="#m4b70ce2680" y="22.32"/>
     <use style="fill:#008000;stroke:#008000;stroke-linejoin:miter;" x="514.565341" xlink:href="#m4b70ce2680" y="22.32"/>
     <use style="fill:#008000;stroke:#008000;stroke-linejoin:miter;" x="514.565341" xlink:href="#m4b70ce2680" y="22.32"/>
     <use style="fill:#008000;stroke:#008000;stroke-linejoin:miter;" x="514.565341" xlink:href="#m4b70ce2680" y="22.32"/>
     <use style="fill:#008000;stroke:#008000;stroke-linejoin:miter;" x="514.565341" xlink:href="#m4b70ce2680" y="22.32"/>
     <use style="fill:#008000;stroke:#008000;stroke-linejoin:miter;" x="514.565341" xlink:href="#m4b70ce2680" y="240.3879"/>
     <use style="fill:#008000;stroke:#008000;stroke-linejoin:miter;" x="514.565341" xlink:href="#m4b70ce2680" y="240.3879"/>
     <use style="fill:#008000;stroke:#008000;stroke-linejoin:miter;" x="514.565341" xlink:href="#m4b70ce2680" y="240.3879"/>
     <use style="fill:#008000;stroke:#008000;stroke-linejoin:miter;" x="514.565341" xlink:href="#m4b70ce2680" y="240.3879"/>
     <use style="fill:#008000;stroke:#008000;stroke-linejoin:miter;" x="514.565341" xlink:href="#m4b70ce2680" y="240.3879"/>
     <use style="fill:#008000;stroke:#008000;stroke-linejoin:miter;" x="514.565341" xlink:href="#m4b70ce2680" y="240.3879"/>
     <use style="fill:#008000;stroke:#008000;stroke-linejoin:miter;" x="514.565341" xlink:href="#m4b70ce2680" y="240.3879"/>
     <use style="fill:#008000;stroke:#008000;stroke-linejoin:miter;" x="514.565341" xlink:href="#m4b70ce2680" y="240.3879"/>
     <use style="fill:#008000;stroke:#008000;stroke-linejoin:miter;" x="514.565341" xlink:href="#m4b70ce2680" y="240.3879"/>
     <use style="fill:#008000;stroke:#008000;stroke-linejoin:miter;" x="514.565341" xlink:href="#m4b70ce2680" y="240.3879"/>
     <use style="fill:#008000;stroke:#008000;stroke-linejoin:miter;" x="514.565341" xlink:href="#m4b70ce2680" y="240.3879"/>
     <use style="fill:#008000;stroke:#008000;stroke-linejoin:miter;" x="514.565341" xlink:href="#m4b70ce2680" y="240.3879"/>
     <use style="fill:#008000;stroke:#008000;stroke-linejoin:miter;" x="514.565341" xlink:href="#m4b70ce2680" y="240.3879"/>
     <use style="fill:#008000;stroke:#008000;stroke-linejoin:miter;" x="514.565341" xlink:href="#m4b70ce2680" y="240.3879"/>
     <use style="fill:#008000;stroke:#008000;stroke-linejoin:miter;" x="514.565341" xlink:href="#m4b70ce2680" y="240.3879"/>
     <use style="fill:#008000;stroke:#008000;stroke-linejoin:miter;" x="514.565341" xlink:href="#m4b70ce2680" y="240.3879"/>
     <use style="fill:#008000;stroke:#008000;stroke-linejoin:miter;" x="514.565341" xlink:href="#m4b70ce2680" y="240.3879"/>
     <use style="fill:#008000;stroke:#008000;stroke-linejoin:miter;" x="514.565341" xlink:href="#m4b70ce2680" y="240.3879"/>
     <use style="fill:#008000;stroke:#008000;stroke-linejoin:miter;" x="514.565341" xlink:href="#m4b70ce2680" y="240.3879"/>
     <use style="fill:#008000;stroke:#008000;stroke-linejoin:miter;" x="514.565341" xlink:href="#m4b70ce2680" y="240.3879"/>
     <use style="fill:#008000;stroke:#008000;stroke-linejoin:miter;" x="514.565341" xlink:href="#m4b70ce2680" y="240.3879"/>
     <use style="fill:#008000;stroke:#008000;stroke-linejoin:miter;" x="514.565341" xlink:href="#m4b70ce2680" y="240.3879"/>
     <use style="fill:#008000;stroke:#008000;stroke-linejoin:miter;" x="514.565341" xlink:href="#m4b70ce2680" y="240.3879"/>
     <use style="fill:#008000;stroke:#008000;stroke-linejoin:miter;" x="514.565341" xlink:href="#m4b70ce2680" y="240.3879"/>
     <use style="fill:#008000;stroke:#008000;stroke-linejoin:miter;" x="514.565341" xlink:href="#m4b70ce2680" y="240.3879"/>
     <use style="fill:#008000;stroke:#008000;stroke-linejoin:miter;" x="514.565341" xlink:href="#m4b70ce2680" y="240.3879"/>
     <use style="fill:#008000;stroke:#008000;stroke-linejoin:miter;" x="514.565341" xlink:href="#m4b70ce2680" y="240.3879"/>
     <use style="fill:#008000;stroke:#008000;stroke-linejoin:miter;" x="514.565341" xlink:href="#m4b70ce2680" y="240.3879"/>
     <use style="fill:#008000;stroke:#008000;stroke-linejoin:miter;" x="514.565341" xlink:href="#m4b70ce2680" y="240.3879"/>
     <use style="fill:#008000;stroke:#008000;stroke-linejoin:miter;" x="514.565341" xlink:href="#m4b70ce2680" y="240.3879"/>
     <use style="fill:#008000;stroke:#008000;stroke-linejoin:miter;" x="514.565341" xlink:href="#m4b70ce2680" y="240.3879"/>
     <use style="fill:#008000;stroke:#008000;stroke-linejoin:miter;" x="514.565341" xlink:href="#m4b70ce2680" y="240.3879"/>
     <use style="fill:#008000;stroke:#008000;stroke-linejoin:miter;" x="514.565341" xlink:href="#m4b70ce2680" y="240.3879"/>
     <use style="fill:#008000;stroke:#008000;stroke-linejoin:miter;" x="514.565341" xlink:href="#m4b70ce2680" y="240.3879"/>
     <use style="fill:#008000;stroke:#008000;stroke-linejoin:miter;" x="514.565341" xlink:href="#m4b70ce2680" y="240.3879"/>
     <use style="fill:#008000;stroke:#008000;stroke-linejoin:miter;" x="514.565341" xlink:href="#m4b70ce2680" y="240.3879"/>
     <use style="fill:#008000;stroke:#008000;stroke-linejoin:miter;" x="514.565341" xlink:href="#m4b70ce2680" y="240.3879"/>
     <use style="fill:#008000;stroke:#008000;stroke-linejoin:miter;" x="514.565341" xlink:href="#m4b70ce2680" y="240.3879"/>
     <use style="fill:#008000;stroke:#008000;stroke-linejoin:miter;" x="514.565341" xlink:href="#m4b70ce2680" y="240.3879"/>
     <use style="fill:#008000;stroke:#008000;stroke-linejoin:miter;" x="514.565341" xlink:href="#m4b70ce2680" y="240.3879"/>
     <use style="fill:#008000;stroke:#008000;stroke-linejoin:miter;" x="514.565341" xlink:href="#m4b70ce2680" y="240.3879"/>
     <use style="fill:#008000;stroke:#008000;stroke-linejoin:miter;" x="514.565341" xlink:href="#m4b70ce2680" y="240.3879"/>
     <use style="fill:#008000;stroke:#008000;stroke-linejoin:miter;" x="514.565341" xlink:href="#m4b70ce2680" y="240.3879"/>
     <use style="fill:#008000;stroke:#008000;stroke-linejoin:miter;" x="514.565341" xlink:href="#m4b70ce2680" y="240.3879"/>
     <use style="fill:#008000;stroke:#008000;stroke-linejoin:miter;" x="514.565341" xlink:href="#m4b70ce2680" y="240.3879"/>
     <use style="fill:#008000;stroke:#008000;stroke-linejoin:miter;" x="514.565341" xlink:href="#m4b70ce2680" y="240.3879"/>
     <use style="fill:#008000;stroke:#008000;stroke-linejoin:miter;" x="514.565341" xlink:href="#m4b70ce2680" y="240.3879"/>
     <use style="fill:#008000;stroke:#008000;stroke-linejoin:miter;" x="514.565341" xlink:href="#m4b70ce2680" y="240.3879"/>
     <use style="fill:#008000;stroke:#008000;stroke-linejoin:miter;" x="514.565341" xlink:href="#m4b70ce2680" y="240.3879"/>
     <use style="fill:#008000;stroke:#008000;stroke-linejoin:miter;" x="514.565341" xlink:href="#m4b70ce2680" y="240.3879"/>
     <use style="fill:#008000;stroke:#008000;stroke-linejoin:miter;" x="514.565341" xlink:href="#m4b70ce2680" y="240.3879"/>
    </g>
   </g>
   <g id="patch_3">
    <path d="M 88.45625 339.84 
L 88.45625 7.2 
" style="fill:none;stroke:#000000;stroke-linecap:square;stroke-linejoin:miter;stroke-width:0.8;"/>
   </g>
   <g id="patch_4">
    <path d="M 534.85625 339.84 
L 534.85625 7.2 
" style="fill:none;stroke:#000000;stroke-linecap:square;stroke-linejoin:miter;stroke-width:0.8;"/>
   </g>
   <g id="patch_5">
    <path d="M 88.45625 339.84 
L 534.85625 339.84 
" style="fill:none;stroke:#000000;stroke-linecap:square;stroke-linejoin:miter;stroke-width:0.8;"/>
   </g>
   <g id="patch_6">
    <path d="M 88.45625 7.2 
L 534.85625 7.2 
" style="fill:none;stroke:#000000;stroke-linecap:square;stroke-linejoin:miter;stroke-width:0.8;"/>
   </g>
  </g>
 </g>
 <defs>
  <clipPath id="pd412f0bb06">
   <rect height="332.64" width="446.4" x="88.45625" y="7.2"/>
  </clipPath>
 </defs>
</svg>
