<?xml version="1.0" encoding="utf-8" standalone="no"?>
<!DOCTYPE svg PUBLIC "-//W3C//DTD SVG 1.1//EN"
  "http://www.w3.org/Graphics/SVG/1.1/DTD/svg11.dtd">
<!-- Created with matplotlib (https://matplotlib.org/) -->
<svg height="396.7525pt" version="1.1" viewBox="0 0 531.305885 396.7525" width="531.305885pt" xmlns="http://www.w3.org/2000/svg" xmlns:xlink="http://www.w3.org/1999/xlink">
 <defs>
  <style type="text/css">
*{stroke-linecap:butt;stroke-linejoin:round;}
  </style>
 </defs>
 <g id="figure_1">
  <g id="patch_1">
   <path d="M 0 396.7525 
L 531.305885 396.7525 
L 531.305885 0 
L 0 0 
z
" style="fill:#ffffff;"/>
  </g>
  <g id="axes_1">
   <g id="patch_2">
    <path d="M 75.73125 339.84 
L 522.13125 339.84 
L 522.13125 7.2 
L 75.73125 7.2 
z
" style="fill:#ffffff;"/>
   </g>
   <g id="matplotlib.axis_1">
    <g id="xtick_1">
     <g id="line2d_1">
      <path clip-path="url(#p088959422c)" d="M 96.022159 339.84 
L 96.022159 7.2 
" style="fill:none;stroke:#b0b0b0;stroke-linecap:square;stroke-width:0.8;"/>
     </g>
     <g id="line2d_2">
      <defs>
       <path d="M 0 0 
L 0 3.5 
" id="mf07f64ef10" style="stroke:#000000;stroke-width:0.8;"/>
      </defs>
      <g>
       <use style="stroke:#000000;stroke-width:0.8;" x="96.022159" xlink:href="#mf07f64ef10" y="339.84"/>
      </g>
     </g>
     <g id="text_1">
      <!-- 0.00 -->
      <defs>
       <path d="M 31.78125 66.40625 
Q 24.171875 66.40625 20.328125 58.90625 
Q 16.5 51.421875 16.5 36.375 
Q 16.5 21.390625 20.328125 13.890625 
Q 24.171875 6.390625 31.78125 6.390625 
Q 39.453125 6.390625 43.28125 13.890625 
Q 47.125 21.390625 47.125 36.375 
Q 47.125 51.421875 43.28125 58.90625 
Q 39.453125 66.40625 31.78125 66.40625 
z
M 31.78125 74.21875 
Q 44.046875 74.21875 50.515625 64.515625 
Q 56.984375 54.828125 56.984375 36.375 
Q 56.984375 17.96875 50.515625 8.265625 
Q 44.046875 -1.421875 31.78125 -1.421875 
Q 19.53125 -1.421875 13.0625 8.265625 
Q 6.59375 17.96875 6.59375 36.375 
Q 6.59375 54.828125 13.0625 64.515625 
Q 19.53125 74.21875 31.78125 74.21875 
z
" id="DejaVuSans-48"/>
       <path d="M 10.6875 12.40625 
L 21 12.40625 
L 21 0 
L 10.6875 0 
z
" id="DejaVuSans-46"/>
      </defs>
      <g transform="translate(73.756534 362.036875)scale(0.2 -0.2)">
       <use xlink:href="#DejaVuSans-48"/>
       <use x="63.623047" xlink:href="#DejaVuSans-46"/>
       <use x="95.410156" xlink:href="#DejaVuSans-48"/>
       <use x="159.033203" xlink:href="#DejaVuSans-48"/>
      </g>
     </g>
    </g>
    <g id="xtick_2">
     <g id="line2d_3">
      <path clip-path="url(#p088959422c)" d="M 177.185779 339.84 
L 177.185779 7.2 
" style="fill:none;stroke:#b0b0b0;stroke-linecap:square;stroke-width:0.8;"/>
     </g>
     <g id="line2d_4">
      <g>
       <use style="stroke:#000000;stroke-width:0.8;" x="177.185779" xlink:href="#mf07f64ef10" y="339.84"/>
      </g>
     </g>
     <g id="text_2">
      <!-- 0.01 -->
      <defs>
       <path d="M 12.40625 8.296875 
L 28.515625 8.296875 
L 28.515625 63.921875 
L 10.984375 60.40625 
L 10.984375 69.390625 
L 28.421875 72.90625 
L 38.28125 72.90625 
L 38.28125 8.296875 
L 54.390625 8.296875 
L 54.390625 0 
L 12.40625 0 
z
" id="DejaVuSans-49"/>
      </defs>
      <g transform="translate(154.920154 362.036875)scale(0.2 -0.2)">
       <use xlink:href="#DejaVuSans-48"/>
       <use x="63.623047" xlink:href="#DejaVuSans-46"/>
       <use x="95.410156" xlink:href="#DejaVuSans-48"/>
       <use x="159.033203" xlink:href="#DejaVuSans-49"/>
      </g>
     </g>
    </g>
    <g id="xtick_3">
     <g id="line2d_5">
      <path clip-path="url(#p088959422c)" d="M 258.349399 339.84 
L 258.349399 7.2 
" style="fill:none;stroke:#b0b0b0;stroke-linecap:square;stroke-width:0.8;"/>
     </g>
     <g id="line2d_6">
      <g>
       <use style="stroke:#000000;stroke-width:0.8;" x="258.349399" xlink:href="#mf07f64ef10" y="339.84"/>
      </g>
     </g>
     <g id="text_3">
      <!-- 0.02 -->
      <defs>
       <path d="M 19.1875 8.296875 
L 53.609375 8.296875 
L 53.609375 0 
L 7.328125 0 
L 7.328125 8.296875 
Q 12.9375 14.109375 22.625 23.890625 
Q 32.328125 33.6875 34.8125 36.53125 
Q 39.546875 41.84375 41.421875 45.53125 
Q 43.3125 49.21875 43.3125 52.78125 
Q 43.3125 58.59375 39.234375 62.25 
Q 35.15625 65.921875 28.609375 65.921875 
Q 23.96875 65.921875 18.8125 64.3125 
Q 13.671875 62.703125 7.8125 59.421875 
L 7.8125 69.390625 
Q 13.765625 71.78125 18.9375 73 
Q 24.125 74.21875 28.421875 74.21875 
Q 39.75 74.21875 46.484375 68.546875 
Q 53.21875 62.890625 53.21875 53.421875 
Q 53.21875 48.921875 51.53125 44.890625 
Q 49.859375 40.875 45.40625 35.40625 
Q 44.1875 33.984375 37.640625 27.21875 
Q 31.109375 20.453125 19.1875 8.296875 
z
" id="DejaVuSans-50"/>
      </defs>
      <g transform="translate(236.083774 362.036875)scale(0.2 -0.2)">
       <use xlink:href="#DejaVuSans-48"/>
       <use x="63.623047" xlink:href="#DejaVuSans-46"/>
       <use x="95.410156" xlink:href="#DejaVuSans-48"/>
       <use x="159.033203" xlink:href="#DejaVuSans-50"/>
      </g>
     </g>
    </g>
    <g id="xtick_4">
     <g id="line2d_7">
      <path clip-path="url(#p088959422c)" d="M 339.513019 339.84 
L 339.513019 7.2 
" style="fill:none;stroke:#b0b0b0;stroke-linecap:square;stroke-width:0.8;"/>
     </g>
     <g id="line2d_8">
      <g>
       <use style="stroke:#000000;stroke-width:0.8;" x="339.513019" xlink:href="#mf07f64ef10" y="339.84"/>
      </g>
     </g>
     <g id="text_4">
      <!-- 0.03 -->
      <defs>
       <path d="M 40.578125 39.3125 
Q 47.65625 37.796875 51.625 33 
Q 55.609375 28.21875 55.609375 21.1875 
Q 55.609375 10.40625 48.1875 4.484375 
Q 40.765625 -1.421875 27.09375 -1.421875 
Q 22.515625 -1.421875 17.65625 -0.515625 
Q 12.796875 0.390625 7.625 2.203125 
L 7.625 11.71875 
Q 11.71875 9.328125 16.59375 8.109375 
Q 21.484375 6.890625 26.8125 6.890625 
Q 36.078125 6.890625 40.9375 10.546875 
Q 45.796875 14.203125 45.796875 21.1875 
Q 45.796875 27.640625 41.28125 31.265625 
Q 36.765625 34.90625 28.71875 34.90625 
L 20.21875 34.90625 
L 20.21875 43.015625 
L 29.109375 43.015625 
Q 36.375 43.015625 40.234375 45.921875 
Q 44.09375 48.828125 44.09375 54.296875 
Q 44.09375 59.90625 40.109375 62.90625 
Q 36.140625 65.921875 28.71875 65.921875 
Q 24.65625 65.921875 20.015625 65.03125 
Q 15.375 64.15625 9.8125 62.3125 
L 9.8125 71.09375 
Q 15.4375 72.65625 20.34375 73.4375 
Q 25.25 74.21875 29.59375 74.21875 
Q 40.828125 74.21875 47.359375 69.109375 
Q 53.90625 64.015625 53.90625 55.328125 
Q 53.90625 49.265625 50.4375 45.09375 
Q 46.96875 40.921875 40.578125 39.3125 
z
" id="DejaVuSans-51"/>
      </defs>
      <g transform="translate(317.247394 362.036875)scale(0.2 -0.2)">
       <use xlink:href="#DejaVuSans-48"/>
       <use x="63.623047" xlink:href="#DejaVuSans-46"/>
       <use x="95.410156" xlink:href="#DejaVuSans-48"/>
       <use x="159.033203" xlink:href="#DejaVuSans-51"/>
      </g>
     </g>
    </g>
    <g id="xtick_5">
     <g id="line2d_9">
      <path clip-path="url(#p088959422c)" d="M 420.67664 339.84 
L 420.67664 7.2 
" style="fill:none;stroke:#b0b0b0;stroke-linecap:square;stroke-width:0.8;"/>
     </g>
     <g id="line2d_10">
      <g>
       <use style="stroke:#000000;stroke-width:0.8;" x="420.67664" xlink:href="#mf07f64ef10" y="339.84"/>
      </g>
     </g>
     <g id="text_5">
      <!-- 0.04 -->
      <defs>
       <path d="M 37.796875 64.3125 
L 12.890625 25.390625 
L 37.796875 25.390625 
z
M 35.203125 72.90625 
L 47.609375 72.90625 
L 47.609375 25.390625 
L 58.015625 25.390625 
L 58.015625 17.1875 
L 47.609375 17.1875 
L 47.609375 0 
L 37.796875 0 
L 37.796875 17.1875 
L 4.890625 17.1875 
L 4.890625 26.703125 
z
" id="DejaVuSans-52"/>
      </defs>
      <g transform="translate(398.411015 362.036875)scale(0.2 -0.2)">
       <use xlink:href="#DejaVuSans-48"/>
       <use x="63.623047" xlink:href="#DejaVuSans-46"/>
       <use x="95.410156" xlink:href="#DejaVuSans-48"/>
       <use x="159.033203" xlink:href="#DejaVuSans-52"/>
      </g>
     </g>
    </g>
    <g id="xtick_6">
     <g id="line2d_11">
      <path clip-path="url(#p088959422c)" d="M 501.84026 339.84 
L 501.84026 7.2 
" style="fill:none;stroke:#b0b0b0;stroke-linecap:square;stroke-width:0.8;"/>
     </g>
     <g id="line2d_12">
      <g>
       <use style="stroke:#000000;stroke-width:0.8;" x="501.84026" xlink:href="#mf07f64ef10" y="339.84"/>
      </g>
     </g>
     <g id="text_6">
      <!-- 0.05 -->
      <defs>
       <path d="M 10.796875 72.90625 
L 49.515625 72.90625 
L 49.515625 64.59375 
L 19.828125 64.59375 
L 19.828125 46.734375 
Q 21.96875 47.46875 24.109375 47.828125 
Q 26.265625 48.1875 28.421875 48.1875 
Q 40.625 48.1875 47.75 41.5 
Q 54.890625 34.8125 54.890625 23.390625 
Q 54.890625 11.625 47.5625 5.09375 
Q 40.234375 -1.421875 26.90625 -1.421875 
Q 22.3125 -1.421875 17.546875 -0.640625 
Q 12.796875 0.140625 7.71875 1.703125 
L 7.71875 11.625 
Q 12.109375 9.234375 16.796875 8.0625 
Q 21.484375 6.890625 26.703125 6.890625 
Q 35.15625 6.890625 40.078125 11.328125 
Q 45.015625 15.765625 45.015625 23.390625 
Q 45.015625 31 40.078125 35.4375 
Q 35.15625 39.890625 26.703125 39.890625 
Q 22.75 39.890625 18.8125 39.015625 
Q 14.890625 38.140625 10.796875 36.28125 
z
" id="DejaVuSans-53"/>
      </defs>
      <g transform="translate(479.574635 362.036875)scale(0.2 -0.2)">
       <use xlink:href="#DejaVuSans-48"/>
       <use x="63.623047" xlink:href="#DejaVuSans-46"/>
       <use x="95.410156" xlink:href="#DejaVuSans-48"/>
       <use x="159.033203" xlink:href="#DejaVuSans-53"/>
      </g>
     </g>
    </g>
    <g id="text_7">
     <!-- $t$ [s] -->
     <defs>
      <path d="M 42.28125 54.6875 
L 40.921875 47.703125 
L 23 47.703125 
L 17.1875 18.015625 
Q 16.890625 16.359375 16.75 15.234375 
Q 16.609375 14.109375 16.609375 13.484375 
Q 16.609375 10.359375 18.484375 8.9375 
Q 20.359375 7.515625 24.515625 7.515625 
L 33.59375 7.515625 
L 32.078125 0 
L 23.484375 0 
Q 15.484375 0 11.546875 3.125 
Q 7.625 6.25 7.625 12.59375 
Q 7.625 13.71875 7.765625 15.0625 
Q 7.90625 16.40625 8.203125 18.015625 
L 14.015625 47.703125 
L 6.390625 47.703125 
L 7.8125 54.6875 
L 15.28125 54.6875 
L 18.3125 70.21875 
L 27.296875 70.21875 
L 24.3125 54.6875 
z
" id="DejaVuSans-Oblique-116"/>
      <path id="DejaVuSans-32"/>
      <path d="M 8.59375 75.984375 
L 29.296875 75.984375 
L 29.296875 69 
L 17.578125 69 
L 17.578125 -6.203125 
L 29.296875 -6.203125 
L 29.296875 -13.1875 
L 8.59375 -13.1875 
z
" id="DejaVuSans-91"/>
      <path d="M 44.28125 53.078125 
L 44.28125 44.578125 
Q 40.484375 46.53125 36.375 47.5 
Q 32.28125 48.484375 27.875 48.484375 
Q 21.1875 48.484375 17.84375 46.4375 
Q 14.5 44.390625 14.5 40.28125 
Q 14.5 37.15625 16.890625 35.375 
Q 19.28125 33.59375 26.515625 31.984375 
L 29.59375 31.296875 
Q 39.15625 29.25 43.1875 25.515625 
Q 47.21875 21.78125 47.21875 15.09375 
Q 47.21875 7.46875 41.1875 3.015625 
Q 35.15625 -1.421875 24.609375 -1.421875 
Q 20.21875 -1.421875 15.453125 -0.5625 
Q 10.6875 0.296875 5.421875 2 
L 5.421875 11.28125 
Q 10.40625 8.6875 15.234375 7.390625 
Q 20.0625 6.109375 24.8125 6.109375 
Q 31.15625 6.109375 34.5625 8.28125 
Q 37.984375 10.453125 37.984375 14.40625 
Q 37.984375 18.0625 35.515625 20.015625 
Q 33.0625 21.96875 24.703125 23.78125 
L 21.578125 24.515625 
Q 13.234375 26.265625 9.515625 29.90625 
Q 5.8125 33.546875 5.8125 39.890625 
Q 5.8125 47.609375 11.28125 51.796875 
Q 16.75 56 26.8125 56 
Q 31.78125 56 36.171875 55.265625 
Q 40.578125 54.546875 44.28125 53.078125 
z
" id="DejaVuSans-115"/>
      <path d="M 30.421875 75.984375 
L 30.421875 -13.1875 
L 9.71875 -13.1875 
L 9.71875 -6.203125 
L 21.390625 -6.203125 
L 21.390625 69 
L 9.71875 69 
L 9.71875 75.984375 
z
" id="DejaVuSans-93"/>
     </defs>
     <g transform="translate(278.73125 385.393125)scale(0.2 -0.2)">
      <use transform="translate(0 0.015625)" xlink:href="#DejaVuSans-Oblique-116"/>
      <use transform="translate(39.208984 0.015625)" xlink:href="#DejaVuSans-32"/>
      <use transform="translate(70.996094 0.015625)" xlink:href="#DejaVuSans-91"/>
      <use transform="translate(110.009766 0.015625)" xlink:href="#DejaVuSans-115"/>
      <use transform="translate(162.109375 0.015625)" xlink:href="#DejaVuSans-93"/>
     </g>
    </g>
   </g>
   <g id="matplotlib.axis_2">
    <g id="ytick_1">
     <g id="line2d_13">
      <path clip-path="url(#p088959422c)" d="M 75.73125 324.72 
L 522.13125 324.72 
" style="fill:none;stroke:#b0b0b0;stroke-linecap:square;stroke-width:0.8;"/>
     </g>
     <g id="line2d_14">
      <defs>
       <path d="M 0 0 
L -3.5 0 
" id="me29364985b" style="stroke:#000000;stroke-width:0.8;"/>
      </defs>
      <g>
       <use style="stroke:#000000;stroke-width:0.8;" x="75.73125" xlink:href="#me29364985b" y="324.72"/>
      </g>
     </g>
     <g id="text_8">
      <!-- 0 -->
      <g transform="translate(56.00625 332.318438)scale(0.2 -0.2)">
       <use xlink:href="#DejaVuSans-48"/>
      </g>
     </g>
    </g>
    <g id="ytick_2">
     <g id="line2d_15">
      <path clip-path="url(#p088959422c)" d="M 75.73125 273.916787 
L 522.13125 273.916787 
" style="fill:none;stroke:#b0b0b0;stroke-linecap:square;stroke-width:0.8;"/>
     </g>
     <g id="line2d_16">
      <g>
       <use style="stroke:#000000;stroke-width:0.8;" x="75.73125" xlink:href="#me29364985b" y="273.916787"/>
      </g>
     </g>
     <g id="text_9">
      <!-- 20 -->
      <g transform="translate(43.28125 281.515224)scale(0.2 -0.2)">
       <use xlink:href="#DejaVuSans-50"/>
       <use x="63.623047" xlink:href="#DejaVuSans-48"/>
      </g>
     </g>
    </g>
    <g id="ytick_3">
     <g id="line2d_17">
      <path clip-path="url(#p088959422c)" d="M 75.73125 223.113573 
L 522.13125 223.113573 
" style="fill:none;stroke:#b0b0b0;stroke-linecap:square;stroke-width:0.8;"/>
     </g>
     <g id="line2d_18">
      <g>
       <use style="stroke:#000000;stroke-width:0.8;" x="75.73125" xlink:href="#me29364985b" y="223.113573"/>
      </g>
     </g>
     <g id="text_10">
      <!-- 40 -->
      <g transform="translate(43.28125 230.712011)scale(0.2 -0.2)">
       <use xlink:href="#DejaVuSans-52"/>
       <use x="63.623047" xlink:href="#DejaVuSans-48"/>
      </g>
     </g>
    </g>
    <g id="ytick_4">
     <g id="line2d_19">
      <path clip-path="url(#p088959422c)" d="M 75.73125 172.31036 
L 522.13125 172.31036 
" style="fill:none;stroke:#b0b0b0;stroke-linecap:square;stroke-width:0.8;"/>
     </g>
     <g id="line2d_20">
      <g>
       <use style="stroke:#000000;stroke-width:0.8;" x="75.73125" xlink:href="#me29364985b" y="172.31036"/>
      </g>
     </g>
     <g id="text_11">
      <!-- 60 -->
      <defs>
       <path d="M 33.015625 40.375 
Q 26.375 40.375 22.484375 35.828125 
Q 18.609375 31.296875 18.609375 23.390625 
Q 18.609375 15.53125 22.484375 10.953125 
Q 26.375 6.390625 33.015625 6.390625 
Q 39.65625 6.390625 43.53125 10.953125 
Q 47.40625 15.53125 47.40625 23.390625 
Q 47.40625 31.296875 43.53125 35.828125 
Q 39.65625 40.375 33.015625 40.375 
z
M 52.59375 71.296875 
L 52.59375 62.3125 
Q 48.875 64.0625 45.09375 64.984375 
Q 41.3125 65.921875 37.59375 65.921875 
Q 27.828125 65.921875 22.671875 59.328125 
Q 17.53125 52.734375 16.796875 39.40625 
Q 19.671875 43.65625 24.015625 45.921875 
Q 28.375 48.1875 33.59375 48.1875 
Q 44.578125 48.1875 50.953125 41.515625 
Q 57.328125 34.859375 57.328125 23.390625 
Q 57.328125 12.15625 50.6875 5.359375 
Q 44.046875 -1.421875 33.015625 -1.421875 
Q 20.359375 -1.421875 13.671875 8.265625 
Q 6.984375 17.96875 6.984375 36.375 
Q 6.984375 53.65625 15.1875 63.9375 
Q 23.390625 74.21875 37.203125 74.21875 
Q 40.921875 74.21875 44.703125 73.484375 
Q 48.484375 72.75 52.59375 71.296875 
z
" id="DejaVuSans-54"/>
      </defs>
      <g transform="translate(43.28125 179.908798)scale(0.2 -0.2)">
       <use xlink:href="#DejaVuSans-54"/>
       <use x="63.623047" xlink:href="#DejaVuSans-48"/>
      </g>
     </g>
    </g>
    <g id="ytick_5">
     <g id="line2d_21">
      <path clip-path="url(#p088959422c)" d="M 75.73125 121.507147 
L 522.13125 121.507147 
" style="fill:none;stroke:#b0b0b0;stroke-linecap:square;stroke-width:0.8;"/>
     </g>
     <g id="line2d_22">
      <g>
       <use style="stroke:#000000;stroke-width:0.8;" x="75.73125" xlink:href="#me29364985b" y="121.507147"/>
      </g>
     </g>
     <g id="text_12">
      <!-- 80 -->
      <defs>
       <path d="M 31.78125 34.625 
Q 24.75 34.625 20.71875 30.859375 
Q 16.703125 27.09375 16.703125 20.515625 
Q 16.703125 13.921875 20.71875 10.15625 
Q 24.75 6.390625 31.78125 6.390625 
Q 38.8125 6.390625 42.859375 10.171875 
Q 46.921875 13.96875 46.921875 20.515625 
Q 46.921875 27.09375 42.890625 30.859375 
Q 38.875 34.625 31.78125 34.625 
z
M 21.921875 38.8125 
Q 15.578125 40.375 12.03125 44.71875 
Q 8.5 49.078125 8.5 55.328125 
Q 8.5 64.0625 14.71875 69.140625 
Q 20.953125 74.21875 31.78125 74.21875 
Q 42.671875 74.21875 48.875 69.140625 
Q 55.078125 64.0625 55.078125 55.328125 
Q 55.078125 49.078125 51.53125 44.71875 
Q 48 40.375 41.703125 38.8125 
Q 48.828125 37.15625 52.796875 32.3125 
Q 56.78125 27.484375 56.78125 20.515625 
Q 56.78125 9.90625 50.3125 4.234375 
Q 43.84375 -1.421875 31.78125 -1.421875 
Q 19.734375 -1.421875 13.25 4.234375 
Q 6.78125 9.90625 6.78125 20.515625 
Q 6.78125 27.484375 10.78125 32.3125 
Q 14.796875 37.15625 21.921875 38.8125 
z
M 18.3125 54.390625 
Q 18.3125 48.734375 21.84375 45.5625 
Q 25.390625 42.390625 31.78125 42.390625 
Q 38.140625 42.390625 41.71875 45.5625 
Q 45.3125 48.734375 45.3125 54.390625 
Q 45.3125 60.0625 41.71875 63.234375 
Q 38.140625 66.40625 31.78125 66.40625 
Q 25.390625 66.40625 21.84375 63.234375 
Q 18.3125 60.0625 18.3125 54.390625 
z
" id="DejaVuSans-56"/>
      </defs>
      <g transform="translate(43.28125 129.105584)scale(0.2 -0.2)">
       <use xlink:href="#DejaVuSans-56"/>
       <use x="63.623047" xlink:href="#DejaVuSans-48"/>
      </g>
     </g>
    </g>
    <g id="ytick_6">
     <g id="line2d_23">
      <path clip-path="url(#p088959422c)" d="M 75.73125 70.703933 
L 522.13125 70.703933 
" style="fill:none;stroke:#b0b0b0;stroke-linecap:square;stroke-width:0.8;"/>
     </g>
     <g id="line2d_24">
      <g>
       <use style="stroke:#000000;stroke-width:0.8;" x="75.73125" xlink:href="#me29364985b" y="70.703933"/>
      </g>
     </g>
     <g id="text_13">
      <!-- 100 -->
      <g transform="translate(30.55625 78.302371)scale(0.2 -0.2)">
       <use xlink:href="#DejaVuSans-49"/>
       <use x="63.623047" xlink:href="#DejaVuSans-48"/>
       <use x="127.246094" xlink:href="#DejaVuSans-48"/>
      </g>
     </g>
    </g>
    <g id="ytick_7">
     <g id="line2d_25">
      <path clip-path="url(#p088959422c)" d="M 75.73125 19.90072 
L 522.13125 19.90072 
" style="fill:none;stroke:#b0b0b0;stroke-linecap:square;stroke-width:0.8;"/>
     </g>
     <g id="line2d_26">
      <g>
       <use style="stroke:#000000;stroke-width:0.8;" x="75.73125" xlink:href="#me29364985b" y="19.90072"/>
      </g>
     </g>
     <g id="text_14">
      <!-- 120 -->
      <g transform="translate(30.55625 27.499158)scale(0.2 -0.2)">
       <use xlink:href="#DejaVuSans-49"/>
       <use x="63.623047" xlink:href="#DejaVuSans-50"/>
       <use x="127.246094" xlink:href="#DejaVuSans-48"/>
      </g>
     </g>
    </g>
    <g id="text_15">
     <!-- $\sigma$ [kPa] -->
     <defs>
      <path d="M 34.671875 47.5625 
Q 27.25 47.5625 22.21875 42.1875 
Q 16.890625 36.578125 15.140625 27.296875 
Q 13.1875 17.484375 16.3125 11.8125 
Q 19.390625 6.203125 26.65625 6.203125 
Q 33.84375 6.203125 39.109375 11.859375 
Q 44.4375 17.53125 46.34375 27.296875 
Q 48.046875 36.234375 45.015625 42.1875 
Q 42.1875 47.5625 34.671875 47.5625 
z
M 36.078125 54.734375 
L 65.921875 54.6875 
L 64.15625 45.703125 
L 54.109375 45.703125 
Q 57.90625 38.09375 55.859375 27.296875 
Q 53.21875 13.875 45.0625 6.25 
Q 36.859375 -1.421875 25.140625 -1.421875 
Q 13.375 -1.421875 8.203125 6.25 
Q 3.03125 13.875 5.671875 27.296875 
Q 8.25 40.765625 16.40625 48.390625 
Q 23.1875 54.734375 36.078125 54.734375 
z
" id="DejaVuSans-Oblique-963"/>
      <path d="M 9.078125 75.984375 
L 18.109375 75.984375 
L 18.109375 31.109375 
L 44.921875 54.6875 
L 56.390625 54.6875 
L 27.390625 29.109375 
L 57.625 0 
L 45.90625 0 
L 18.109375 26.703125 
L 18.109375 0 
L 9.078125 0 
z
" id="DejaVuSans-107"/>
      <path d="M 19.671875 64.796875 
L 19.671875 37.40625 
L 32.078125 37.40625 
Q 38.96875 37.40625 42.71875 40.96875 
Q 46.484375 44.53125 46.484375 51.125 
Q 46.484375 57.671875 42.71875 61.234375 
Q 38.96875 64.796875 32.078125 64.796875 
z
M 9.8125 72.90625 
L 32.078125 72.90625 
Q 44.34375 72.90625 50.609375 67.359375 
Q 56.890625 61.8125 56.890625 51.125 
Q 56.890625 40.328125 50.609375 34.8125 
Q 44.34375 29.296875 32.078125 29.296875 
L 19.671875 29.296875 
L 19.671875 0 
L 9.8125 0 
z
" id="DejaVuSans-80"/>
      <path d="M 34.28125 27.484375 
Q 23.390625 27.484375 19.1875 25 
Q 14.984375 22.515625 14.984375 16.5 
Q 14.984375 11.71875 18.140625 8.90625 
Q 21.296875 6.109375 26.703125 6.109375 
Q 34.1875 6.109375 38.703125 11.40625 
Q 43.21875 16.703125 43.21875 25.484375 
L 43.21875 27.484375 
z
M 52.203125 31.203125 
L 52.203125 0 
L 43.21875 0 
L 43.21875 8.296875 
Q 40.140625 3.328125 35.546875 0.953125 
Q 30.953125 -1.421875 24.3125 -1.421875 
Q 15.921875 -1.421875 10.953125 3.296875 
Q 6 8.015625 6 15.921875 
Q 6 25.140625 12.171875 29.828125 
Q 18.359375 34.515625 30.609375 34.515625 
L 43.21875 34.515625 
L 43.21875 35.40625 
Q 43.21875 41.609375 39.140625 45 
Q 35.0625 48.390625 27.6875 48.390625 
Q 23 48.390625 18.546875 47.265625 
Q 14.109375 46.140625 10.015625 43.890625 
L 10.015625 52.203125 
Q 14.9375 54.109375 19.578125 55.046875 
Q 24.21875 56 28.609375 56 
Q 40.484375 56 46.34375 49.84375 
Q 52.203125 43.703125 52.203125 31.203125 
z
" id="DejaVuSans-97"/>
     </defs>
     <g transform="translate(22.396875 208.82)rotate(-90)scale(0.2 -0.2)">
      <use transform="translate(0 0.015625)" xlink:href="#DejaVuSans-Oblique-963"/>
      <use transform="translate(63.378906 0.015625)" xlink:href="#DejaVuSans-32"/>
      <use transform="translate(95.166016 0.015625)" xlink:href="#DejaVuSans-91"/>
      <use transform="translate(134.179688 0.015625)" xlink:href="#DejaVuSans-107"/>
      <use transform="translate(192.089844 0.015625)" xlink:href="#DejaVuSans-80"/>
      <use transform="translate(252.392578 0.015625)" xlink:href="#DejaVuSans-97"/>
      <use transform="translate(313.671875 0.015625)" xlink:href="#DejaVuSans-93"/>
     </g>
    </g>
   </g>
   <g id="line2d_27">
    <path clip-path="url(#p088959422c)" d="M 96.022159 324.72 
L 96.022167 294.479992 
L 96.022175 264.239984 
L 96.022183 233.999976 
L 96.022192 203.759968 
L 96.0222 173.51996 
L 96.022208 143.279952 
L 96.022216 113.039944 
L 96.022224 82.799937 
L 96.022232 52.55995 
L 96.02224 22.32 
L 104.138602 35.331538 
L 112.254964 41.689195 
L 120.371326 44.974148 
L 128.487688 46.840153 
L 136.60405 48.050902 
L 144.720412 48.959058 
L 152.836774 49.727481 
L 160.953136 50.431375 
L 169.069498 51.105471 
L 177.18586 51.765806 
L 177.18586 51.765807 
L 185.302222 52.419787 
L 193.418584 53.070833 
L 201.534946 53.720524 
L 209.651308 54.369589 
L 217.76767 55.018365 
L 225.884032 55.667007 
L 234.000394 56.315588 
L 242.116756 56.964141 
L 250.233119 57.61268 
L 258.349481 58.261213 
L 266.465843 58.909743 
L 274.582205 59.558272 
L 282.698567 60.206801 
L 290.814929 60.855329 
L 298.931291 61.503856 
L 307.047653 62.152384 
L 315.164015 62.800912 
L 323.280377 63.449439 
L 331.396739 64.097967 
L 339.513101 64.746495 
L 347.629463 65.395022 
L 355.745825 66.043549 
L 363.862187 66.692077 
L 371.978549 67.340604 
L 380.094911 67.989131 
L 388.211273 68.637658 
L 396.327635 69.286186 
L 404.443997 69.934713 
L 412.560359 70.58324 
L 420.676721 71.231767 
L 428.793083 71.880293 
L 436.909445 72.52882 
L 445.025807 73.177347 
L 453.142169 73.825874 
L 461.258531 74.4744 
L 469.374893 75.122927 
L 477.491255 75.771453 
L 485.607617 76.41998 
L 493.723979 77.068506 
L 501.840341 77.717032 
" style="fill:none;stroke:#ff0000;stroke-linecap:square;stroke-width:1.5;"/>
    <defs>
     <path d="M 0 5 
C 1.326016 5 2.597899 4.473168 3.535534 3.535534 
C 4.473168 2.597899 5 1.326016 5 0 
C 5 -1.326016 4.473168 -2.597899 3.535534 -3.535534 
C 2.597899 -4.473168 1.326016 -5 0 -5 
C -1.326016 -5 -2.597899 -4.473168 -3.535534 -3.535534 
C -4.473168 -2.597899 -5 -1.326016 -5 0 
C -5 1.326016 -4.473168 2.597899 -3.535534 3.535534 
C -2.597899 4.473168 -1.326016 5 0 5 
z
" id="me10045c290" style="stroke:#ff0000;"/>
    </defs>
    <g clip-path="url(#p088959422c)">
     <use style="fill:#ff0000;stroke:#ff0000;" x="96.022159" xlink:href="#me10045c290" y="324.72"/>
     <use style="fill:#ff0000;stroke:#ff0000;" x="96.022167" xlink:href="#me10045c290" y="294.479992"/>
     <use style="fill:#ff0000;stroke:#ff0000;" x="96.022175" xlink:href="#me10045c290" y="264.239984"/>
     <use style="fill:#ff0000;stroke:#ff0000;" x="96.022183" xlink:href="#me10045c290" y="233.999976"/>
     <use style="fill:#ff0000;stroke:#ff0000;" x="96.022192" xlink:href="#me10045c290" y="203.759968"/>
     <use style="fill:#ff0000;stroke:#ff0000;" x="96.0222" xlink:href="#me10045c290" y="173.51996"/>
     <use style="fill:#ff0000;stroke:#ff0000;" x="96.022208" xlink:href="#me10045c290" y="143.279952"/>
     <use style="fill:#ff0000;stroke:#ff0000;" x="96.022216" xlink:href="#me10045c290" y="113.039944"/>
     <use style="fill:#ff0000;stroke:#ff0000;" x="96.022224" xlink:href="#me10045c290" y="82.799937"/>
     <use style="fill:#ff0000;stroke:#ff0000;" x="96.022232" xlink:href="#me10045c290" y="52.55995"/>
     <use style="fill:#ff0000;stroke:#ff0000;" x="96.02224" xlink:href="#me10045c290" y="22.32"/>
     <use style="fill:#ff0000;stroke:#ff0000;" x="104.138602" xlink:href="#me10045c290" y="35.331538"/>
     <use style="fill:#ff0000;stroke:#ff0000;" x="112.254964" xlink:href="#me10045c290" y="41.689195"/>
     <use style="fill:#ff0000;stroke:#ff0000;" x="120.371326" xlink:href="#me10045c290" y="44.974148"/>
     <use style="fill:#ff0000;stroke:#ff0000;" x="128.487688" xlink:href="#me10045c290" y="46.840153"/>
     <use style="fill:#ff0000;stroke:#ff0000;" x="136.60405" xlink:href="#me10045c290" y="48.050902"/>
     <use style="fill:#ff0000;stroke:#ff0000;" x="144.720412" xlink:href="#me10045c290" y="48.959058"/>
     <use style="fill:#ff0000;stroke:#ff0000;" x="152.836774" xlink:href="#me10045c290" y="49.727481"/>
     <use style="fill:#ff0000;stroke:#ff0000;" x="160.953136" xlink:href="#me10045c290" y="50.431375"/>
     <use style="fill:#ff0000;stroke:#ff0000;" x="169.069498" xlink:href="#me10045c290" y="51.105471"/>
     <use style="fill:#ff0000;stroke:#ff0000;" x="177.18586" xlink:href="#me10045c290" y="51.765806"/>
     <use style="fill:#ff0000;stroke:#ff0000;" x="177.18586" xlink:href="#me10045c290" y="51.765807"/>
     <use style="fill:#ff0000;stroke:#ff0000;" x="185.302222" xlink:href="#me10045c290" y="52.419787"/>
     <use style="fill:#ff0000;stroke:#ff0000;" x="193.418584" xlink:href="#me10045c290" y="53.070833"/>
     <use style="fill:#ff0000;stroke:#ff0000;" x="201.534946" xlink:href="#me10045c290" y="53.720524"/>
     <use style="fill:#ff0000;stroke:#ff0000;" x="209.651308" xlink:href="#me10045c290" y="54.369589"/>
     <use style="fill:#ff0000;stroke:#ff0000;" x="217.76767" xlink:href="#me10045c290" y="55.018365"/>
     <use style="fill:#ff0000;stroke:#ff0000;" x="225.884032" xlink:href="#me10045c290" y="55.667007"/>
     <use style="fill:#ff0000;stroke:#ff0000;" x="234.000394" xlink:href="#me10045c290" y="56.315588"/>
     <use style="fill:#ff0000;stroke:#ff0000;" x="242.116756" xlink:href="#me10045c290" y="56.964141"/>
     <use style="fill:#ff0000;stroke:#ff0000;" x="250.233119" xlink:href="#me10045c290" y="57.61268"/>
     <use style="fill:#ff0000;stroke:#ff0000;" x="258.349481" xlink:href="#me10045c290" y="58.261213"/>
     <use style="fill:#ff0000;stroke:#ff0000;" x="266.465843" xlink:href="#me10045c290" y="58.909743"/>
     <use style="fill:#ff0000;stroke:#ff0000;" x="274.582205" xlink:href="#me10045c290" y="59.558272"/>
     <use style="fill:#ff0000;stroke:#ff0000;" x="282.698567" xlink:href="#me10045c290" y="60.206801"/>
     <use style="fill:#ff0000;stroke:#ff0000;" x="290.814929" xlink:href="#me10045c290" y="60.855329"/>
     <use style="fill:#ff0000;stroke:#ff0000;" x="298.931291" xlink:href="#me10045c290" y="61.503856"/>
     <use style="fill:#ff0000;stroke:#ff0000;" x="307.047653" xlink:href="#me10045c290" y="62.152384"/>
     <use style="fill:#ff0000;stroke:#ff0000;" x="315.164015" xlink:href="#me10045c290" y="62.800912"/>
     <use style="fill:#ff0000;stroke:#ff0000;" x="323.280377" xlink:href="#me10045c290" y="63.449439"/>
     <use style="fill:#ff0000;stroke:#ff0000;" x="331.396739" xlink:href="#me10045c290" y="64.097967"/>
     <use style="fill:#ff0000;stroke:#ff0000;" x="339.513101" xlink:href="#me10045c290" y="64.746495"/>
     <use style="fill:#ff0000;stroke:#ff0000;" x="347.629463" xlink:href="#me10045c290" y="65.395022"/>
     <use style="fill:#ff0000;stroke:#ff0000;" x="355.745825" xlink:href="#me10045c290" y="66.043549"/>
     <use style="fill:#ff0000;stroke:#ff0000;" x="363.862187" xlink:href="#me10045c290" y="66.692077"/>
     <use style="fill:#ff0000;stroke:#ff0000;" x="371.978549" xlink:href="#me10045c290" y="67.340604"/>
     <use style="fill:#ff0000;stroke:#ff0000;" x="380.094911" xlink:href="#me10045c290" y="67.989131"/>
     <use style="fill:#ff0000;stroke:#ff0000;" x="388.211273" xlink:href="#me10045c290" y="68.637658"/>
     <use style="fill:#ff0000;stroke:#ff0000;" x="396.327635" xlink:href="#me10045c290" y="69.286186"/>
     <use style="fill:#ff0000;stroke:#ff0000;" x="404.443997" xlink:href="#me10045c290" y="69.934713"/>
     <use style="fill:#ff0000;stroke:#ff0000;" x="412.560359" xlink:href="#me10045c290" y="70.58324"/>
     <use style="fill:#ff0000;stroke:#ff0000;" x="420.676721" xlink:href="#me10045c290" y="71.231767"/>
     <use style="fill:#ff0000;stroke:#ff0000;" x="428.793083" xlink:href="#me10045c290" y="71.880293"/>
     <use style="fill:#ff0000;stroke:#ff0000;" x="436.909445" xlink:href="#me10045c290" y="72.52882"/>
     <use style="fill:#ff0000;stroke:#ff0000;" x="445.025807" xlink:href="#me10045c290" y="73.177347"/>
     <use style="fill:#ff0000;stroke:#ff0000;" x="453.142169" xlink:href="#me10045c290" y="73.825874"/>
     <use style="fill:#ff0000;stroke:#ff0000;" x="461.258531" xlink:href="#me10045c290" y="74.4744"/>
     <use style="fill:#ff0000;stroke:#ff0000;" x="469.374893" xlink:href="#me10045c290" y="75.122927"/>
     <use style="fill:#ff0000;stroke:#ff0000;" x="477.491255" xlink:href="#me10045c290" y="75.771453"/>
     <use style="fill:#ff0000;stroke:#ff0000;" x="485.607617" xlink:href="#me10045c290" y="76.41998"/>
     <use style="fill:#ff0000;stroke:#ff0000;" x="493.723979" xlink:href="#me10045c290" y="77.068506"/>
     <use style="fill:#ff0000;stroke:#ff0000;" x="501.840341" xlink:href="#me10045c290" y="77.717032"/>
    </g>
   </g>
   <g id="patch_3">
    <path d="M 75.73125 339.84 
L 75.73125 7.2 
" style="fill:none;stroke:#000000;stroke-linecap:square;stroke-linejoin:miter;stroke-width:0.8;"/>
   </g>
   <g id="patch_4">
    <path d="M 522.13125 339.84 
L 522.13125 7.2 
" style="fill:none;stroke:#000000;stroke-linecap:square;stroke-linejoin:miter;stroke-width:0.8;"/>
   </g>
   <g id="patch_5">
    <path d="M 75.73125 339.84 
L 522.13125 339.84 
" style="fill:none;stroke:#000000;stroke-linecap:square;stroke-linejoin:miter;stroke-width:0.8;"/>
   </g>
   <g id="patch_6">
    <path d="M 75.73125 7.2 
L 522.13125 7.2 
" style="fill:none;stroke:#000000;stroke-linecap:square;stroke-linejoin:miter;stroke-width:0.8;"/>
   </g>
  </g>
 </g>
 <defs>
  <clipPath id="p088959422c">
   <rect height="332.64" width="446.4" x="75.73125" y="7.2"/>
  </clipPath>
 </defs>
</svg>
