<?xml version="1.0" encoding="utf-8" standalone="no"?>
<!DOCTYPE svg PUBLIC "-//W3C//DTD SVG 1.1//EN"
  "http://www.w3.org/Graphics/SVG/1.1/DTD/svg11.dtd">
<!-- Created with matplotlib (http://matplotlib.org/) -->
<svg height="386.108792pt" version="1.1" viewBox="0 0 574.374219 386.108792" width="574.374219pt" xmlns="http://www.w3.org/2000/svg" xmlns:xlink="http://www.w3.org/1999/xlink">
 <defs>
  <style type="text/css">
*{stroke-linecap:butt;stroke-linejoin:round;}
  </style>
 </defs>
 <g id="figure_1">
  <g id="patch_1">
   <path d="M 0 386.108792 
L 574.374219 386.108792 
L 574.374219 0 
L 0 0 
z
" style="fill:#ffffff;"/>
  </g>
  <g id="axes_1">
   <g id="patch_2">
    <path d="M 74.2625 319.518167 
L 439.459375 319.518167 
L 439.459375 11.946292 
L 74.2625 11.946292 
z
" style="fill:#ffffff;"/>
   </g>
   <g id="matplotlib.axis_1">
    <g id="xtick_1">
     <g id="line2d_1">
      <path clip-path="url(#p405a461bbc)" d="M 90.862358 319.518167 
L 90.862358 11.946292 
" style="fill:none;stroke:#b0b0b0;stroke-linecap:square;stroke-width:0.8;"/>
     </g>
     <g id="line2d_2">
      <defs>
       <path d="M 0 0 
L 0 3.5 
" id="mdb482ab67a" style="stroke:#000000;stroke-width:0.8;"/>
      </defs>
      <g>
       <use style="stroke:#000000;stroke-width:0.8;" x="90.862358" xlink:href="#mdb482ab67a" y="319.518167"/>
      </g>
     </g>
     <g id="text_1">
      <!-- 0 -->
      <defs>
       <path d="M 31.78125 3.421875 
Q 39.265625 3.421875 42.96875 11.625 
Q 46.6875 19.828125 46.6875 36.375 
Q 46.6875 52.984375 42.96875 61.1875 
Q 39.265625 69.390625 31.78125 69.390625 
Q 24.3125 69.390625 20.59375 61.1875 
Q 16.890625 52.984375 16.890625 36.375 
Q 16.890625 19.828125 20.59375 11.625 
Q 24.3125 3.421875 31.78125 3.421875 
z
M 31.78125 -1.421875 
Q 19.921875 -1.421875 13.25 8.53125 
Q 6.59375 18.5 6.59375 36.375 
Q 6.59375 54.296875 13.25 64.25 
Q 19.921875 74.21875 31.78125 74.21875 
Q 43.703125 74.21875 50.34375 64.25 
Q 56.984375 54.296875 56.984375 36.375 
Q 56.984375 18.5 50.34375 8.53125 
Q 43.703125 -1.421875 31.78125 -1.421875 
z
" id="DejaVuSerif-30"/>
      </defs>
      <g transform="translate(82.909233 345.514261)scale(0.25 -0.25)">
       <use xlink:href="#DejaVuSerif-30"/>
      </g>
     </g>
    </g>
    <g id="xtick_2">
     <g id="line2d_3">
      <path clip-path="url(#p405a461bbc)" d="M 201.528078 319.518167 
L 201.528078 11.946292 
" style="fill:none;stroke:#b0b0b0;stroke-linecap:square;stroke-width:0.8;"/>
     </g>
     <g id="line2d_4">
      <g>
       <use style="stroke:#000000;stroke-width:0.8;" x="201.528078" xlink:href="#mdb482ab67a" y="319.518167"/>
      </g>
     </g>
     <g id="text_2">
      <!-- 1 -->
      <defs>
       <path d="M 14.203125 0 
L 14.203125 5.171875 
L 26.90625 5.171875 
L 26.90625 65.828125 
L 12.203125 56.296875 
L 12.203125 62.703125 
L 29.984375 74.21875 
L 36.71875 74.21875 
L 36.71875 5.171875 
L 49.421875 5.171875 
L 49.421875 0 
z
" id="DejaVuSerif-31"/>
      </defs>
      <g transform="translate(193.574953 345.514261)scale(0.25 -0.25)">
       <use xlink:href="#DejaVuSerif-31"/>
      </g>
     </g>
    </g>
    <g id="xtick_3">
     <g id="line2d_5">
      <path clip-path="url(#p405a461bbc)" d="M 312.193797 319.518167 
L 312.193797 11.946292 
" style="fill:none;stroke:#b0b0b0;stroke-linecap:square;stroke-width:0.8;"/>
     </g>
     <g id="line2d_6">
      <g>
       <use style="stroke:#000000;stroke-width:0.8;" x="312.193797" xlink:href="#mdb482ab67a" y="319.518167"/>
      </g>
     </g>
     <g id="text_3">
      <!-- 2 -->
      <defs>
       <path d="M 12.796875 55.515625 
L 7.328125 55.515625 
L 7.328125 68.5 
Q 12.546875 71.296875 17.84375 72.75 
Q 23.140625 74.21875 28.21875 74.21875 
Q 39.59375 74.21875 46.1875 68.703125 
Q 52.78125 63.1875 52.78125 53.71875 
Q 52.78125 43.015625 37.84375 28.125 
Q 36.671875 27 36.078125 26.421875 
L 17.671875 8.015625 
L 48.09375 8.015625 
L 48.09375 17 
L 53.8125 17 
L 53.8125 0 
L 6.78125 0 
L 6.78125 5.328125 
L 28.90625 27.390625 
Q 36.234375 34.71875 39.359375 40.84375 
Q 42.484375 46.96875 42.484375 53.71875 
Q 42.484375 61.078125 38.640625 65.234375 
Q 34.8125 69.390625 28.078125 69.390625 
Q 21.09375 69.390625 17.28125 65.921875 
Q 13.484375 62.453125 12.796875 55.515625 
z
" id="DejaVuSerif-32"/>
      </defs>
      <g transform="translate(304.240672 345.514261)scale(0.25 -0.25)">
       <use xlink:href="#DejaVuSerif-32"/>
      </g>
     </g>
    </g>
    <g id="xtick_4">
     <g id="line2d_7">
      <path clip-path="url(#p405a461bbc)" d="M 422.859517 319.518167 
L 422.859517 11.946292 
" style="fill:none;stroke:#b0b0b0;stroke-linecap:square;stroke-width:0.8;"/>
     </g>
     <g id="line2d_8">
      <g>
       <use style="stroke:#000000;stroke-width:0.8;" x="422.859517" xlink:href="#mdb482ab67a" y="319.518167"/>
      </g>
     </g>
     <g id="text_4">
      <!-- 3 -->
      <defs>
       <path d="M 9.71875 69.828125 
Q 15.4375 71.96875 20.671875 73.09375 
Q 25.921875 74.21875 30.515625 74.21875 
Q 41.21875 74.21875 47.21875 69.59375 
Q 53.21875 64.984375 53.21875 56.78125 
Q 53.21875 50.203125 49.0625 45.78125 
Q 44.921875 41.359375 37.3125 39.796875 
Q 46.296875 38.53125 51.25 33.28125 
Q 56.203125 28.03125 56.203125 19.671875 
Q 56.203125 9.46875 49.34375 4.015625 
Q 42.484375 -1.421875 29.59375 -1.421875 
Q 23.875 -1.421875 18.421875 -0.1875 
Q 12.984375 1.03125 7.625 3.515625 
L 7.625 17.671875 
L 13.09375 17.671875 
Q 13.578125 10.640625 17.828125 7.03125 
Q 22.078125 3.421875 29.78125 3.421875 
Q 37.25 3.421875 41.578125 7.734375 
Q 45.90625 12.0625 45.90625 19.578125 
Q 45.90625 28.171875 41.453125 32.59375 
Q 37.015625 37.015625 28.421875 37.015625 
L 23.78125 37.015625 
L 23.78125 42 
L 26.21875 42 
Q 34.765625 42 39.03125 45.53125 
Q 43.3125 49.078125 43.3125 56.203125 
Q 43.3125 62.59375 39.796875 65.984375 
Q 36.28125 69.390625 29.6875 69.390625 
Q 23.09375 69.390625 19.453125 66.265625 
Q 15.828125 63.140625 15.1875 56.984375 
L 9.71875 56.984375 
z
" id="DejaVuSerif-33"/>
      </defs>
      <g transform="translate(414.906392 345.514261)scale(0.25 -0.25)">
       <use xlink:href="#DejaVuSerif-33"/>
      </g>
     </g>
    </g>
    <g id="text_5">
     <!-- $t$ [s] -->
     <defs>
      <path d="M 42.28125 54.6875 
L 40.921875 47.703125 
L 23 47.703125 
L 17.1875 18.015625 
Q 16.890625 16.359375 16.75 15.234375 
Q 16.609375 14.109375 16.609375 13.484375 
Q 16.609375 10.359375 18.484375 8.9375 
Q 20.359375 7.515625 24.515625 7.515625 
L 33.59375 7.515625 
L 32.078125 0 
L 23.484375 0 
Q 15.484375 0 11.546875 3.125 
Q 7.625 6.25 7.625 12.59375 
Q 7.625 13.71875 7.765625 15.0625 
Q 7.90625 16.40625 8.203125 18.015625 
L 14.015625 47.703125 
L 6.390625 47.703125 
L 7.8125 54.6875 
L 15.28125 54.6875 
L 18.3125 70.21875 
L 27.296875 70.21875 
L 24.3125 54.6875 
z
" id="DejaVuSans-Oblique-74"/>
      <path id="DejaVuSerif-20"/>
      <path d="M 8.59375 75.984375 
L 31.296875 75.984375 
L 31.296875 70.796875 
L 17.921875 70.796875 
L 17.921875 -8.015625 
L 31.296875 -8.015625 
L 31.296875 -13.1875 
L 8.59375 -13.1875 
z
" id="DejaVuSerif-5b"/>
      <path d="M 5.609375 2.875 
L 5.609375 14.984375 
L 10.796875 14.984375 
Q 10.984375 9.1875 14.421875 6.296875 
Q 17.875 3.421875 24.609375 3.421875 
Q 30.671875 3.421875 33.84375 5.6875 
Q 37.015625 7.953125 37.015625 12.3125 
Q 37.015625 15.71875 34.6875 17.8125 
Q 32.375 19.921875 24.90625 22.3125 
L 18.40625 24.515625 
Q 11.71875 26.65625 8.71875 29.875 
Q 5.71875 33.109375 5.71875 38.09375 
Q 5.71875 45.21875 10.9375 49.265625 
Q 16.15625 53.328125 25.390625 53.328125 
Q 29.5 53.328125 34.03125 52.25 
Q 38.578125 51.171875 43.40625 49.125 
L 43.40625 37.796875 
L 38.234375 37.796875 
Q 38.03125 42.828125 34.703125 45.65625 
Q 31.390625 48.484375 25.6875 48.484375 
Q 20.015625 48.484375 17.109375 46.484375 
Q 14.203125 44.484375 14.203125 40.484375 
Q 14.203125 37.203125 16.40625 35.21875 
Q 18.609375 33.25 25.203125 31.203125 
L 32.328125 29 
Q 39.703125 26.703125 42.9375 23.265625 
Q 46.1875 19.828125 46.1875 14.40625 
Q 46.1875 7.03125 40.546875 2.796875 
Q 34.90625 -1.421875 25 -1.421875 
Q 19.96875 -1.421875 15.1875 -0.34375 
Q 10.40625 0.734375 5.609375 2.875 
z
" id="DejaVuSerif-73"/>
      <path d="M 30.421875 75.984375 
L 30.421875 -13.1875 
L 7.71875 -13.1875 
L 7.71875 -8.015625 
L 21.09375 -8.015625 
L 21.09375 70.796875 
L 7.71875 70.796875 
L 7.71875 75.984375 
z
" id="DejaVuSerif-5d"/>
     </defs>
     <g transform="translate(231.735937 373.709574)scale(0.25 -0.25)">
      <use transform="translate(0 0.015625)" xlink:href="#DejaVuSans-Oblique-74"/>
      <use transform="translate(39.208984 0.015625)" xlink:href="#DejaVuSerif-20"/>
      <use transform="translate(70.996094 0.015625)" xlink:href="#DejaVuSerif-5b"/>
      <use transform="translate(110.009766 0.015625)" xlink:href="#DejaVuSerif-73"/>
      <use transform="translate(161.328125 0.015625)" xlink:href="#DejaVuSerif-5d"/>
     </g>
    </g>
   </g>
   <g id="matplotlib.axis_2">
    <g id="ytick_1">
     <g id="line2d_9">
      <path clip-path="url(#p405a461bbc)" d="M 74.2625 305.537628 
L 439.459375 305.537628 
" style="fill:none;stroke:#b0b0b0;stroke-linecap:square;stroke-width:0.8;"/>
     </g>
     <g id="line2d_10">
      <defs>
       <path d="M 0 0 
L -3.5 0 
" id="m54921828e7" style="stroke:#000000;stroke-width:0.8;"/>
      </defs>
      <g>
       <use style="stroke:#000000;stroke-width:0.8;" x="74.2625" xlink:href="#m54921828e7" y="305.537628"/>
      </g>
     </g>
     <g id="text_6">
      <!-- 0 -->
      <g style="fill:#ff0000;" transform="translate(51.35625 315.035675)scale(0.25 -0.25)">
       <use xlink:href="#DejaVuSerif-30"/>
      </g>
     </g>
    </g>
    <g id="ytick_2">
     <g id="line2d_11">
      <path clip-path="url(#p405a461bbc)" d="M 74.2625 242.625204 
L 439.459375 242.625204 
" style="fill:none;stroke:#b0b0b0;stroke-linecap:square;stroke-width:0.8;"/>
     </g>
     <g id="line2d_12">
      <g>
       <use style="stroke:#000000;stroke-width:0.8;" x="74.2625" xlink:href="#m54921828e7" y="242.625204"/>
      </g>
     </g>
     <g id="text_7">
      <!-- 15 -->
      <defs>
       <path d="M 50.296875 72.90625 
L 50.296875 64.890625 
L 16.890625 64.890625 
L 16.890625 44 
Q 19.4375 45.75 22.828125 46.625 
Q 26.21875 47.515625 30.421875 47.515625 
Q 42.234375 47.515625 49.0625 40.96875 
Q 55.90625 34.421875 55.90625 23.09375 
Q 55.90625 11.53125 49 5.046875 
Q 42.09375 -1.421875 29.59375 -1.421875 
Q 24.5625 -1.421875 19.28125 -0.1875 
Q 14.015625 1.03125 8.5 3.515625 
L 8.5 17.671875 
L 14.015625 17.671875 
Q 14.453125 10.75 18.421875 7.078125 
Q 22.40625 3.421875 29.59375 3.421875 
Q 37.3125 3.421875 41.453125 8.5 
Q 45.609375 13.578125 45.609375 23.09375 
Q 45.609375 32.5625 41.484375 37.609375 
Q 37.359375 42.671875 29.59375 42.671875 
Q 25.203125 42.671875 21.84375 41.109375 
Q 18.5 39.546875 15.921875 36.28125 
L 11.71875 36.28125 
L 11.71875 72.90625 
z
" id="DejaVuSerif-35"/>
      </defs>
      <g style="fill:#ff0000;" transform="translate(35.45 252.123251)scale(0.25 -0.25)">
       <use xlink:href="#DejaVuSerif-31"/>
       <use x="63.623047" xlink:href="#DejaVuSerif-35"/>
      </g>
     </g>
    </g>
    <g id="ytick_3">
     <g id="line2d_13">
      <path clip-path="url(#p405a461bbc)" d="M 74.2625 179.71278 
L 439.459375 179.71278 
" style="fill:none;stroke:#b0b0b0;stroke-linecap:square;stroke-width:0.8;"/>
     </g>
     <g id="line2d_14">
      <g>
       <use style="stroke:#000000;stroke-width:0.8;" x="74.2625" xlink:href="#m54921828e7" y="179.71278"/>
      </g>
     </g>
     <g id="text_8">
      <!-- 30 -->
      <g style="fill:#ff0000;" transform="translate(35.45 189.210827)scale(0.25 -0.25)">
       <use xlink:href="#DejaVuSerif-33"/>
       <use x="63.623047" xlink:href="#DejaVuSerif-30"/>
      </g>
     </g>
    </g>
    <g id="ytick_4">
     <g id="line2d_15">
      <path clip-path="url(#p405a461bbc)" d="M 74.2625 116.800357 
L 439.459375 116.800357 
" style="fill:none;stroke:#b0b0b0;stroke-linecap:square;stroke-width:0.8;"/>
     </g>
     <g id="line2d_16">
      <g>
       <use style="stroke:#000000;stroke-width:0.8;" x="74.2625" xlink:href="#m54921828e7" y="116.800357"/>
      </g>
     </g>
     <g id="text_9">
      <!-- 45 -->
      <defs>
       <path d="M 34.90625 24.703125 
L 34.90625 63.484375 
L 10.015625 24.703125 
z
M 56.390625 0 
L 23.1875 0 
L 23.1875 5.171875 
L 34.90625 5.171875 
L 34.90625 19.484375 
L 3.078125 19.484375 
L 3.078125 24.8125 
L 35.015625 74.21875 
L 44.671875 74.21875 
L 44.671875 24.703125 
L 58.59375 24.703125 
L 58.59375 19.484375 
L 44.671875 19.484375 
L 44.671875 5.171875 
L 56.390625 5.171875 
z
" id="DejaVuSerif-34"/>
      </defs>
      <g style="fill:#ff0000;" transform="translate(35.45 126.298404)scale(0.25 -0.25)">
       <use xlink:href="#DejaVuSerif-34"/>
       <use x="63.623047" xlink:href="#DejaVuSerif-35"/>
      </g>
     </g>
    </g>
    <g id="ytick_5">
     <g id="line2d_17">
      <path clip-path="url(#p405a461bbc)" d="M 74.2625 53.887933 
L 439.459375 53.887933 
" style="fill:none;stroke:#b0b0b0;stroke-linecap:square;stroke-width:0.8;"/>
     </g>
     <g id="line2d_18">
      <g>
       <use style="stroke:#000000;stroke-width:0.8;" x="74.2625" xlink:href="#m54921828e7" y="53.887933"/>
      </g>
     </g>
     <g id="text_10">
      <!-- 60 -->
      <defs>
       <path d="M 32.71875 3.421875 
Q 39.59375 3.421875 43.296875 8.46875 
Q 47.015625 13.53125 47.015625 23 
Q 47.015625 32.46875 43.296875 37.515625 
Q 39.59375 42.578125 32.71875 42.578125 
Q 25.734375 42.578125 22.0625 37.6875 
Q 18.40625 32.8125 18.40625 23.578125 
Q 18.40625 13.875 22.109375 8.640625 
Q 25.828125 3.421875 32.71875 3.421875 
z
M 16.796875 40.140625 
Q 20.125 43.796875 24.3125 45.59375 
Q 28.515625 47.40625 33.796875 47.40625 
Q 44.671875 47.40625 51 40.859375 
Q 57.328125 34.328125 57.328125 23 
Q 57.328125 11.921875 50.515625 5.25 
Q 43.703125 -1.421875 32.328125 -1.421875 
Q 19.96875 -1.421875 13.328125 7.78125 
Q 6.6875 17 6.6875 34.078125 
Q 6.6875 53.21875 14.546875 63.71875 
Q 22.40625 74.21875 36.71875 74.21875 
Q 40.578125 74.21875 44.828125 73.484375 
Q 49.078125 72.75 53.515625 71.296875 
L 53.515625 59.28125 
L 48 59.28125 
Q 47.40625 64.203125 44.234375 66.796875 
Q 41.0625 69.390625 35.6875 69.390625 
Q 26.21875 69.390625 21.578125 62.203125 
Q 16.9375 55.03125 16.796875 40.140625 
z
" id="DejaVuSerif-36"/>
      </defs>
      <g style="fill:#ff0000;" transform="translate(35.45 63.38598)scale(0.25 -0.25)">
       <use xlink:href="#DejaVuSerif-36"/>
       <use x="63.623047" xlink:href="#DejaVuSerif-30"/>
      </g>
     </g>
    </g>
    <g id="text_11">
     <!-- $J_2$ [MPa] -->
     <defs>
      <path d="M 16.703125 72.90625 
L 26.609375 72.90625 
L 13.375 5.078125 
Q 10.796875 -8.15625 4.65625 -14.078125 
Q -1.46875 -20.015625 -12.5 -20.015625 
L -16.40625 -20.015625 
L -14.796875 -11.71875 
L -11.71875 -11.71875 
Q -5.125 -11.71875 -1.703125 -7.953125 
Q 1.703125 -4.203125 3.515625 5.078125 
z
" id="DejaVuSans-Oblique-4a"/>
      <path d="M 19.1875 8.296875 
L 53.609375 8.296875 
L 53.609375 0 
L 7.328125 0 
L 7.328125 8.296875 
Q 12.9375 14.109375 22.625 23.890625 
Q 32.328125 33.6875 34.8125 36.53125 
Q 39.546875 41.84375 41.421875 45.53125 
Q 43.3125 49.21875 43.3125 52.78125 
Q 43.3125 58.59375 39.234375 62.25 
Q 35.15625 65.921875 28.609375 65.921875 
Q 23.96875 65.921875 18.8125 64.3125 
Q 13.671875 62.703125 7.8125 59.421875 
L 7.8125 69.390625 
Q 13.765625 71.78125 18.9375 73 
Q 24.125 74.21875 28.421875 74.21875 
Q 39.75 74.21875 46.484375 68.546875 
Q 53.21875 62.890625 53.21875 53.421875 
Q 53.21875 48.921875 51.53125 44.890625 
Q 49.859375 40.875 45.40625 35.40625 
Q 44.1875 33.984375 37.640625 27.21875 
Q 31.109375 20.453125 19.1875 8.296875 
z
" id="DejaVuSans-32"/>
      <path d="M 5.515625 0 
L 5.515625 5.171875 
L 14.796875 5.171875 
L 14.796875 67.671875 
L 4.984375 67.671875 
L 4.984375 72.90625 
L 26.21875 72.90625 
L 51.8125 21 
L 77.390625 72.90625 
L 97.3125 72.90625 
L 97.3125 67.671875 
L 87.59375 67.671875 
L 87.59375 5.171875 
L 96.921875 5.171875 
L 96.921875 0 
L 68.40625 0 
L 68.40625 5.171875 
L 77.6875 5.171875 
L 77.6875 61.53125 
L 52.6875 10.6875 
L 45.796875 10.6875 
L 20.796875 61.53125 
L 20.796875 5.171875 
L 30.078125 5.171875 
L 30.078125 0 
z
" id="DejaVuSerif-4d"/>
      <path d="M 24.703125 37.109375 
L 37.59375 37.109375 
Q 44.875 37.109375 48.671875 41.03125 
Q 52.484375 44.96875 52.484375 52.390625 
Q 52.484375 59.859375 48.671875 63.765625 
Q 44.875 67.671875 37.59375 67.671875 
L 24.703125 67.671875 
z
M 5.515625 0 
L 5.515625 5.171875 
L 14.796875 5.171875 
L 14.796875 67.671875 
L 5.515625 67.671875 
L 5.515625 72.90625 
L 39.984375 72.90625 
Q 50.921875 72.90625 57.3125 67.359375 
Q 63.71875 61.8125 63.71875 52.390625 
Q 63.71875 43.015625 57.3125 37.453125 
Q 50.921875 31.890625 39.984375 31.890625 
L 24.703125 31.890625 
L 24.703125 5.171875 
L 35.984375 5.171875 
L 35.984375 0 
z
" id="DejaVuSerif-50"/>
      <path d="M 39.796875 16.3125 
L 39.796875 27.296875 
L 28.21875 27.296875 
Q 21.53125 27.296875 18.25 24.40625 
Q 14.984375 21.53125 14.984375 15.578125 
Q 14.984375 10.15625 18.296875 6.984375 
Q 21.625 3.8125 27.296875 3.8125 
Q 32.90625 3.8125 36.34375 7.28125 
Q 39.796875 10.75 39.796875 16.3125 
z
M 48.78125 32.421875 
L 48.78125 5.171875 
L 56.78125 5.171875 
L 56.78125 0 
L 39.796875 0 
L 39.796875 5.609375 
Q 36.8125 2 32.90625 0.28125 
Q 29 -1.421875 23.78125 -1.421875 
Q 15.140625 -1.421875 10.0625 3.171875 
Q 4.984375 7.765625 4.984375 15.578125 
Q 4.984375 23.640625 10.796875 28.078125 
Q 16.609375 32.515625 27.203125 32.515625 
L 39.796875 32.515625 
L 39.796875 36.078125 
Q 39.796875 42 36.203125 45.234375 
Q 32.625 48.484375 26.125 48.484375 
Q 20.75 48.484375 17.578125 46.046875 
Q 14.40625 43.609375 13.625 38.8125 
L 8.984375 38.8125 
L 8.984375 49.3125 
Q 13.671875 51.3125 18.09375 52.3125 
Q 22.515625 53.328125 26.703125 53.328125 
Q 37.5 53.328125 43.140625 47.96875 
Q 48.78125 42.625 48.78125 32.421875 
z
" id="DejaVuSerif-61"/>
     </defs>
     <g style="fill:#ff0000;" transform="translate(26.2 217.73223)rotate(-90)scale(0.25 -0.25)">
      <use transform="translate(0 0.015625)" xlink:href="#DejaVuSans-Oblique-4a"/>
      <use transform="translate(29.492188 -16.390625)scale(0.7)" xlink:href="#DejaVuSans-32"/>
      <use transform="translate(76.762695 0.015625)" xlink:href="#DejaVuSerif-20"/>
      <use transform="translate(108.549805 0.015625)" xlink:href="#DejaVuSerif-5b"/>
      <use transform="translate(147.563477 0.015625)" xlink:href="#DejaVuSerif-4d"/>
      <use transform="translate(249.956055 0.015625)" xlink:href="#DejaVuSerif-50"/>
      <use transform="translate(317.241211 0.015625)" xlink:href="#DejaVuSerif-61"/>
      <use transform="translate(376.860352 0.015625)" xlink:href="#DejaVuSerif-5d"/>
     </g>
    </g>
   </g>
   <g id="line2d_19">
    <path clip-path="url(#p405a461bbc)" d="M 90.862358 305.537628 
L 201.528078 305.537625 
L 212.59465 274.469764 
L 223.661222 243.401901 
L 234.727794 212.334037 
L 245.794366 181.266173 
L 256.860938 150.19831 
L 267.927509 119.130446 
L 278.994081 88.062583 
L 290.060653 56.994719 
L 301.127225 25.926856 
L 312.193797 25.926832 
L 323.260369 26.297003 
L 334.326941 26.695309 
L 345.393513 27.117158 
L 356.460085 27.561708 
L 367.526657 28.028179 
L 378.593229 28.515817 
L 389.659801 29.023889 
L 400.726373 29.551684 
L 411.792945 30.098509 
L 422.859517 30.663692 
" style="fill:none;stroke:#ff0000;stroke-linecap:square;stroke-width:1.5;"/>
    <defs>
     <path d="M 0 5 
C 1.326016 5 2.597899 4.473168 3.535534 3.535534 
C 4.473168 2.597899 5 1.326016 5 0 
C 5 -1.326016 4.473168 -2.597899 3.535534 -3.535534 
C 2.597899 -4.473168 1.326016 -5 0 -5 
C -1.326016 -5 -2.597899 -4.473168 -3.535534 -3.535534 
C -4.473168 -2.597899 -5 -1.326016 -5 0 
C -5 1.326016 -4.473168 2.597899 -3.535534 3.535534 
C -2.597899 4.473168 -1.326016 5 0 5 
z
" id="m1c64cec71e" style="stroke:#ff0000;stroke-width:2;"/>
    </defs>
    <g clip-path="url(#p405a461bbc)">
     <use style="fill-opacity:0;stroke:#ff0000;stroke-width:2;" x="90.862358" xlink:href="#m1c64cec71e" y="305.537628"/>
     <use style="fill-opacity:0;stroke:#ff0000;stroke-width:2;" x="201.528078" xlink:href="#m1c64cec71e" y="305.537625"/>
     <use style="fill-opacity:0;stroke:#ff0000;stroke-width:2;" x="212.59465" xlink:href="#m1c64cec71e" y="274.469764"/>
     <use style="fill-opacity:0;stroke:#ff0000;stroke-width:2;" x="223.661222" xlink:href="#m1c64cec71e" y="243.401901"/>
     <use style="fill-opacity:0;stroke:#ff0000;stroke-width:2;" x="234.727794" xlink:href="#m1c64cec71e" y="212.334037"/>
     <use style="fill-opacity:0;stroke:#ff0000;stroke-width:2;" x="245.794366" xlink:href="#m1c64cec71e" y="181.266173"/>
     <use style="fill-opacity:0;stroke:#ff0000;stroke-width:2;" x="256.860938" xlink:href="#m1c64cec71e" y="150.19831"/>
     <use style="fill-opacity:0;stroke:#ff0000;stroke-width:2;" x="267.927509" xlink:href="#m1c64cec71e" y="119.130446"/>
     <use style="fill-opacity:0;stroke:#ff0000;stroke-width:2;" x="278.994081" xlink:href="#m1c64cec71e" y="88.062583"/>
     <use style="fill-opacity:0;stroke:#ff0000;stroke-width:2;" x="290.060653" xlink:href="#m1c64cec71e" y="56.994719"/>
     <use style="fill-opacity:0;stroke:#ff0000;stroke-width:2;" x="301.127225" xlink:href="#m1c64cec71e" y="25.926856"/>
     <use style="fill-opacity:0;stroke:#ff0000;stroke-width:2;" x="312.193797" xlink:href="#m1c64cec71e" y="25.926832"/>
     <use style="fill-opacity:0;stroke:#ff0000;stroke-width:2;" x="323.260369" xlink:href="#m1c64cec71e" y="26.297003"/>
     <use style="fill-opacity:0;stroke:#ff0000;stroke-width:2;" x="334.326941" xlink:href="#m1c64cec71e" y="26.695309"/>
     <use style="fill-opacity:0;stroke:#ff0000;stroke-width:2;" x="345.393513" xlink:href="#m1c64cec71e" y="27.117158"/>
     <use style="fill-opacity:0;stroke:#ff0000;stroke-width:2;" x="356.460085" xlink:href="#m1c64cec71e" y="27.561708"/>
     <use style="fill-opacity:0;stroke:#ff0000;stroke-width:2;" x="367.526657" xlink:href="#m1c64cec71e" y="28.028179"/>
     <use style="fill-opacity:0;stroke:#ff0000;stroke-width:2;" x="378.593229" xlink:href="#m1c64cec71e" y="28.515817"/>
     <use style="fill-opacity:0;stroke:#ff0000;stroke-width:2;" x="389.659801" xlink:href="#m1c64cec71e" y="29.023889"/>
     <use style="fill-opacity:0;stroke:#ff0000;stroke-width:2;" x="400.726373" xlink:href="#m1c64cec71e" y="29.551684"/>
     <use style="fill-opacity:0;stroke:#ff0000;stroke-width:2;" x="411.792945" xlink:href="#m1c64cec71e" y="30.098509"/>
     <use style="fill-opacity:0;stroke:#ff0000;stroke-width:2;" x="422.859517" xlink:href="#m1c64cec71e" y="30.663692"/>
    </g>
   </g>
   <g id="patch_3">
    <path d="M 74.2625 319.518167 
L 74.2625 11.946292 
" style="fill:none;stroke:#000000;stroke-linecap:square;stroke-linejoin:miter;stroke-width:0.8;"/>
   </g>
   <g id="patch_4">
    <path d="M 439.459375 319.518167 
L 439.459375 11.946292 
" style="fill:none;stroke:#000000;stroke-linecap:square;stroke-linejoin:miter;stroke-width:0.8;"/>
   </g>
   <g id="patch_5">
    <path d="M 74.2625 319.518167 
L 439.459375 319.518167 
" style="fill:none;stroke:#000000;stroke-linecap:square;stroke-linejoin:miter;stroke-width:0.8;"/>
   </g>
   <g id="patch_6">
    <path d="M 74.2625 11.946292 
L 439.459375 11.946292 
" style="fill:none;stroke:#000000;stroke-linecap:square;stroke-linejoin:miter;stroke-width:0.8;"/>
   </g>
  </g>
  <g id="axes_2">
   <g id="matplotlib.axis_3">
    <g id="ytick_6">
     <g id="line2d_20">
      <defs>
       <path d="M 0 0 
L 3.5 0 
" id="m0341d15cef" style="stroke:#000000;stroke-width:0.8;"/>
      </defs>
      <g>
       <use style="stroke:#000000;stroke-width:0.8;" x="439.459375" xlink:href="#m0341d15cef" y="264.274022"/>
      </g>
     </g>
     <g id="text_12">
      <!-- −133.0 -->
      <defs>
       <path d="M 10.59375 35.296875 
L 73.1875 35.296875 
L 73.1875 27.390625 
L 10.59375 27.390625 
z
" id="DejaVuSerif-2212"/>
       <path d="M 9.421875 5.078125 
Q 9.421875 7.8125 11.28125 9.71875 
Q 13.140625 11.625 15.921875 11.625 
Q 18.609375 11.625 20.5 9.71875 
Q 22.40625 7.8125 22.40625 5.078125 
Q 22.40625 2.390625 20.5 0.484375 
Q 18.609375 -1.421875 15.921875 -1.421875 
Q 13.140625 -1.421875 11.28125 0.453125 
Q 9.421875 2.34375 9.421875 5.078125 
z
" id="DejaVuSerif-2e"/>
      </defs>
      <g style="fill:#008000;" transform="translate(446.459375 273.772069)scale(0.25 -0.25)">
       <use xlink:href="#DejaVuSerif-2212"/>
       <use x="83.789062" xlink:href="#DejaVuSerif-31"/>
       <use x="147.412109" xlink:href="#DejaVuSerif-33"/>
       <use x="211.035156" xlink:href="#DejaVuSerif-33"/>
       <use x="274.658203" xlink:href="#DejaVuSerif-2e"/>
       <use x="306.445312" xlink:href="#DejaVuSerif-30"/>
      </g>
     </g>
    </g>
    <g id="ytick_7">
     <g id="line2d_21">
      <g>
       <use style="stroke:#000000;stroke-width:0.8;" x="439.459375" xlink:href="#m0341d15cef" y="202.380028"/>
      </g>
     </g>
     <g id="text_13">
      <!-- −132.5 -->
      <g style="fill:#008000;" transform="translate(446.459375 211.878075)scale(0.25 -0.25)">
       <use xlink:href="#DejaVuSerif-2212"/>
       <use x="83.789062" xlink:href="#DejaVuSerif-31"/>
       <use x="147.412109" xlink:href="#DejaVuSerif-33"/>
       <use x="211.035156" xlink:href="#DejaVuSerif-32"/>
       <use x="274.658203" xlink:href="#DejaVuSerif-2e"/>
       <use x="306.445312" xlink:href="#DejaVuSerif-35"/>
      </g>
     </g>
    </g>
    <g id="ytick_8">
     <g id="line2d_22">
      <g>
       <use style="stroke:#000000;stroke-width:0.8;" x="439.459375" xlink:href="#m0341d15cef" y="140.486035"/>
      </g>
     </g>
     <g id="text_14">
      <!-- −132.0 -->
      <g style="fill:#008000;" transform="translate(446.459375 149.984081)scale(0.25 -0.25)">
       <use xlink:href="#DejaVuSerif-2212"/>
       <use x="83.789062" xlink:href="#DejaVuSerif-31"/>
       <use x="147.412109" xlink:href="#DejaVuSerif-33"/>
       <use x="211.035156" xlink:href="#DejaVuSerif-32"/>
       <use x="274.658203" xlink:href="#DejaVuSerif-2e"/>
       <use x="306.445312" xlink:href="#DejaVuSerif-30"/>
      </g>
     </g>
    </g>
    <g id="ytick_9">
     <g id="line2d_23">
      <g>
       <use style="stroke:#000000;stroke-width:0.8;" x="439.459375" xlink:href="#m0341d15cef" y="78.592041"/>
      </g>
     </g>
     <g id="text_15">
      <!-- −131.5 -->
      <g style="fill:#008000;" transform="translate(446.459375 88.090088)scale(0.25 -0.25)">
       <use xlink:href="#DejaVuSerif-2212"/>
       <use x="83.789062" xlink:href="#DejaVuSerif-31"/>
       <use x="147.412109" xlink:href="#DejaVuSerif-33"/>
       <use x="211.035156" xlink:href="#DejaVuSerif-31"/>
       <use x="274.658203" xlink:href="#DejaVuSerif-2e"/>
       <use x="306.445312" xlink:href="#DejaVuSerif-35"/>
      </g>
     </g>
    </g>
    <g id="ytick_10">
     <g id="line2d_24">
      <g>
       <use style="stroke:#000000;stroke-width:0.8;" x="439.459375" xlink:href="#m0341d15cef" y="16.698047"/>
      </g>
     </g>
     <g id="text_16">
      <!-- −131.0 -->
      <g style="fill:#008000;" transform="translate(446.459375 26.196094)scale(0.25 -0.25)">
       <use xlink:href="#DejaVuSerif-2212"/>
       <use x="83.789062" xlink:href="#DejaVuSerif-31"/>
       <use x="147.412109" xlink:href="#DejaVuSerif-33"/>
       <use x="211.035156" xlink:href="#DejaVuSerif-31"/>
       <use x="274.658203" xlink:href="#DejaVuSerif-2e"/>
       <use x="306.445312" xlink:href="#DejaVuSerif-30"/>
      </g>
     </g>
    </g>
    <g id="text_17">
     <!-- $P^\prime$ [MPa] -->
     <defs>
      <path d="M 16.890625 72.90625 
L 39.703125 72.90625 
Q 49.65625 72.90625 54.875 68.265625 
Q 60.109375 63.625 60.109375 54.6875 
Q 60.109375 42.671875 52.390625 35.984375 
Q 44.671875 29.296875 30.71875 29.296875 
L 18.3125 29.296875 
L 12.59375 0 
L 2.6875 0 
z
M 25.203125 64.796875 
L 19.921875 37.40625 
L 32.328125 37.40625 
Q 40.71875 37.40625 45.203125 41.703125 
Q 49.703125 46 49.703125 54 
Q 49.703125 59.125 46.65625 61.953125 
Q 43.609375 64.796875 38.09375 64.796875 
z
" id="DejaVuSans-Oblique-50"/>
      <path d="M 3.515625 5.421875 
Q 2.875 5.609375 2.875 6.390625 
L 15.09375 51.8125 
Q 15.671875 53.65625 17.078125 54.78125 
Q 18.5 55.90625 20.3125 55.90625 
Q 22.65625 55.90625 24.4375 54.359375 
Q 26.21875 52.828125 26.21875 50.484375 
Q 26.21875 49.46875 25.6875 48.1875 
L 7.625 4.984375 
Q 7.28125 4.296875 6.6875 4.296875 
Q 6.15625 4.296875 5 4.78125 
Q 3.859375 5.28125 3.515625 5.421875 
z
" id="Cmsy10-30"/>
     </defs>
     <g style="fill:#008000;" transform="translate(561.975 219.35723)rotate(-90)scale(0.25 -0.25)">
      <use transform="translate(0 0.584375)" xlink:href="#DejaVuSans-Oblique-50"/>
      <use transform="translate(67.319505 38.865625)scale(0.7)" xlink:href="#Cmsy10-30"/>
      <use transform="translate(89.297044 0.584375)" xlink:href="#DejaVuSerif-20"/>
      <use transform="translate(121.084154 0.584375)" xlink:href="#DejaVuSerif-5b"/>
      <use transform="translate(160.097826 0.584375)" xlink:href="#DejaVuSerif-4d"/>
      <use transform="translate(262.490404 0.584375)" xlink:href="#DejaVuSerif-50"/>
      <use transform="translate(329.77556 0.584375)" xlink:href="#DejaVuSerif-61"/>
      <use transform="translate(389.394701 0.584375)" xlink:href="#DejaVuSerif-5d"/>
     </g>
    </g>
   </g>
   <g id="line2d_25">
    <path clip-path="url(#p405a461bbc)" d="M 90.862358 305.536685 
L 201.528078 305.53689 
L 212.59465 305.536972 
L 223.661222 305.537054 
L 234.727794 305.537136 
L 245.794366 305.537218 
L 256.860938 305.5373 
L 267.927509 305.537382 
L 278.994081 305.537464 
L 290.060653 305.537546 
L 301.127225 305.537628 
L 312.193797 305.537587 
L 323.260369 283.686869 
L 334.326941 260.175377 
L 345.393513 235.274158 
L 356.460085 209.032986 
L 367.526657 181.497794 
L 378.593229 152.71314 
L 389.659801 122.722289 
L 400.726373 91.567263 
L 411.792945 59.288887 
L 422.859517 25.926832 
" style="fill:none;stroke:#008000;stroke-dasharray:5.55,2.4;stroke-dashoffset:0;stroke-width:1.5;"/>
    <defs>
     <path d="M -5 5 
L 5 5 
L 5 -5 
L -5 -5 
z
" id="m24e1e43f0f" style="stroke:#008000;stroke-linejoin:miter;"/>
    </defs>
    <g clip-path="url(#p405a461bbc)">
     <use style="fill:#008000;stroke:#008000;stroke-linejoin:miter;" x="90.862358" xlink:href="#m24e1e43f0f" y="305.536685"/>
     <use style="fill:#008000;stroke:#008000;stroke-linejoin:miter;" x="201.528078" xlink:href="#m24e1e43f0f" y="305.53689"/>
     <use style="fill:#008000;stroke:#008000;stroke-linejoin:miter;" x="212.59465" xlink:href="#m24e1e43f0f" y="305.536972"/>
     <use style="fill:#008000;stroke:#008000;stroke-linejoin:miter;" x="223.661222" xlink:href="#m24e1e43f0f" y="305.537054"/>
     <use style="fill:#008000;stroke:#008000;stroke-linejoin:miter;" x="234.727794" xlink:href="#m24e1e43f0f" y="305.537136"/>
     <use style="fill:#008000;stroke:#008000;stroke-linejoin:miter;" x="245.794366" xlink:href="#m24e1e43f0f" y="305.537218"/>
     <use style="fill:#008000;stroke:#008000;stroke-linejoin:miter;" x="256.860938" xlink:href="#m24e1e43f0f" y="305.5373"/>
     <use style="fill:#008000;stroke:#008000;stroke-linejoin:miter;" x="267.927509" xlink:href="#m24e1e43f0f" y="305.537382"/>
     <use style="fill:#008000;stroke:#008000;stroke-linejoin:miter;" x="278.994081" xlink:href="#m24e1e43f0f" y="305.537464"/>
     <use style="fill:#008000;stroke:#008000;stroke-linejoin:miter;" x="290.060653" xlink:href="#m24e1e43f0f" y="305.537546"/>
     <use style="fill:#008000;stroke:#008000;stroke-linejoin:miter;" x="301.127225" xlink:href="#m24e1e43f0f" y="305.537628"/>
     <use style="fill:#008000;stroke:#008000;stroke-linejoin:miter;" x="312.193797" xlink:href="#m24e1e43f0f" y="305.537587"/>
     <use style="fill:#008000;stroke:#008000;stroke-linejoin:miter;" x="323.260369" xlink:href="#m24e1e43f0f" y="283.686869"/>
     <use style="fill:#008000;stroke:#008000;stroke-linejoin:miter;" x="334.326941" xlink:href="#m24e1e43f0f" y="260.175377"/>
     <use style="fill:#008000;stroke:#008000;stroke-linejoin:miter;" x="345.393513" xlink:href="#m24e1e43f0f" y="235.274158"/>
     <use style="fill:#008000;stroke:#008000;stroke-linejoin:miter;" x="356.460085" xlink:href="#m24e1e43f0f" y="209.032986"/>
     <use style="fill:#008000;stroke:#008000;stroke-linejoin:miter;" x="367.526657" xlink:href="#m24e1e43f0f" y="181.497794"/>
     <use style="fill:#008000;stroke:#008000;stroke-linejoin:miter;" x="378.593229" xlink:href="#m24e1e43f0f" y="152.71314"/>
     <use style="fill:#008000;stroke:#008000;stroke-linejoin:miter;" x="389.659801" xlink:href="#m24e1e43f0f" y="122.722289"/>
     <use style="fill:#008000;stroke:#008000;stroke-linejoin:miter;" x="400.726373" xlink:href="#m24e1e43f0f" y="91.567263"/>
     <use style="fill:#008000;stroke:#008000;stroke-linejoin:miter;" x="411.792945" xlink:href="#m24e1e43f0f" y="59.288887"/>
     <use style="fill:#008000;stroke:#008000;stroke-linejoin:miter;" x="422.859517" xlink:href="#m24e1e43f0f" y="25.926832"/>
    </g>
   </g>
   <g id="patch_7">
    <path d="M 74.2625 319.518167 
L 74.2625 11.946292 
" style="fill:none;stroke:#000000;stroke-linecap:square;stroke-linejoin:miter;stroke-width:0.8;"/>
   </g>
   <g id="patch_8">
    <path d="M 439.459375 319.518167 
L 439.459375 11.946292 
" style="fill:none;stroke:#000000;stroke-linecap:square;stroke-linejoin:miter;stroke-width:0.8;"/>
   </g>
   <g id="patch_9">
    <path d="M 74.2625 319.518167 
L 439.459375 319.518167 
" style="fill:none;stroke:#000000;stroke-linecap:square;stroke-linejoin:miter;stroke-width:0.8;"/>
   </g>
   <g id="patch_10">
    <path d="M 74.2625 11.946292 
L 439.459375 11.946292 
" style="fill:none;stroke:#000000;stroke-linecap:square;stroke-linejoin:miter;stroke-width:0.8;"/>
   </g>
  </g>
 </g>
 <defs>
  <clipPath id="p405a461bbc">
   <rect height="307.571875" width="365.196875" x="74.2625" y="11.946292"/>
  </clipPath>
 </defs>
</svg>
