<?xml version="1.0" encoding="utf-8" standalone="no"?>
<!DOCTYPE svg PUBLIC "-//W3C//DTD SVG 1.1//EN"
  "http://www.w3.org/Graphics/SVG/1.1/DTD/svg11.dtd">
<!-- Created with matplotlib (http://matplotlib.org/) -->
<svg height="424.926719pt" version="1.1" viewBox="0 0 538.20625 424.926719" width="538.20625pt" xmlns="http://www.w3.org/2000/svg" xmlns:xlink="http://www.w3.org/1999/xlink">
 <defs>
  <style type="text/css">
*{stroke-linecap:butt;stroke-linejoin:round;}
  </style>
 </defs>
 <g id="figure_1">
  <g id="patch_1">
   <path d="M 0 424.926719 
L 538.20625 424.926719 
L 538.20625 0 
L 0 0 
z
" style="fill:#ffffff;"/>
  </g>
  <g id="axes_1">
   <g id="patch_2">
    <path d="M 82.60625 361.836094 
L 529.00625 361.836094 
L 529.00625 29.196094 
L 82.60625 29.196094 
z
" style="fill:#ffffff;"/>
   </g>
   <g id="matplotlib.axis_1">
    <g id="xtick_1">
     <g id="line2d_1">
      <path clip-path="url(#p5e7db33056)" d="M 102.897159 361.836094 
L 102.897159 29.196094 
" style="fill:none;stroke:#b0b0b0;stroke-linecap:square;stroke-width:0.8;"/>
     </g>
     <g id="line2d_2">
      <defs>
       <path d="M 0 0 
L 0 -3.5 
" id="m5c43acd621" style="stroke:#000000;stroke-width:0.8;"/>
      </defs>
      <g>
       <use style="stroke:#000000;stroke-width:0.8;" x="102.897159" xlink:href="#m5c43acd621" y="361.836094"/>
      </g>
     </g>
     <g id="line2d_3">
      <defs>
       <path d="M 0 0 
L 0 3.5 
" id="mf858aaf945" style="stroke:#000000;stroke-width:0.8;"/>
      </defs>
      <g>
       <use style="stroke:#000000;stroke-width:0.8;" x="102.897159" xlink:href="#mf858aaf945" y="29.196094"/>
      </g>
     </g>
     <g id="text_1">
      <!-- 0 -->
      <defs>
       <path d="M 31.78125 3.421875 
Q 39.265625 3.421875 42.96875 11.625 
Q 46.6875 19.828125 46.6875 36.375 
Q 46.6875 52.984375 42.96875 61.1875 
Q 39.265625 69.390625 31.78125 69.390625 
Q 24.3125 69.390625 20.59375 61.1875 
Q 16.890625 52.984375 16.890625 36.375 
Q 16.890625 19.828125 20.59375 11.625 
Q 24.3125 3.421875 31.78125 3.421875 
z
M 31.78125 -1.421875 
Q 19.921875 -1.421875 13.25 8.53125 
Q 6.59375 18.5 6.59375 36.375 
Q 6.59375 54.296875 13.25 64.25 
Q 19.921875 74.21875 31.78125 74.21875 
Q 43.703125 74.21875 50.34375 64.25 
Q 56.984375 54.296875 56.984375 36.375 
Q 56.984375 18.5 50.34375 8.53125 
Q 43.703125 -1.421875 31.78125 -1.421875 
z
" id="DejaVuSerif-30"/>
      </defs>
      <g transform="translate(94.944034 384.332187)scale(0.25 -0.25)">
       <use xlink:href="#DejaVuSerif-30"/>
      </g>
     </g>
    </g>
    <g id="xtick_2">
     <g id="line2d_4">
      <path clip-path="url(#p5e7db33056)" d="M 218.845211 361.836094 
L 218.845211 29.196094 
" style="fill:none;stroke:#b0b0b0;stroke-linecap:square;stroke-width:0.8;"/>
     </g>
     <g id="line2d_5">
      <g>
       <use style="stroke:#000000;stroke-width:0.8;" x="218.845211" xlink:href="#m5c43acd621" y="361.836094"/>
      </g>
     </g>
     <g id="line2d_6">
      <g>
       <use style="stroke:#000000;stroke-width:0.8;" x="218.845211" xlink:href="#mf858aaf945" y="29.196094"/>
      </g>
     </g>
     <g id="text_2">
      <!-- 2 -->
      <defs>
       <path d="M 12.796875 55.515625 
L 7.328125 55.515625 
L 7.328125 68.5 
Q 12.546875 71.296875 17.84375 72.75 
Q 23.140625 74.21875 28.21875 74.21875 
Q 39.59375 74.21875 46.1875 68.703125 
Q 52.78125 63.1875 52.78125 53.71875 
Q 52.78125 43.015625 37.84375 28.125 
Q 36.671875 27 36.078125 26.421875 
L 17.671875 8.015625 
L 48.09375 8.015625 
L 48.09375 17 
L 53.8125 17 
L 53.8125 0 
L 6.78125 0 
L 6.78125 5.328125 
L 28.90625 27.390625 
Q 36.234375 34.71875 39.359375 40.84375 
Q 42.484375 46.96875 42.484375 53.71875 
Q 42.484375 61.078125 38.640625 65.234375 
Q 34.8125 69.390625 28.078125 69.390625 
Q 21.09375 69.390625 17.28125 65.921875 
Q 13.484375 62.453125 12.796875 55.515625 
z
" id="DejaVuSerif-32"/>
      </defs>
      <g transform="translate(210.892086 384.332187)scale(0.25 -0.25)">
       <use xlink:href="#DejaVuSerif-32"/>
      </g>
     </g>
    </g>
    <g id="xtick_3">
     <g id="line2d_7">
      <path clip-path="url(#p5e7db33056)" d="M 334.793263 361.836094 
L 334.793263 29.196094 
" style="fill:none;stroke:#b0b0b0;stroke-linecap:square;stroke-width:0.8;"/>
     </g>
     <g id="line2d_8">
      <g>
       <use style="stroke:#000000;stroke-width:0.8;" x="334.793263" xlink:href="#m5c43acd621" y="361.836094"/>
      </g>
     </g>
     <g id="line2d_9">
      <g>
       <use style="stroke:#000000;stroke-width:0.8;" x="334.793263" xlink:href="#mf858aaf945" y="29.196094"/>
      </g>
     </g>
     <g id="text_3">
      <!-- 4 -->
      <defs>
       <path d="M 34.90625 24.703125 
L 34.90625 63.484375 
L 10.015625 24.703125 
z
M 56.390625 0 
L 23.1875 0 
L 23.1875 5.171875 
L 34.90625 5.171875 
L 34.90625 19.484375 
L 3.078125 19.484375 
L 3.078125 24.8125 
L 35.015625 74.21875 
L 44.671875 74.21875 
L 44.671875 24.703125 
L 58.59375 24.703125 
L 58.59375 19.484375 
L 44.671875 19.484375 
L 44.671875 5.171875 
L 56.390625 5.171875 
z
" id="DejaVuSerif-34"/>
      </defs>
      <g transform="translate(326.840138 384.332187)scale(0.25 -0.25)">
       <use xlink:href="#DejaVuSerif-34"/>
      </g>
     </g>
    </g>
    <g id="xtick_4">
     <g id="line2d_10">
      <path clip-path="url(#p5e7db33056)" d="M 450.741315 361.836094 
L 450.741315 29.196094 
" style="fill:none;stroke:#b0b0b0;stroke-linecap:square;stroke-width:0.8;"/>
     </g>
     <g id="line2d_11">
      <g>
       <use style="stroke:#000000;stroke-width:0.8;" x="450.741315" xlink:href="#m5c43acd621" y="361.836094"/>
      </g>
     </g>
     <g id="line2d_12">
      <g>
       <use style="stroke:#000000;stroke-width:0.8;" x="450.741315" xlink:href="#mf858aaf945" y="29.196094"/>
      </g>
     </g>
     <g id="text_4">
      <!-- 6 -->
      <defs>
       <path d="M 32.71875 3.421875 
Q 39.59375 3.421875 43.296875 8.46875 
Q 47.015625 13.53125 47.015625 23 
Q 47.015625 32.46875 43.296875 37.515625 
Q 39.59375 42.578125 32.71875 42.578125 
Q 25.734375 42.578125 22.0625 37.6875 
Q 18.40625 32.8125 18.40625 23.578125 
Q 18.40625 13.875 22.109375 8.640625 
Q 25.828125 3.421875 32.71875 3.421875 
z
M 16.796875 40.140625 
Q 20.125 43.796875 24.3125 45.59375 
Q 28.515625 47.40625 33.796875 47.40625 
Q 44.671875 47.40625 51 40.859375 
Q 57.328125 34.328125 57.328125 23 
Q 57.328125 11.921875 50.515625 5.25 
Q 43.703125 -1.421875 32.328125 -1.421875 
Q 19.96875 -1.421875 13.328125 7.78125 
Q 6.6875 17 6.6875 34.078125 
Q 6.6875 53.21875 14.546875 63.71875 
Q 22.40625 74.21875 36.71875 74.21875 
Q 40.578125 74.21875 44.828125 73.484375 
Q 49.078125 72.75 53.515625 71.296875 
L 53.515625 59.28125 
L 48 59.28125 
Q 47.40625 64.203125 44.234375 66.796875 
Q 41.0625 69.390625 35.6875 69.390625 
Q 26.21875 69.390625 21.578125 62.203125 
Q 16.9375 55.03125 16.796875 40.140625 
z
" id="DejaVuSerif-36"/>
      </defs>
      <g transform="translate(442.78819 384.332187)scale(0.25 -0.25)">
       <use xlink:href="#DejaVuSerif-36"/>
      </g>
     </g>
    </g>
    <g id="text_5">
     <!-- $t$ [s] -->
     <defs>
      <path d="M 42.28125 54.6875 
L 40.921875 47.703125 
L 23 47.703125 
L 17.1875 18.015625 
Q 16.890625 16.359375 16.75 15.234375 
Q 16.609375 14.109375 16.609375 13.484375 
Q 16.609375 10.359375 18.484375 8.9375 
Q 20.359375 7.515625 24.515625 7.515625 
L 33.59375 7.515625 
L 32.078125 0 
L 23.484375 0 
Q 15.484375 0 11.546875 3.125 
Q 7.625 6.25 7.625 12.59375 
Q 7.625 13.71875 7.765625 15.0625 
Q 7.90625 16.40625 8.203125 18.015625 
L 14.015625 47.703125 
L 6.390625 47.703125 
L 7.8125 54.6875 
L 15.28125 54.6875 
L 18.3125 70.21875 
L 27.296875 70.21875 
L 24.3125 54.6875 
z
" id="DejaVuSans-Oblique-74"/>
      <path id="DejaVuSerif-20"/>
      <path d="M 8.59375 75.984375 
L 31.296875 75.984375 
L 31.296875 70.796875 
L 17.921875 70.796875 
L 17.921875 -8.015625 
L 31.296875 -8.015625 
L 31.296875 -13.1875 
L 8.59375 -13.1875 
z
" id="DejaVuSerif-5b"/>
      <path d="M 5.609375 2.875 
L 5.609375 14.984375 
L 10.796875 14.984375 
Q 10.984375 9.1875 14.421875 6.296875 
Q 17.875 3.421875 24.609375 3.421875 
Q 30.671875 3.421875 33.84375 5.6875 
Q 37.015625 7.953125 37.015625 12.3125 
Q 37.015625 15.71875 34.6875 17.8125 
Q 32.375 19.921875 24.90625 22.3125 
L 18.40625 24.515625 
Q 11.71875 26.65625 8.71875 29.875 
Q 5.71875 33.109375 5.71875 38.09375 
Q 5.71875 45.21875 10.9375 49.265625 
Q 16.15625 53.328125 25.390625 53.328125 
Q 29.5 53.328125 34.03125 52.25 
Q 38.578125 51.171875 43.40625 49.125 
L 43.40625 37.796875 
L 38.234375 37.796875 
Q 38.03125 42.828125 34.703125 45.65625 
Q 31.390625 48.484375 25.6875 48.484375 
Q 20.015625 48.484375 17.109375 46.484375 
Q 14.203125 44.484375 14.203125 40.484375 
Q 14.203125 37.203125 16.40625 35.21875 
Q 18.609375 33.25 25.203125 31.203125 
L 32.328125 29 
Q 39.703125 26.703125 42.9375 23.265625 
Q 46.1875 19.828125 46.1875 14.40625 
Q 46.1875 7.03125 40.546875 2.796875 
Q 34.90625 -1.421875 25 -1.421875 
Q 19.96875 -1.421875 15.1875 -0.34375 
Q 10.40625 0.734375 5.609375 2.875 
z
" id="DejaVuSerif-73"/>
      <path d="M 30.421875 75.984375 
L 30.421875 -13.1875 
L 7.71875 -13.1875 
L 7.71875 -8.015625 
L 21.09375 -8.015625 
L 21.09375 70.796875 
L 7.71875 70.796875 
L 7.71875 75.984375 
z
" id="DejaVuSerif-5d"/>
     </defs>
     <g transform="translate(280.68125 412.5275)scale(0.25 -0.25)">
      <use transform="translate(0 0.015625)" xlink:href="#DejaVuSans-Oblique-74"/>
      <use transform="translate(39.208984 0.015625)" xlink:href="#DejaVuSerif-20"/>
      <use transform="translate(70.996094 0.015625)" xlink:href="#DejaVuSerif-5b"/>
      <use transform="translate(110.009766 0.015625)" xlink:href="#DejaVuSerif-73"/>
      <use transform="translate(161.328125 0.015625)" xlink:href="#DejaVuSerif-5d"/>
     </g>
    </g>
   </g>
   <g id="matplotlib.axis_2">
    <g id="ytick_1">
     <g id="line2d_13">
      <path clip-path="url(#p5e7db33056)" d="M 82.60625 346.716094 
L 529.00625 346.716094 
" style="fill:none;stroke:#b0b0b0;stroke-linecap:square;stroke-width:0.8;"/>
     </g>
     <g id="line2d_14">
      <defs>
       <path d="M 0 0 
L 3.5 0 
" id="m4a3d99316c" style="stroke:#000000;stroke-width:0.8;"/>
      </defs>
      <g>
       <use style="stroke:#000000;stroke-width:0.8;" x="82.60625" xlink:href="#m4a3d99316c" y="346.716094"/>
      </g>
     </g>
     <g id="line2d_15">
      <defs>
       <path d="M 0 0 
L -3.5 0 
" id="m5ed2122b1b" style="stroke:#000000;stroke-width:0.8;"/>
      </defs>
      <g>
       <use style="stroke:#000000;stroke-width:0.8;" x="529.00625" xlink:href="#m5ed2122b1b" y="346.716094"/>
      </g>
     </g>
     <g id="text_6">
      <!-- 0 -->
      <g transform="translate(63.2 356.214141)scale(0.25 -0.25)">
       <use xlink:href="#DejaVuSerif-30"/>
      </g>
     </g>
    </g>
    <g id="ytick_2">
     <g id="line2d_16">
      <path clip-path="url(#p5e7db33056)" d="M 82.60625 272.920748 
L 529.00625 272.920748 
" style="fill:none;stroke:#b0b0b0;stroke-linecap:square;stroke-width:0.8;"/>
     </g>
     <g id="line2d_17">
      <g>
       <use style="stroke:#000000;stroke-width:0.8;" x="82.60625" xlink:href="#m4a3d99316c" y="272.920748"/>
      </g>
     </g>
     <g id="line2d_18">
      <g>
       <use style="stroke:#000000;stroke-width:0.8;" x="529.00625" xlink:href="#m5ed2122b1b" y="272.920748"/>
      </g>
     </g>
     <g id="text_7">
      <!-- 1 -->
      <defs>
       <path d="M 14.203125 0 
L 14.203125 5.171875 
L 26.90625 5.171875 
L 26.90625 65.828125 
L 12.203125 56.296875 
L 12.203125 62.703125 
L 29.984375 74.21875 
L 36.71875 74.21875 
L 36.71875 5.171875 
L 49.421875 5.171875 
L 49.421875 0 
z
" id="DejaVuSerif-31"/>
      </defs>
      <g transform="translate(63.2 282.418795)scale(0.25 -0.25)">
       <use xlink:href="#DejaVuSerif-31"/>
      </g>
     </g>
    </g>
    <g id="ytick_3">
     <g id="line2d_19">
      <path clip-path="url(#p5e7db33056)" d="M 82.60625 199.125402 
L 529.00625 199.125402 
" style="fill:none;stroke:#b0b0b0;stroke-linecap:square;stroke-width:0.8;"/>
     </g>
     <g id="line2d_20">
      <g>
       <use style="stroke:#000000;stroke-width:0.8;" x="82.60625" xlink:href="#m4a3d99316c" y="199.125402"/>
      </g>
     </g>
     <g id="line2d_21">
      <g>
       <use style="stroke:#000000;stroke-width:0.8;" x="529.00625" xlink:href="#m5ed2122b1b" y="199.125402"/>
      </g>
     </g>
     <g id="text_8">
      <!-- 2 -->
      <g transform="translate(63.2 208.623449)scale(0.25 -0.25)">
       <use xlink:href="#DejaVuSerif-32"/>
      </g>
     </g>
    </g>
    <g id="ytick_4">
     <g id="line2d_22">
      <path clip-path="url(#p5e7db33056)" d="M 82.60625 125.330056 
L 529.00625 125.330056 
" style="fill:none;stroke:#b0b0b0;stroke-linecap:square;stroke-width:0.8;"/>
     </g>
     <g id="line2d_23">
      <g>
       <use style="stroke:#000000;stroke-width:0.8;" x="82.60625" xlink:href="#m4a3d99316c" y="125.330056"/>
      </g>
     </g>
     <g id="line2d_24">
      <g>
       <use style="stroke:#000000;stroke-width:0.8;" x="529.00625" xlink:href="#m5ed2122b1b" y="125.330056"/>
      </g>
     </g>
     <g id="text_9">
      <!-- 3 -->
      <defs>
       <path d="M 9.71875 69.828125 
Q 15.4375 71.96875 20.671875 73.09375 
Q 25.921875 74.21875 30.515625 74.21875 
Q 41.21875 74.21875 47.21875 69.59375 
Q 53.21875 64.984375 53.21875 56.78125 
Q 53.21875 50.203125 49.0625 45.78125 
Q 44.921875 41.359375 37.3125 39.796875 
Q 46.296875 38.53125 51.25 33.28125 
Q 56.203125 28.03125 56.203125 19.671875 
Q 56.203125 9.46875 49.34375 4.015625 
Q 42.484375 -1.421875 29.59375 -1.421875 
Q 23.875 -1.421875 18.421875 -0.1875 
Q 12.984375 1.03125 7.625 3.515625 
L 7.625 17.671875 
L 13.09375 17.671875 
Q 13.578125 10.640625 17.828125 7.03125 
Q 22.078125 3.421875 29.78125 3.421875 
Q 37.25 3.421875 41.578125 7.734375 
Q 45.90625 12.0625 45.90625 19.578125 
Q 45.90625 28.171875 41.453125 32.59375 
Q 37.015625 37.015625 28.421875 37.015625 
L 23.78125 37.015625 
L 23.78125 42 
L 26.21875 42 
Q 34.765625 42 39.03125 45.53125 
Q 43.3125 49.078125 43.3125 56.203125 
Q 43.3125 62.59375 39.796875 65.984375 
Q 36.28125 69.390625 29.6875 69.390625 
Q 23.09375 69.390625 19.453125 66.265625 
Q 15.828125 63.140625 15.1875 56.984375 
L 9.71875 56.984375 
z
" id="DejaVuSerif-33"/>
      </defs>
      <g transform="translate(63.2 134.828103)scale(0.25 -0.25)">
       <use xlink:href="#DejaVuSerif-33"/>
      </g>
     </g>
    </g>
    <g id="ytick_5">
     <g id="line2d_25">
      <path clip-path="url(#p5e7db33056)" d="M 82.60625 51.53471 
L 529.00625 51.53471 
" style="fill:none;stroke:#b0b0b0;stroke-linecap:square;stroke-width:0.8;"/>
     </g>
     <g id="line2d_26">
      <g>
       <use style="stroke:#000000;stroke-width:0.8;" x="82.60625" xlink:href="#m4a3d99316c" y="51.53471"/>
      </g>
     </g>
     <g id="line2d_27">
      <g>
       <use style="stroke:#000000;stroke-width:0.8;" x="529.00625" xlink:href="#m5ed2122b1b" y="51.53471"/>
      </g>
     </g>
     <g id="text_10">
      <!-- 4 -->
      <g transform="translate(63.2 61.032757)scale(0.25 -0.25)">
       <use xlink:href="#DejaVuSerif-34"/>
      </g>
     </g>
    </g>
    <g id="text_11">
     <!-- $\|\frac{\dot{\lambda}_{an}-\dot{\lambda}_{c}}{\dot{\lambda}_{an}}\|$ -->
     <defs>
      <path d="M 21 76.421875 
L 21 -23.578125 
L 12.703125 -23.578125 
L 12.703125 76.421875 
z
" id="DejaVuSans-7c"/>
      <path d="M -29.59375 75.984375 
L -20.609375 75.984375 
L -20.609375 64.59375 
L -29.59375 64.59375 
z
M -25 56 
z
" id="DejaVuSans-307"/>
      <path d="M 36.71875 67.4375 
L 48.828125 0 
L 39.3125 0 
L 31.84375 40.4375 
L 5.125 0 
L -4.390625 0 
L 29.734375 52.4375 
L 28.03125 62.109375 
Q 26.953125 68.265625 21.734375 68.265625 
L 17.046875 68.265625 
L 18.5 75.984375 
L 24.21875 75.875 
Q 35.203125 75.734375 36.71875 67.4375 
z
" id="DejaVuSans-Oblique-3bb"/>
      <path d="M 53.71875 31.203125 
L 47.609375 0 
L 38.625 0 
L 40.28125 8.296875 
Q 36.328125 3.421875 31.265625 1 
Q 26.21875 -1.421875 20.015625 -1.421875 
Q 13.03125 -1.421875 8.5625 2.84375 
Q 4.109375 7.125 4.109375 13.8125 
Q 4.109375 23.390625 11.75 28.953125 
Q 19.390625 34.515625 32.8125 34.515625 
L 45.3125 34.515625 
L 45.796875 36.921875 
Q 45.90625 37.3125 45.953125 37.765625 
Q 46 38.234375 46 39.203125 
Q 46 43.5625 42.453125 45.96875 
Q 38.921875 48.390625 32.515625 48.390625 
Q 28.125 48.390625 23.5 47.265625 
Q 18.890625 46.140625 14.015625 43.890625 
L 15.578125 52.203125 
Q 20.65625 54.109375 25.515625 55.046875 
Q 30.375 56 34.90625 56 
Q 44.578125 56 49.625 51.796875 
Q 54.6875 47.609375 54.6875 39.59375 
Q 54.6875 37.984375 54.4375 35.8125 
Q 54.203125 33.640625 53.71875 31.203125 
z
M 44 27.484375 
L 35.015625 27.484375 
Q 23.96875 27.484375 18.671875 24.53125 
Q 13.375 21.578125 13.375 15.375 
Q 13.375 11.078125 16.078125 8.640625 
Q 18.796875 6.203125 23.578125 6.203125 
Q 30.90625 6.203125 36.375 11.453125 
Q 41.84375 16.703125 43.609375 25.484375 
z
" id="DejaVuSans-Oblique-61"/>
      <path d="M 55.71875 33.015625 
L 49.3125 0 
L 40.28125 0 
L 46.6875 32.671875 
Q 47.125 34.96875 47.359375 36.71875 
Q 47.609375 38.484375 47.609375 39.5 
Q 47.609375 43.609375 45.015625 45.890625 
Q 42.4375 48.1875 37.796875 48.1875 
Q 30.5625 48.1875 25.34375 43.375 
Q 20.125 38.578125 18.5 30.328125 
L 12.5 0 
L 3.515625 0 
L 14.109375 54.6875 
L 23.09375 54.6875 
L 21.296875 46.09375 
Q 25.046875 50.828125 30.3125 53.40625 
Q 35.59375 56 41.40625 56 
Q 48.640625 56 52.609375 52.09375 
Q 56.59375 48.1875 56.59375 41.109375 
Q 56.59375 39.359375 56.375 37.359375 
Q 56.15625 35.359375 55.71875 33.015625 
z
" id="DejaVuSans-Oblique-6e"/>
      <path d="M 10.59375 35.5 
L 73.1875 35.5 
L 73.1875 27.203125 
L 10.59375 27.203125 
z
" id="DejaVuSans-2212"/>
      <path d="M 53.609375 52.59375 
L 51.8125 43.703125 
Q 48.578125 46.046875 44.9375 47.21875 
Q 41.3125 48.390625 37.40625 48.390625 
Q 33.109375 48.390625 29.21875 46.875 
Q 25.34375 45.359375 22.703125 42.578125 
Q 18.5 38.328125 16.203125 32.609375 
Q 13.921875 26.90625 13.921875 20.796875 
Q 13.921875 13.421875 17.609375 9.8125 
Q 21.296875 6.203125 28.8125 6.203125 
Q 32.515625 6.203125 36.6875 7.328125 
Q 40.875 8.453125 45.40625 10.6875 
L 43.703125 1.8125 
Q 39.796875 0.203125 35.671875 -0.609375 
Q 31.546875 -1.421875 27.203125 -1.421875 
Q 16.3125 -1.421875 10.453125 4.015625 
Q 4.59375 9.46875 4.59375 19.578125 
Q 4.59375 28.078125 7.640625 35.234375 
Q 10.6875 42.390625 16.703125 48.09375 
Q 20.796875 52 26.3125 54 
Q 31.84375 56 38.375 56 
Q 42.1875 56 45.9375 55.140625 
Q 49.703125 54.296875 53.609375 52.59375 
z
" id="DejaVuSans-Oblique-63"/>
     </defs>
     <g transform="translate(40.2 238.266094)rotate(-90)scale(0.25 -0.25)">
      <use transform="translate(0 0.093906)" xlink:href="#DejaVuSans-7c"/>
      <use transform="translate(76.766602 78.807812)scale(0.7)" xlink:href="#DejaVuSans-307"/>
      <use transform="translate(33.691406 56.071875)scale(0.7)" xlink:href="#DejaVuSans-Oblique-3bb"/>
      <use transform="translate(75.787109 44.5875)scale(0.49)" xlink:href="#DejaVuSans-Oblique-61"/>
      <use transform="translate(105.813965 44.5875)scale(0.49)" xlink:href="#DejaVuSans-Oblique-6e"/>
      <use transform="translate(152.421387 56.071875)scale(0.7)" xlink:href="#DejaVuSans-2212"/>
      <use transform="translate(267.786621 78.807812)scale(0.7)" xlink:href="#DejaVuSans-307"/>
      <use transform="translate(224.711426 56.071875)scale(0.7)" xlink:href="#DejaVuSans-Oblique-3bb"/>
      <use transform="translate(266.807129 44.5875)scale(0.49)" xlink:href="#DejaVuSans-Oblique-63"/>
      <use transform="translate(154.766602 -40.551406)scale(0.7)" xlink:href="#DejaVuSans-307"/>
      <use transform="translate(111.691406 -63.287344)scale(0.7)" xlink:href="#DejaVuSans-Oblique-3bb"/>
      <use transform="translate(153.787109 -74.771719)scale(0.49)" xlink:href="#DejaVuSans-Oblique-61"/>
      <use transform="translate(183.813965 -74.771719)scale(0.49)" xlink:href="#DejaVuSans-Oblique-6e"/>
      <use transform="translate(308.161621 0.093906)" xlink:href="#DejaVuSans-7c"/>
      <path d="M 33.691406 18.890781 
L 33.691406 25.140781 
L 295.661621 25.140781 
L 295.661621 18.890781 
L 33.691406 18.890781 
z
"/>
     </g>
    </g>
    <g id="text_12">
     <!-- 1e−7 -->
     <defs>
      <path d="M 54.203125 25 
L 15.484375 25 
L 15.484375 24.609375 
Q 15.484375 14.109375 19.4375 8.765625 
Q 23.390625 3.421875 31.109375 3.421875 
Q 37.015625 3.421875 40.796875 6.515625 
Q 44.578125 9.625 46.09375 15.71875 
L 53.328125 15.71875 
Q 51.171875 7.171875 45.375 2.875 
Q 39.59375 -1.421875 30.171875 -1.421875 
Q 18.796875 -1.421875 11.890625 6.078125 
Q 4.984375 13.578125 4.984375 25.984375 
Q 4.984375 38.28125 11.765625 45.796875 
Q 18.5625 53.328125 29.59375 53.328125 
Q 41.359375 53.328125 47.65625 46.0625 
Q 53.953125 38.8125 54.203125 25 
z
M 43.609375 30.171875 
Q 43.3125 39.265625 39.765625 43.875 
Q 36.234375 48.484375 29.59375 48.484375 
Q 23.390625 48.484375 19.828125 43.84375 
Q 16.265625 39.203125 15.484375 30.171875 
z
" id="DejaVuSerif-65"/>
      <path d="M 10.59375 35.296875 
L 73.1875 35.296875 
L 73.1875 27.390625 
L 10.59375 27.390625 
z
" id="DejaVuSerif-2212"/>
      <path d="M 56.390625 67.921875 
L 27.875 0 
L 20.609375 0 
L 47.796875 64.890625 
L 14.109375 64.890625 
L 14.109375 55.90625 
L 8.40625 55.90625 
L 8.40625 72.90625 
L 56.390625 72.90625 
z
" id="DejaVuSerif-37"/>
     </defs>
     <g transform="translate(82.60625 26.196094)scale(0.25 -0.25)">
      <use xlink:href="#DejaVuSerif-31"/>
      <use x="63.623047" xlink:href="#DejaVuSerif-65"/>
      <use x="122.802734" xlink:href="#DejaVuSerif-2212"/>
      <use x="206.591797" xlink:href="#DejaVuSerif-37"/>
     </g>
    </g>
   </g>
   <g id="line2d_28">
    <path clip-path="url(#p5e7db33056)" d="M 102.897159 346.716094 
L 160.871185 346.716094 
L 166.668588 346.716094 
L 172.46599 346.716094 
L 178.263393 346.716094 
L 184.060795 346.716094 
L 189.858198 346.716094 
L 195.655601 44.316094 
L 201.453003 346.716093 
L 207.250406 346.716093 
L 213.047808 346.716093 
L 218.845211 346.716093 
L 224.642614 346.716092 
L 230.440016 346.716093 
L 236.237419 346.716091 
L 242.034821 346.716093 
L 247.832224 346.716093 
L 253.629627 346.716093 
L 259.427029 346.71609 
L 265.224432 346.716092 
L 271.021834 346.716093 
L 276.819237 346.716093 
L 282.61664 346.716093 
L 288.414042 346.716092 
L 294.211445 346.716093 
L 300.008847 346.716094 
L 305.80625 346.716094 
L 311.603653 346.716093 
L 317.401055 346.716093 
L 323.198458 346.716092 
L 328.99586 346.716091 
L 334.793263 346.716094 
L 340.590666 346.716093 
L 346.388068 346.716093 
L 352.185471 346.716093 
L 357.982873 346.716093 
L 363.780276 346.71609 
L 369.577679 346.716093 
L 375.375081 346.716092 
L 381.172484 346.716092 
L 386.969886 346.716091 
L 392.767289 346.716093 
L 398.564692 319.225209 
L 404.362094 346.716093 
L 410.159497 346.716092 
L 415.956899 346.716092 
L 421.754302 346.716093 
L 427.551705 346.716091 
L 433.349107 346.716093 
L 439.14651 346.716093 
L 444.943912 346.716094 
L 450.741315 346.716093 
L 456.538718 319.225208 
L 462.33612 346.716091 
L 468.133523 346.71609 
L 473.930925 346.716093 
L 479.728328 346.716092 
L 485.525731 346.716092 
L 491.323133 346.716093 
L 497.120536 346.716093 
L 502.917938 346.716094 
L 508.715341 346.716092 
" style="fill:none;stroke:#000000;stroke-dasharray:5.55,2.4;stroke-dashoffset:0;stroke-width:1.5;"/>
    <defs>
     <path d="M -5 5 
L 5 5 
L 5 -5 
L -5 -5 
z
" id="mcc0db7a3b0" style="stroke:#000000;stroke-linejoin:miter;stroke-width:2;"/>
    </defs>
    <g clip-path="url(#p5e7db33056)">
     <use style="fill-opacity:0;stroke:#000000;stroke-linejoin:miter;stroke-width:2;" x="102.897159" xlink:href="#mcc0db7a3b0" y="346.716094"/>
     <use style="fill-opacity:0;stroke:#000000;stroke-linejoin:miter;stroke-width:2;" x="160.871185" xlink:href="#mcc0db7a3b0" y="346.716094"/>
     <use style="fill-opacity:0;stroke:#000000;stroke-linejoin:miter;stroke-width:2;" x="166.668588" xlink:href="#mcc0db7a3b0" y="346.716094"/>
     <use style="fill-opacity:0;stroke:#000000;stroke-linejoin:miter;stroke-width:2;" x="172.46599" xlink:href="#mcc0db7a3b0" y="346.716094"/>
     <use style="fill-opacity:0;stroke:#000000;stroke-linejoin:miter;stroke-width:2;" x="178.263393" xlink:href="#mcc0db7a3b0" y="346.716094"/>
     <use style="fill-opacity:0;stroke:#000000;stroke-linejoin:miter;stroke-width:2;" x="184.060795" xlink:href="#mcc0db7a3b0" y="346.716094"/>
     <use style="fill-opacity:0;stroke:#000000;stroke-linejoin:miter;stroke-width:2;" x="189.858198" xlink:href="#mcc0db7a3b0" y="346.716094"/>
     <use style="fill-opacity:0;stroke:#000000;stroke-linejoin:miter;stroke-width:2;" x="195.655601" xlink:href="#mcc0db7a3b0" y="44.316094"/>
     <use style="fill-opacity:0;stroke:#000000;stroke-linejoin:miter;stroke-width:2;" x="201.453003" xlink:href="#mcc0db7a3b0" y="346.716093"/>
     <use style="fill-opacity:0;stroke:#000000;stroke-linejoin:miter;stroke-width:2;" x="207.250406" xlink:href="#mcc0db7a3b0" y="346.716093"/>
     <use style="fill-opacity:0;stroke:#000000;stroke-linejoin:miter;stroke-width:2;" x="213.047808" xlink:href="#mcc0db7a3b0" y="346.716093"/>
     <use style="fill-opacity:0;stroke:#000000;stroke-linejoin:miter;stroke-width:2;" x="218.845211" xlink:href="#mcc0db7a3b0" y="346.716093"/>
     <use style="fill-opacity:0;stroke:#000000;stroke-linejoin:miter;stroke-width:2;" x="224.642614" xlink:href="#mcc0db7a3b0" y="346.716092"/>
     <use style="fill-opacity:0;stroke:#000000;stroke-linejoin:miter;stroke-width:2;" x="230.440016" xlink:href="#mcc0db7a3b0" y="346.716093"/>
     <use style="fill-opacity:0;stroke:#000000;stroke-linejoin:miter;stroke-width:2;" x="236.237419" xlink:href="#mcc0db7a3b0" y="346.716091"/>
     <use style="fill-opacity:0;stroke:#000000;stroke-linejoin:miter;stroke-width:2;" x="242.034821" xlink:href="#mcc0db7a3b0" y="346.716093"/>
     <use style="fill-opacity:0;stroke:#000000;stroke-linejoin:miter;stroke-width:2;" x="247.832224" xlink:href="#mcc0db7a3b0" y="346.716093"/>
     <use style="fill-opacity:0;stroke:#000000;stroke-linejoin:miter;stroke-width:2;" x="253.629627" xlink:href="#mcc0db7a3b0" y="346.716093"/>
     <use style="fill-opacity:0;stroke:#000000;stroke-linejoin:miter;stroke-width:2;" x="259.427029" xlink:href="#mcc0db7a3b0" y="346.71609"/>
     <use style="fill-opacity:0;stroke:#000000;stroke-linejoin:miter;stroke-width:2;" x="265.224432" xlink:href="#mcc0db7a3b0" y="346.716092"/>
     <use style="fill-opacity:0;stroke:#000000;stroke-linejoin:miter;stroke-width:2;" x="271.021834" xlink:href="#mcc0db7a3b0" y="346.716093"/>
     <use style="fill-opacity:0;stroke:#000000;stroke-linejoin:miter;stroke-width:2;" x="276.819237" xlink:href="#mcc0db7a3b0" y="346.716093"/>
     <use style="fill-opacity:0;stroke:#000000;stroke-linejoin:miter;stroke-width:2;" x="282.61664" xlink:href="#mcc0db7a3b0" y="346.716093"/>
     <use style="fill-opacity:0;stroke:#000000;stroke-linejoin:miter;stroke-width:2;" x="288.414042" xlink:href="#mcc0db7a3b0" y="346.716092"/>
     <use style="fill-opacity:0;stroke:#000000;stroke-linejoin:miter;stroke-width:2;" x="294.211445" xlink:href="#mcc0db7a3b0" y="346.716093"/>
     <use style="fill-opacity:0;stroke:#000000;stroke-linejoin:miter;stroke-width:2;" x="300.008847" xlink:href="#mcc0db7a3b0" y="346.716094"/>
     <use style="fill-opacity:0;stroke:#000000;stroke-linejoin:miter;stroke-width:2;" x="305.80625" xlink:href="#mcc0db7a3b0" y="346.716094"/>
     <use style="fill-opacity:0;stroke:#000000;stroke-linejoin:miter;stroke-width:2;" x="311.603653" xlink:href="#mcc0db7a3b0" y="346.716093"/>
     <use style="fill-opacity:0;stroke:#000000;stroke-linejoin:miter;stroke-width:2;" x="317.401055" xlink:href="#mcc0db7a3b0" y="346.716093"/>
     <use style="fill-opacity:0;stroke:#000000;stroke-linejoin:miter;stroke-width:2;" x="323.198458" xlink:href="#mcc0db7a3b0" y="346.716092"/>
     <use style="fill-opacity:0;stroke:#000000;stroke-linejoin:miter;stroke-width:2;" x="328.99586" xlink:href="#mcc0db7a3b0" y="346.716091"/>
     <use style="fill-opacity:0;stroke:#000000;stroke-linejoin:miter;stroke-width:2;" x="334.793263" xlink:href="#mcc0db7a3b0" y="346.716094"/>
     <use style="fill-opacity:0;stroke:#000000;stroke-linejoin:miter;stroke-width:2;" x="340.590666" xlink:href="#mcc0db7a3b0" y="346.716093"/>
     <use style="fill-opacity:0;stroke:#000000;stroke-linejoin:miter;stroke-width:2;" x="346.388068" xlink:href="#mcc0db7a3b0" y="346.716093"/>
     <use style="fill-opacity:0;stroke:#000000;stroke-linejoin:miter;stroke-width:2;" x="352.185471" xlink:href="#mcc0db7a3b0" y="346.716093"/>
     <use style="fill-opacity:0;stroke:#000000;stroke-linejoin:miter;stroke-width:2;" x="357.982873" xlink:href="#mcc0db7a3b0" y="346.716093"/>
     <use style="fill-opacity:0;stroke:#000000;stroke-linejoin:miter;stroke-width:2;" x="363.780276" xlink:href="#mcc0db7a3b0" y="346.71609"/>
     <use style="fill-opacity:0;stroke:#000000;stroke-linejoin:miter;stroke-width:2;" x="369.577679" xlink:href="#mcc0db7a3b0" y="346.716093"/>
     <use style="fill-opacity:0;stroke:#000000;stroke-linejoin:miter;stroke-width:2;" x="375.375081" xlink:href="#mcc0db7a3b0" y="346.716092"/>
     <use style="fill-opacity:0;stroke:#000000;stroke-linejoin:miter;stroke-width:2;" x="381.172484" xlink:href="#mcc0db7a3b0" y="346.716092"/>
     <use style="fill-opacity:0;stroke:#000000;stroke-linejoin:miter;stroke-width:2;" x="386.969886" xlink:href="#mcc0db7a3b0" y="346.716091"/>
     <use style="fill-opacity:0;stroke:#000000;stroke-linejoin:miter;stroke-width:2;" x="392.767289" xlink:href="#mcc0db7a3b0" y="346.716093"/>
     <use style="fill-opacity:0;stroke:#000000;stroke-linejoin:miter;stroke-width:2;" x="398.564692" xlink:href="#mcc0db7a3b0" y="319.225209"/>
     <use style="fill-opacity:0;stroke:#000000;stroke-linejoin:miter;stroke-width:2;" x="404.362094" xlink:href="#mcc0db7a3b0" y="346.716093"/>
     <use style="fill-opacity:0;stroke:#000000;stroke-linejoin:miter;stroke-width:2;" x="410.159497" xlink:href="#mcc0db7a3b0" y="346.716092"/>
     <use style="fill-opacity:0;stroke:#000000;stroke-linejoin:miter;stroke-width:2;" x="415.956899" xlink:href="#mcc0db7a3b0" y="346.716092"/>
     <use style="fill-opacity:0;stroke:#000000;stroke-linejoin:miter;stroke-width:2;" x="421.754302" xlink:href="#mcc0db7a3b0" y="346.716093"/>
     <use style="fill-opacity:0;stroke:#000000;stroke-linejoin:miter;stroke-width:2;" x="427.551705" xlink:href="#mcc0db7a3b0" y="346.716091"/>
     <use style="fill-opacity:0;stroke:#000000;stroke-linejoin:miter;stroke-width:2;" x="433.349107" xlink:href="#mcc0db7a3b0" y="346.716093"/>
     <use style="fill-opacity:0;stroke:#000000;stroke-linejoin:miter;stroke-width:2;" x="439.14651" xlink:href="#mcc0db7a3b0" y="346.716093"/>
     <use style="fill-opacity:0;stroke:#000000;stroke-linejoin:miter;stroke-width:2;" x="444.943912" xlink:href="#mcc0db7a3b0" y="346.716094"/>
     <use style="fill-opacity:0;stroke:#000000;stroke-linejoin:miter;stroke-width:2;" x="450.741315" xlink:href="#mcc0db7a3b0" y="346.716093"/>
     <use style="fill-opacity:0;stroke:#000000;stroke-linejoin:miter;stroke-width:2;" x="456.538718" xlink:href="#mcc0db7a3b0" y="319.225208"/>
     <use style="fill-opacity:0;stroke:#000000;stroke-linejoin:miter;stroke-width:2;" x="462.33612" xlink:href="#mcc0db7a3b0" y="346.716091"/>
     <use style="fill-opacity:0;stroke:#000000;stroke-linejoin:miter;stroke-width:2;" x="468.133523" xlink:href="#mcc0db7a3b0" y="346.71609"/>
     <use style="fill-opacity:0;stroke:#000000;stroke-linejoin:miter;stroke-width:2;" x="473.930925" xlink:href="#mcc0db7a3b0" y="346.716093"/>
     <use style="fill-opacity:0;stroke:#000000;stroke-linejoin:miter;stroke-width:2;" x="479.728328" xlink:href="#mcc0db7a3b0" y="346.716092"/>
     <use style="fill-opacity:0;stroke:#000000;stroke-linejoin:miter;stroke-width:2;" x="485.525731" xlink:href="#mcc0db7a3b0" y="346.716092"/>
     <use style="fill-opacity:0;stroke:#000000;stroke-linejoin:miter;stroke-width:2;" x="491.323133" xlink:href="#mcc0db7a3b0" y="346.716093"/>
     <use style="fill-opacity:0;stroke:#000000;stroke-linejoin:miter;stroke-width:2;" x="497.120536" xlink:href="#mcc0db7a3b0" y="346.716093"/>
     <use style="fill-opacity:0;stroke:#000000;stroke-linejoin:miter;stroke-width:2;" x="502.917938" xlink:href="#mcc0db7a3b0" y="346.716094"/>
     <use style="fill-opacity:0;stroke:#000000;stroke-linejoin:miter;stroke-width:2;" x="508.715341" xlink:href="#mcc0db7a3b0" y="346.716092"/>
    </g>
   </g>
   <g id="patch_3">
    <path d="M 82.60625 361.836094 
L 82.60625 29.196094 
" style="fill:none;stroke:#000000;stroke-linecap:square;stroke-linejoin:miter;stroke-width:0.8;"/>
   </g>
   <g id="patch_4">
    <path d="M 529.00625 361.836094 
L 529.00625 29.196094 
" style="fill:none;stroke:#000000;stroke-linecap:square;stroke-linejoin:miter;stroke-width:0.8;"/>
   </g>
   <g id="patch_5">
    <path d="M 82.60625 361.836094 
L 529.00625 361.836094 
" style="fill:none;stroke:#000000;stroke-linecap:square;stroke-linejoin:miter;stroke-width:0.8;"/>
   </g>
   <g id="patch_6">
    <path d="M 82.60625 29.196094 
L 529.00625 29.196094 
" style="fill:none;stroke:#000000;stroke-linecap:square;stroke-linejoin:miter;stroke-width:0.8;"/>
   </g>
  </g>
 </g>
 <defs>
  <clipPath id="p5e7db33056">
   <rect height="332.64" width="446.4" x="82.60625" y="29.196094"/>
  </clipPath>
 </defs>
</svg>
